<svg width="150" height="150" viewBox="0 0 150 150" fill="none" xmlns="http://www.w3.org/2000/svg">
<circle cx="75" cy="75" r="72.5" fill="#FFF3E0" stroke="#B4D1E0" stroke-width="5"/>
<path d="M35.608 109C34.2 107.4 33.496 105.352 33.496 102.856C35.8 102.856 37.496 102.504 38.584 101.8C39.736 101.096 40.312 99.848 40.312 98.056V52.936C40.312 51.144 39.704 49.896 38.488 49.192C37.336 48.424 35.672 48.04 33.496 48.04C33.496 45.672 34.232 43.656 35.704 41.992H50.776C53.528 41.992 55.832 42.376 57.688 43.144C59.608 43.912 61.144 45.672 62.296 48.424L72.472 73.48L76.312 85.384L79.96 73.48L92.056 41.992H113.944C115.416 43.656 116.152 45.672 116.152 48.04C113.976 48.04 112.344 48.424 111.256 49.192C110.232 49.896 109.72 51.144 109.72 52.936V98.056C109.72 99.848 110.2 101.096 111.16 101.8C112.184 102.504 113.848 102.856 116.152 102.856C116.152 105.288 115.416 107.336 113.944 109H90.136C89.496 108.232 88.984 107.304 88.6 106.216C88.216 105.128 88.024 104.008 88.024 102.856C90.2 102.856 91.832 102.504 92.92 101.8C94.072 101.096 94.648 99.848 94.648 98.056V58.312L78.328 99.496C77.496 101.608 76.28 103.016 74.68 103.72C73.144 104.36 71.288 104.68 69.112 104.68L50.104 58.312V98.056C50.104 99.848 50.744 101.096 52.024 101.8C53.368 102.504 55.256 102.856 57.688 102.856C57.688 104.008 57.496 105.128 57.112 106.216C56.728 107.304 56.216 108.232 55.576 109H35.608Z" fill="#BEDDED"/>
</svg>
