<svg width="68" height="80" xmlns="http://www.w3.org/2000/svg"><title>background</title><path fill="none" d="M-1-1h70v82H-1z"/><title>Layer 1</title><path stroke="null" fill-rule="evenodd" clip-rule="evenodd" fill="#010101" d="M23.696 77.442v.102c-.079.124-.219.194-.39.252-.589.203-6.02 1.657-6.286 1.698-.081.013-4.326-1.094-4.65-1.182-.482-.142-1.055-.047-1.508.043-.302.06-4.557 1.164-4.738 1.12-.335-.08-4.231-1.538-4.542-1.618a6.49 6.49 0 0 1-.95-.314c-.12-.052-.175-.113-.174-.217.005-.271.037-.538.154-.798.072-.159.05-.322.048-.484a.72.72 0 0 1 .12-.424.863.863 0 0 0 .135-.45.334.334 0 0 1 .093-.217.88.88 0 0 0 .244-.478c.025-.202.125-.392.16-.592.02-.105.1-.192.189-.275.266-.25.386-.53.332-.843-.048-.277.072-.543.101-.815.04-.376.303-.709.448-1.065.118-.288.206-.581.263-.877.033-.17-.036-.341-.15-.496-.096-.13-.108-.261-.11-.407-.005-.253.07-.491.156-.732.092-.254.017-.495-.16-.718-.11-.138-.113-.26-.041-.413.093-.198.162-.402.261-.6a.292.292 0 0 0 .04-.138c-.022-.41.188-.79.287-1.185.057-.228.102-.456.076-.688-.005-.048.016-.093.03-.14a1.23 1.23 0 0 0 .042-.65.393.393 0 0 1 .02-.216c.082-.232.1-.465.054-.701-.014-.075.01-.145.033-.216.113-.344.009-.653-.302-.928a.354.354 0 0 1 .052-.56c.402-.248.573-.56.569-.932-.003-.175.084-.345.036-.523a.887.887 0 0 0-.359-.523 2.022 2.022 0 0 1-.39-.368c-.069-.081-.1-.164-.078-.256.01-.047.026-.094.016-.14-.02-.093.047-.145.153-.183.488-.173.758-.455.815-.838.075-.51.042-1.007-.35-1.46-.076-.087-.067-.152.047-.222.376-.23.538-.531.539-.878 0-.107.047-.212.025-.32a.926.926 0 0 0-.19-.439c-.065-.076-.073-.15-.005-.229.287-.329.287-.667.087-1.02-.094-.165-.016-.336.104-.478a1.1 1.1 0 0 0 .28-.692c.013-.333.047-.666.112-.997.06-.314-.024-.616-.291-.879-.118-.116-.128-.221-.031-.344.262-.332.463-.677.465-1.068 0-.098.065-.19.104-.285.126-.304.28-.605.145-.93-.016-.037 0-.075.024-.111.113-.162.012-.418-.204-.518-.055-.025-.13-.04-.119-.1.01-.054.075-.073.136-.093.05-.017.102-.025.152-.041.18-.057.21-.096.196-.238a1.518 1.518 0 0 1 .045-.46c.08-.37.1-.739.03-1.111-.04-.212.002-.428-.027-.642-.01-.073-.037-.126-.124-.173-.167-.091-.132-.21.066-.259.028-.007.057-.015.087-.017.168-.013.193-.084.205-.195.036-.337.006-.674.039-1.011.01-.112.076-.216.095-.327.028-.166-.005-.207-.227-.25-.163-.03-.325-.065-.494-.078-.063-.005-.121-.017-.144-.064-.025-.052.008-.094.064-.124.116-.06.232-.121.352-.179.194-.091.342-.192.37-.388.063-.442.077-.887.143-1.329.042-.289.023-.58.051-.871.022-.23.055-.46.083-.69.024-.196.03-.393.042-.59.003-.052-.03-.098-.062-.145a.982.982 0 0 1-.17-.508 3.764 3.764 0 0 1 .109-1.02c.003-.018.003-.035.01-.051.013-.027.01-.066.066-.065.043 0 .051.034.059.057.017.057.05.104.121.137.062.028.109.029.105-.032-.022-.344.109-.68.113-1.022.005-.47.047-.94.09-1.408.052-.546.1-1.092.12-1.638.011-.282-.073-.562-.1-.843-.006-.077-.059-.131-.164-.17-.19-.072-.185-.212.003-.29.016-.006.032-.013.05-.016.185-.037.264-.114.222-.257a.294.294 0 0 1 .039-.253c.16-.23.157-.479.176-.727.04-.568.072-1.136.134-1.703.021-.196.025-.393.038-.589.024-.346.037-.692.071-1.038.018-.18-.033-.22-.292-.262-.097-.015-.197-.033-.19-.126.008-.088.1-.112.203-.114.143-.004.224-.048.24-.152.066-.417.16-.831.16-1.252 0-.112-.047-.196-.167-.27a1.084 1.084 0 0 1-.48-.577c-.048-.143-.009-.17.19-.129.062.013.089.003.103-.039.015-.046.02-.093.03-.14.008-.033.014-.07.068-.084.053-.013.088.014.127.036.063.035.09.133.177.106.088-.027.031-.117.042-.178.049-.268.045-.538.081-.806.048-.343-.055-.666-.222-.991a6.333 6.333 0 0 1-.597-1.638c-.063-.316-.02-.631.004-.947.002-.017.008-.034.012-.05.045-.176.077-.185.275-.08.07-.036.04-.136.128-.142.099-.008.107.08.153.126.01.011.021.029.037.026.205-.03.19.098.24.172.107.156.123.336.238.478a.737.737 0 0 1 0-.244c.039-.329-.175-.617-.285-.922-.116-.324-.233-.647-.295-.979-.02-.103.013-.167.161-.19.023 0 .041.006.057.016.134.216.294.422.495.61.029.027.05.058.087.082.062.042.135.08.224.07.097-.01.09-.081.113-.132.043-.094.074-.19.022-.288a.11.11 0 0 1-.003-.09c.113-.315-.011-.628-.024-.942-.01-.23-.03-.462-.128-.686-.162-.37-.366-.724-.7-1.035-.1-.092-.183-.192-.28-.285-.121-.117-.101-.255-.099-.384.004-.133-.006-.265-.007-.397-.004-.57-.025-1.14.005-1.708.029-.53.003-1.06.003-1.59 0-.358-.007-.719.003-1.076.01-.334-.014-.666-.015-1-.001-.757.01-1.515.001-2.272-.004-.428-.07-.856-.03-1.283.034-.35-.02-.697-.008-1.046.013-.347.003-.694.003-1.04 0-.099-.008-.197-.024-.295-.045-.266.01-.528.083-.789.018-.02.037-.038.078-.026.085.105.064.226.074.338.066.77.343 1.51.597 2.254.155.454.35.9.525 1.349.188.485.43.961.787 1.42a.326.326 0 0 0 .017-.146c-.029-.347.02-.693.026-1.038.02-1.144 0-2.287.013-3.43.001-.123.044-.246.01-.37-.01-.044-.014-.112.068-.116.06-.003.08.059.086.1.02.12.04.239.055.358.046.384.078.768.15 1.15.11.585.243 1.167.404 1.748.101.369.152.746.282 1.111.221.621.367 1.259.788 1.838.165.227.245.463.234.726-.024.548-.007 1.096-.008 1.645 0 .23-.059.46-.023.691.023.149.037.17.249.172.652.003 1.305-.003 1.957 0 .133.001.266-.006.398.011.125.017.18-.024.194-.106a.464.464 0 0 0 .012-.09c-.003-.466-.01-.933-.003-1.4.007-.47-.036-.942.045-1.41.029-.173.098-.337.194-.494.33-.536.527-1.102.739-1.664.3-.795.482-1.608.729-2.41.145-.473.393-1.466.408-1.803a.15.15 0 0 1 .028-.074c.016-.023.03-.053.07-.053.054 0 .058.037.067.065.014.042.011.085.011.128.001.274.01 1.014-.013 1.41-.015.248.001.496-.022.744-.063.701-.029 1.404-.037 2.106a.489.489 0 0 0 .05.262c.083-.023.092-.07.108-.108.136-.333.347-.648.495-.979.382-.857.71-1.725.822-2.625.034-.277-.014-.557.044-.834.015-.07 0-.182.109-.182.101 0 .074.11.074.175-.002.698.028 1.396.016 2.093-.013.869.018 1.737-.022 2.605-.024.527-.006 1.053-.031 1.58a43.225 43.225 0 0 0-.033 2.091c0 .937-.059 1.875-.046 2.812.006.44-.054.881-.026 1.322.008.124-.053.218-.17.311-.47.378-.796.815-.992 1.3a.63.63 0 0 0-.036.216c-.018.41-.02.82-.02 1.23 0 .138.014.273.028.41.01.09.052.105.16.05.18-.093.359-.188.458-.34.084-.127.193-.247.302-.365.035-.038.058-.087.14-.09.062.043.047.097.05.148-.066.353-.229.688-.38 1.025a.534.534 0 0 0-.05.363c.06.237.025.476.035.728.047-.308.17-.593.238-.885a.168.168 0 0 1 .05-.095c.031-.021.066-.036.11-.021.129.143.297.264.307.458.02.356-.004.709-.078 1.06-.057.27-.119.541-.194.81a7.279 7.279 0 0 1-.148.462c-.142.405-.261.814-.202 1.23.042.298.062.596.112.884.017.015.029.017.04.012.261-.126.261-.126.32.1.028.109.057.116.18.045.035-.02.064-.063.118-.041.044.017.047.058.05.092a.537.537 0 0 1-.046.304c-.102.2-.252.379-.463.531-.053.038-.087.077-.083.135.033.45.11.895.247 1.335.026.082.094.097.192.104.134.008.254.033.26.153.004.085-.04.142-.171.149l-.109.004c-.2.007-.195.009-.192.15.013.547.071 1.093.12 1.64.052.58.121 1.16.197 1.74.033.247.05.493.207.723.045.067.035.145-.014.213-.055.075-.019.12.08.153.087.03.172.062.245.108.139.087.14.187-.016.253-.12.05-.151.12-.175.208-.132.464-.084.929-.017 1.393.048.332.058.666.1.998.066.516.09 1.033.176 1.548.03.19-.002.385.044.576.01.037 0 .077.04.11.09-.012.063-.079.11-.109a.066.066 0 0 1 .056-.007.638.638 0 0 1 .115.294c.049.25.1.5.144.75.028.157-.033.298-.133.432-.057.08-.086.159-.063.248.089.346.06.7.13 1.047.085.428.087.862.153 1.29.052.346.076.692.135 1.036.026.15.097.266.277.354.169.082.332.171.48.273.06.04.114.081.082.144-.032.061-.11.056-.183.06-.179.013-.351.053-.537.03-.13-.015-.184.049-.18.136a.94.94 0 0 0 .03.19c.089.399.066.803.137 1.202.018.096.075.148.198.174.081.017.163.034.232.07.133.073.144.189 0 .244-.183.068-.198.169-.211.297-.036.35-.038.7.003 1.05.039.33.103.655.135.984.012.124.093.208.25.26.071.024.14.052.2.088.107.063.097.121-.032.147-.129.025-.262.033-.318.142a.33.33 0 0 0-.025.277.265.265 0 0 1 .013.115c-.028.281.04.556.137.825.09.248.07.502.108.753.023.16.051.323.044.486-.007.147.046.185.252.217.053.009.108.004.161.008.09.005.146.04.164.102.017.06-.036.096-.101.123a.607.607 0 0 1-.208.042c-.14.006-.207.055-.199.157.021.26.044.52.052.781.011.334.09.664.095.999.003.162.034.324.054.486.01.071.055.11.169.122.216.024.27.114.155.248-.355.414-.342.817.06 1.212.073.072.091.144.036.228a.865.865 0 0 0-.136.651c.018.095-.01.188-.015.282-.009.233.088.441.285.623a.588.588 0 0 1 .201.567c-.044.268-.083.536-.197.795-.034.078-.032.16-.034.242-.006.282-.027.564-.121.84a.522.522 0 0 0-.023.154c-.009.23.043.46.047.692a.5.5 0 0 0 .113.308c.112.136.114.282.136.432.069.488.184.97.71 1.338.094.067.112.142.083.235-.118.366-.235.733-.34 1.101-.006.021-.016.042-.015.063.018.32-.014.645.109.954.093.235.128.471.132.71.01.517.021 1.034.005 1.551-.013.393.243.683.712.877.162.066.26.149.333.27.128.218.177.44.194.674.018.252-.017.504.005.756.021.228-.104.444-.34.604-.399.27-.522.592-.449.97.072.371.125.745.215 1.116.04.163.054.332.053.499-.001.133.044.266.041.395-.007.432.201.853.119 1.288a.525.525 0 0 0 .052.292c.17.414.294.837.489 1.247a.426.426 0 0 1 .052.214c-.023.264.025.53-.009.794-.001.012-.009.026-.006.038.07.307.067.622.19.923.214.525.46.73.485 1.284.01.08-.021.16.018.237z"/><g stroke="null"><path d="M60.131 35.34H11.46c-.996 0-1.803.807-1.803 1.802v28.836h52.277V37.142c0-.995-.807-1.802-1.803-1.802zm-.901 27.934H12.36v-25.23h46.87v25.23z" fill="#464655"/><g fill="#FFF"><path d="M1208.45 412.785a4.411 4.411 0 0 1 4.414 4.414h13.241v-13.241h-17.655a4.411 4.411 0 0 1-4.414-4.414 4.411 4.411 0 0 1 4.414-4.414h17.655v-57.38h-79.448v79.45h57.38a4.412 4.412 0 0 1 4.413-4.414z" transform="matrix(.1021 0 0 .10208 -93 7.171)"/><path d="M1031.9 549.612h459.034V302.44H1031.9v247.172zm194.206-22.07h-17.655c-2.44 0-4.414-1.973-4.414-4.413s1.974-4.414 4.414-4.414h17.655c2.44 0 4.414 1.974 4.414 4.414s-1.975 4.414-4.414 4.414zm-17.656-44.137a4.411 4.411 0 0 1 4.414 4.414v17.655c0 2.44-1.974 4.414-4.414 4.414s-4.414-1.974-4.414-4.414v-17.655a4.412 4.412 0 0 1 4.414-4.414zm-4.413-13.241v-17.655c0-2.44 1.974-4.414 4.414-4.414s4.414 1.974 4.414 4.414v17.655c0 2.44-1.974 4.414-4.414 4.414s-4.414-1.974-4.414-4.414zm57.38 57.379h-17.656c-2.44 0-4.414-1.974-4.414-4.414s1.974-4.414 4.414-4.414h17.655c2.44 0 4.414 1.974 4.414 4.414s-1.974 4.414-4.414 4.414zm75.033-22.07c0 2.44-1.974 4.415-4.414 4.415s-4.414-1.974-4.414-4.414v-17.655c0-2.44 1.974-4.414 4.414-4.414s4.414 1.974 4.414 4.414v17.655zm0-35.31c0 2.44-1.974 4.415-4.414 4.415s-4.414-1.974-4.414-4.414v-17.655c0-2.44 1.974-4.414 4.414-4.414s4.414 1.974 4.414 4.414v17.655zm0-35.31c0 2.44-1.974 4.415-4.414 4.415s-4.414-1.974-4.414-4.414v-17.655c0-2.44 1.974-4.414 4.414-4.414s4.414 1.974 4.414 4.414v17.655zm39.726 8.828V328.923a8.829 8.829 0 0 1 8.828-8.828h79.448a8.829 8.829 0 0 1 8.828 8.828V523.13a8.829 8.829 0 0 1-8.828 8.828h-79.448a8.829 8.829 0 0 1-8.828-8.828v-79.45zm-61.795-48.551h17.655a4.411 4.411 0 0 1 4.414 4.414 4.411 4.411 0 0 1-4.414 4.414h-17.655a4.411 4.411 0 0 1-4.414-4.414 4.412 4.412 0 0 1 4.414-4.414zm0 123.586h17.655c2.44 0 4.414 1.974 4.414 4.414s-1.974 4.414-4.414 4.414h-17.655c-2.44 0-4.414-1.974-4.414-4.414s1.975-4.414 4.414-4.414zm-35.31-123.586h17.655a4.411 4.411 0 0 1 4.414 4.414 4.411 4.411 0 0 1-4.414 4.414h-17.655a4.411 4.411 0 0 1-4.414-4.414 4.411 4.411 0 0 1 4.414-4.414zm0 123.586h17.655c2.44 0 4.414 1.974 4.414 4.414s-1.974 4.414-4.414 4.414h-17.655c-2.44 0-4.414-1.974-4.414-4.414s1.974-4.414 4.414-4.414zm-150.069-189.793a8.826 8.826 0 0 1 8.828-8.828h97.103a8.826 8.826 0 0 1 8.828 8.828v66.207h17.655a4.411 4.411 0 0 1 4.414 4.414 4.411 4.411 0 0 1-4.414 4.414h-17.655v22.069c0 .957-.157 1.877-.438 2.739l23.165 20.754c1.92 1.719 1.42 4.847-.94 5.884l-8.778 3.853 7.84 17.857a4.42 4.42 0 0 1-2.268 5.818 4.457 4.457 0 0 1-1.77.37 4.413 4.413 0 0 1-4.048-2.637l-7.84-17.86-8.782 3.855c-2.359 1.036-5-.714-4.967-3.29l.371-28.534c-.125.006-.247.019-.373.019h-22.069c0 2.44-1.974 4.414-4.414 4.414s-4.414-1.974-4.414-4.414h-66.207a8.826 8.826 0 0 1-8.828-8.828v-97.104h.001zm-79.447 0a8.829 8.829 0 0 1 8.828-8.828h26.483a8.829 8.829 0 0 1 8.828 8.828V523.13a8.829 8.829 0 0 1-8.828 8.828h-26.483a8.829 8.829 0 0 1-8.828-8.828V328.923z" transform="matrix(.1021 0 0 .10208 -93 7.171)"/></g><path d="M9.657 69.582c0 .995.807 1.802 1.803 1.802h48.67c.996 0 1.803-.807 1.803-1.802v-3.604H9.657v3.604zm26.138-2.253a1.352 1.352 0 1 1 0 2.704 1.352 1.352 0 0 1 0-2.704z" fill="#BEC8DC"/><path fill="#AFBBD0" d="M27.796 77.692h15.999l-.564-4.506H28.36z"/><path d="M27.683 77.692a.901.901 0 1 0 0 1.802h16.224a.901.901 0 1 0 0-1.802H27.683z" fill="#BEC8DC"/><g transform="matrix(.1021 0 0 .10208 -93 7.171)" fill="#96A5B9"><path d="M1188.59 646.716h145.655l-2.207-17.655h-141.242z"/><circle cx="1261.417" cy="602.578" r="13.241"/></g><path d="M15.065 61.472h2.704a.901.901 0 0 0 .901-.9V40.746a.901.901 0 0 0-.901-.901h-2.704a.901.901 0 0 0-.901.901V60.57a.9.9 0 0 0 .9.901zm.901-19.824h.902a.901.901 0 1 1 0 1.802h-.902a.901.901 0 1 1 0-1.802zm0 2.703h.902a.901.901 0 1 1 0 1.803h-.902a.901.901 0 1 1 0-1.803zm0 2.704h.902a.901.901 0 1 1 0 1.802h-.902a.901.901 0 1 1 0-1.802zm0 2.703h.902a.901.901 0 1 1 0 1.802h-.902a.901.901 0 1 1 0-1.802zm0 2.703h.902a.901.901 0 1 1 0 1.802h-.902a.901.901 0 1 1 0-1.802zm-.901 4.506c0-.498.404-.901.901-.901h.902a.9.9 0 0 1 .901.9v1.803a.901.901 0 0 1-.901.901h-.902a.901.901 0 0 1-.901-.901v-1.802z" fill="#BEC8DC"/><path d="M15.966 43.45h.902a.901.901 0 1 0 0-1.802h-.902a.901.901 0 1 0 0 1.802z" fill="#E4EAF6"/><path d="M15.966 46.154h.902a.901.901 0 1 0 0-1.803h-.902a.901.901 0 1 0 0 1.803z" fill="#96A5B9"/><path d="M1067.21 408.37h8.828a8.829 8.829 0 0 0 0-17.655h-8.828a8.829 8.829 0 0 0 0 17.656zm0 26.484h8.828a8.829 8.829 0 0 0 0-17.656h-8.828a8.829 8.829 0 0 0 0 17.656zm0 26.482h8.828a8.829 8.829 0 0 0 0-17.656h-8.828a8.829 8.829 0 0 0 0 17.656z" transform="matrix(.1021 0 0 .10208 -93 7.171)" fill="#E4EAF6"/><path d="M15.966 59.67h.902a.901.901 0 0 0 .9-.901v-1.802a.901.901 0 0 0-.9-.901h-.902a.901.901 0 0 0-.901.9v1.803c0 .497.403.901.901.901z" fill="#96A5B9"/><path d="M1473.28 328.923a8.829 8.829 0 0 0-8.829-8.828h-79.448a8.829 8.829 0 0 0-8.828 8.828v52.966h97.103v-52.966h.001zm-13.242 44.138h-70.621a4.414 4.414 0 1 1 0-8.828h70.621a4.414 4.414 0 1 1 0 8.828zm0-17.656h-70.621a4.414 4.414 0 1 1 0-8.828h70.622a4.414 4.414 0 1 1 0 8.828zm0-17.655h-70.621a4.414 4.414 0 1 1 0-8.828h70.622a4.414 4.414 0 1 1 0 8.828zm-75.035 194.207h79.448a8.829 8.829 0 0 0 8.828-8.828V443.68h-97.103v79.448a8.827 8.827 0 0 0 8.827 8.828zm39.724-79.448h35.31a4.414 4.414 0 1 1 0 8.828h-35.31a4.414 4.414 0 1 1 0-8.828zm0 17.655h35.31a4.414 4.414 0 1 1 0 8.828h-35.31a4.414 4.414 0 1 1 0-8.828zm0 17.655h35.31a4.414 4.414 0 1 1 0 8.828h-35.31a4.414 4.414 0 1 1 0-8.828zm0 17.655h35.31a4.414 4.414 0 1 1 0 8.828h-35.31a4.414 4.414 0 1 1 0-8.828zm-17.655-52.965a4.414 4.414 0 1 1 0 8.828 4.414 4.414 0 1 1 0-8.828zm0 17.655a4.414 4.414 0 1 1 0 8.828 4.414 4.414 0 1 1 0-8.828zm0 17.655a4.414 4.414 0 1 1 0 8.828 4.414 4.414 0 1 1 0-8.828zm0 17.655a4.414 4.414 0 1 1 0 8.828 4.414 4.414 0 1 1 0-8.828zm-17.655-52.965a4.414 4.414 0 1 1 0 8.828 4.414 4.414 0 1 1 0-8.828zm0 17.655a4.414 4.414 0 1 1 0 8.828 4.414 4.414 0 1 1 0-8.828zm0 17.655a4.414 4.414 0 1 1 0 8.828 4.414 4.414 0 1 1 0-8.828zm0 17.655a4.414 4.414 0 1 1 0 8.828 4.414 4.414 0 1 1 0-8.828z" transform="matrix(.1021 0 0 .10208 -93 7.171)" fill="#BEC8DC"/><path d="M1473.28 381.888h-97.104v61.793h97.103v-61.793zm-75.035 52.966h-8.828a4.414 4.414 0 1 1 0-8.828h8.828a4.414 4.414 0 1 1 0 8.828zm0-17.655h-8.828a4.414 4.414 0 1 1 0-8.828h8.828a4.414 4.414 0 1 1 0 8.828zm0-17.656h-8.828a4.414 4.414 0 1 1 0-8.828h8.828a4.414 4.414 0 1 1 0 8.828zm61.793 35.31H1415.9a4.414 4.414 0 1 1 0-8.827h44.138a4.414 4.414 0 1 1 0 8.828zm0-17.654H1415.9a4.414 4.414 0 1 1 0-8.828h44.138a4.414 4.414 0 1 1 0 8.828zm0-17.656H1415.9a4.414 4.414 0 1 1 0-8.828h44.138a4.414 4.414 0 1 1 0 8.828zm0-70.62h-52.966a4.414 4.414 0 1 1 0 8.828h52.966a4.414 4.414 0 1 0 0-8.828zm-66.207 4.413a4.414 4.414 0 0 1 4.414-4.414h-8.828a4.414 4.414 0 1 0 0 8.828h8.828a4.414 4.414 0 0 1-4.414-4.414zm66.207 30.897h-35.31a4.414 4.414 0 1 1 0 8.828h35.31a4.414 4.414 0 1 0 0-8.828zm-48.552 4.414a4.414 4.414 0 0 1 4.414-4.414h-26.483a4.414 4.414 0 1 0 0 8.828h26.483a4.414 4.414 0 0 1-4.414-4.414z" transform="matrix(.1021 0 0 .10208 -93 7.171)" fill="#96A5B9"/><path d="M56.075 47.055H51.57a.45.45 0 1 0 0 .9h4.506a.45.45 0 1 0 0-.9z" fill="#BEC8DC"/><path d="M1437.97 350.992a4.414 4.414 0 0 1 4.413-4.414h-52.966a4.414 4.414 0 1 0 0 8.828h52.966a4.415 4.415 0 0 1-4.414-4.414zm22.068-4.414h-8.828a4.414 4.414 0 1 1 0 8.828h8.828a4.414 4.414 0 1 0 0-8.828z" transform="matrix(.1021 0 0 .10208 -93 7.171)" fill="#96A5B9"/><path d="M1411.486 333.336a4.414 4.414 0 0 0-4.414-4.414h-8.828a4.414 4.414 0 1 0 0 8.828h8.828a4.414 4.414 0 0 0 4.414-4.414zm17.655 35.311a4.414 4.414 0 0 0-4.414-4.414h-8.828a4.414 4.414 0 1 0 0 8.828h8.828a4.414 4.414 0 0 0 4.414-4.414zm-30.896 22.069h-8.828a4.414 4.414 0 1 0 0 8.828h8.828a4.414 4.414 0 1 0 0-8.828z" transform="matrix(.1021 0 0 .10208 -93 7.171)" fill="#E4EAF6"/><path d="M56.075 48.857H51.57a.45.45 0 1 0 0 .901h4.506a.45.45 0 1 0 0-.901z" fill="#BEC8DC"/><path d="M49.766 48.857h-.901a.45.45 0 1 0 0 .901h.901a.45.45 0 1 0 0-.901z" fill="#E4EAF6"/><path d="M56.075 50.659H51.57a.45.45 0 1 0 0 .901h4.506a.45.45 0 1 0 0-.901z" fill="#BEC8DC"/><path d="M1398.245 426.026h-8.828a4.414 4.414 0 1 0 0 8.828h8.828a4.414 4.414 0 1 0 0-8.828zm-8.828 52.966a4.414 4.414 0 1 0 0-8.828 4.414 4.414 0 1 0 0 8.828zm0-17.656a4.414 4.414 0 1 0 0-8.828 4.414 4.414 0 1 0 0 8.828zm0 52.966a4.414 4.414 0 1 0 0-8.828 4.414 4.414 0 1 0 0 8.828zm0-17.655a4.414 4.414 0 1 0 0-8.828 4.414 4.414 0 1 0 0 8.828z" transform="matrix(.1021 0 0 .10208 -93 7.171)" fill="#E4EAF6"/><path d="M1407.072 478.992a4.414 4.414 0 1 0 0-8.828 4.414 4.414 0 1 0 0 8.828zm0-17.656a4.414 4.414 0 1 0 0-8.828 4.414 4.414 0 1 0 0 8.828zm0 52.966a4.414 4.414 0 1 0 0-8.828 4.414 4.414 0 1 0 0 8.828zm0-17.655a4.414 4.414 0 1 0 0-8.828 4.414 4.414 0 1 0 0 8.828zm17.655-17.655h35.31a4.414 4.414 0 1 0 0-8.828h-35.31a4.414 4.414 0 1 0 0 8.828zm0-17.656h35.31a4.414 4.414 0 1 0 0-8.828h-35.31a4.414 4.414 0 1 0 0 8.828zm0 52.966h35.31a4.414 4.414 0 1 0 0-8.828h-35.31a4.414 4.414 0 1 0 0 8.828zm0-17.655h35.31a4.414 4.414 0 1 0 0-8.828h-35.31a4.414 4.414 0 1 0 0 8.828z" transform="matrix(.1021 0 0 .10208 -93 7.171)" fill="#96A5B9"/><path d="M55.625 43a.45.45 0 0 0-.451-.45h-.901a.45.45 0 1 0 0 .9h.901a.45.45 0 0 0 .45-.45z" fill="#E4EAF6"/><path d="M23.177 51.56h6.76v-1.802h-5.859v-8.11h8.112v5.857a.45.45 0 1 1 0 .901v1.352h-1.352v1.802h2.253l.038-.002.008-.541a.362.362 0 0 1 .603-.265l.208.187a.9.9 0 0 0 .045-.28v-2.253a.45.45 0 1 1 0-.9v-6.759a.901.901 0 0 0-.902-.901h-9.914a.901.901 0 0 0-.902.901v9.912a.9.9 0 0 0 .902.901z" fill="#FF6469"/><path d="M1208.45 474.578a4.411 4.411 0 0 0 4.414-4.414v-17.655c0-2.44-1.974-4.414-4.414-4.414s-4.414 1.974-4.414 4.414v17.655a4.412 4.412 0 0 0 4.414 4.414zm105.931 52.965h17.655c2.44 0 4.414-1.974 4.414-4.414s-1.974-4.414-4.414-4.414h-17.655c-2.44 0-4.414 1.974-4.414 4.414s1.975 4.414 4.414 4.414zm17.656-44.138a4.411 4.411 0 0 0-4.414 4.414v17.655c0 2.44 1.974 4.414 4.414 4.414s4.414-1.974 4.414-4.414v-17.655a4.412 4.412 0 0 0-4.414-4.414zm-17.656-79.448h17.655a4.411 4.411 0 0 0 4.414-4.414 4.411 4.411 0 0 0-4.414-4.414h-17.655a4.411 4.411 0 0 0-4.414 4.414 4.412 4.412 0 0 0 4.414 4.414zm17.656 8.828a4.411 4.411 0 0 0-4.414 4.414v17.655c0 2.44 1.974 4.414 4.414 4.414s4.414-1.974 4.414-4.414v-17.655a4.412 4.412 0 0 0-4.414-4.414zm-70.621 105.931h-17.655c-2.44 0-4.414 1.974-4.414 4.414s1.974 4.414 4.414 4.414h17.655c2.44 0 4.414-1.974 4.414-4.414s-1.974-4.414-4.414-4.414zm-52.966-105.931a4.411 4.411 0 0 0-4.414 4.414v17.655c0 2.44 1.974 4.414 4.414 4.414s4.414-1.974 4.414-4.414v-17.655a4.411 4.411 0 0 0-4.414-4.414zm17.656 105.931h-17.655c-2.44 0-4.414 1.974-4.414 4.414s1.974 4.414 4.414 4.414h17.655c2.44 0 4.414-1.974 4.414-4.414s-1.975-4.414-4.414-4.414zm-22.069-13.242c0 2.44 1.974 4.414 4.414 4.414s4.414-1.974 4.414-4.414v-17.655c0-2.44-1.974-4.414-4.414-4.414s-4.414 1.974-4.414 4.414v17.655zm128-57.379a4.411 4.411 0 0 0-4.414 4.414v17.655c0 2.44 1.974 4.414 4.414 4.414s4.414-1.974 4.414-4.414v-17.655a4.412 4.412 0 0 0-4.414-4.414zm-52.966-44.138h17.655a4.411 4.411 0 0 0 4.414-4.414 4.411 4.411 0 0 0-4.414-4.414h-17.655a4.411 4.411 0 0 0-4.414 4.414 4.411 4.411 0 0 0 4.414 4.414zm-75.034-4.414a4.411 4.411 0 0 0 4.414 4.414h17.655a4.411 4.411 0 0 0 4.414-4.414 4.411 4.411 0 0 0-4.414-4.414h-17.655a4.412 4.412 0 0 0-4.414 4.414zm75.034 128h17.655c2.44 0 4.414-1.974 4.414-4.414s-1.974-4.414-4.414-4.414h-17.655c-2.44 0-4.414 1.974-4.414 4.414s1.974 4.414 4.414 4.414zm-39.724-128a4.411 4.411 0 0 0 4.414 4.414h17.655a4.411 4.411 0 0 0 4.414-4.414 4.411 4.411 0 0 0-4.414-4.414h-17.655a4.412 4.412 0 0 0-4.414 4.414z" transform="matrix(.1021 0 0 .10208 -93 7.171)" fill="#96A5B9"/><path d="M33.136 51.017l-.007.541-.038 2.913a.362.362 0 0 0 .508.336l.896-.394.8 1.823a.45.45 0 0 0 .826-.362l-.8-1.823.896-.393a.362.362 0 0 0 .096-.6l-2.365-2.12-.209-.186a.362.362 0 0 0-.603.265z" fill="#464655"/></g><g stroke="null"><path d="M-3205.502-3144.117c-6.062-6.213-23.311-12.983-53.54-13.352-10.788-.132-22.786.58-35.615 2.27l98.156 99.829c6.878-44.761 1.134-78.362-9.001-88.747zm-353.846 345.311c6.062 6.213 23.312 12.983 53.54 13.352 10.79.132 22.787-.58 35.616-2.27l-98.16-99.832c-6.877 44.763-1.132 78.365 9.004 88.75zm240.718-352.247c-50.751 10.815-109.797 36.21-157.91 83.162-55.827 54.48-78.356 119.443-87.157 156.543l117.477 119.479c50.748-10.814 109.788-36.207 157.896-83.155 55.834-54.486 78.365-119.454 87.167-156.555l-117.472-119.474zm17.589 153.979a9.973 9.973 0 0 1-7.082 2.903 9.968 9.968 0 0 1-7.06-2.955l-13.492-13.593-38.232 37.945 13.492 13.594c3.89 3.92 3.867 10.252-.053 14.142a9.968 9.968 0 0 1-7.082 2.902 9.968 9.968 0 0 1-7.06-2.955l-13.492-13.594-40.984 40.677 13.492 13.594c3.89 3.92 3.867 10.252-.053 14.142a9.968 9.968 0 0 1-7.082 2.902 9.97 9.97 0 0 1-7.06-2.955l-20.532-20.687-.005-.005-.005-.005-20.532-20.686c-3.89-3.92-3.866-10.252.053-14.143 3.92-3.891 10.252-3.867 14.142.053l13.492 13.594 40.984-40.677-13.492-13.593c-3.891-3.92-3.867-10.252.053-14.142 3.92-3.891 10.252-3.867 14.143.053l13.492 13.594 38.232-37.945-13.492-13.594c-3.891-3.92-3.867-10.252.053-14.142 3.92-3.89 10.25-3.867 14.142.053l41.073 41.383c3.89 3.918 3.867 10.25-.053 14.14z" fill="#E85512" transform="matrix(.0439 0 0 .0545 205.623 230.17)"/><path d="M-3564.933-2905.95a298.954 298.954 0 0 0-3.42 18.395l98.16 99.833a308.877 308.877 0 0 0 23.973-4.146l-117.477-119.48c-.442 1.864-.861 3.68-1.236 5.399zm365.011-131.023a299.062 299.062 0 0 0 3.42-18.397l-98.155-99.83a308.275 308.275 0 0 0-23.971 4.147l117.472 119.474c.44-1.862.859-3.677 1.234-5.394z" fill="#FFF" transform="matrix(.0439 0 0 .0545 205.623 230.17)"/><path d="M-3174.037-3108.256c-1.27-16.015-5.275-37.66-17.151-49.83-11.82-12.11-35.83-18.994-67.61-19.382-61.092-.746-158.435 23.756-231.71 95.263-62.366 60.864-85.641 133.88-93.964 171.988-5.92 27.105-8.113 53.229-6.344 75.55 1.27 16.015 5.277 37.66 17.153 49.83 11.818 12.11 35.829 18.993 67.61 19.382h.006c61.09.746 158.425-23.756 231.692-95.255 62.37-60.866 85.648-133.885 93.973-171.995 5.92-27.104 8.115-53.23 6.345-75.551zm-272.183 316.387a308.877 308.877 0 0 1-23.973 4.146c-12.828 1.69-24.826 2.4-35.615 2.269-30.23-.37-47.48-7.14-53.541-13.352-10.135-10.385-15.881-43.987-9.004-88.75a298.203 298.203 0 0 1 3.42-18.394c.375-1.718.794-3.535 1.236-5.398 8.8-37.1 31.33-102.062 87.158-156.543 48.112-46.951 107.158-72.348 157.91-83.162a308.438 308.438 0 0 1 23.97-4.146c12.829-1.69 24.828-2.402 35.617-2.27 30.228.369 47.477 7.139 53.539 13.352 10.135 10.384 15.879 43.986 9 88.747a299.062 299.062 0 0 1-3.42 18.397 311.758 311.758 0 0 1-1.235 5.394c-8.802 37.1-31.333 102.068-87.167 156.555-48.107 46.948-107.147 72.34-157.895 83.155z" transform="matrix(.0439 0 0 .0545 205.623 230.17)"/><path d="M-3342.062-3052.6c-3.892-3.92-10.222-3.942-14.142-.052s-3.944 10.222-.053 14.142l13.492 13.594-38.232 37.945-13.492-13.594c-3.891-3.92-10.223-3.944-14.143-.053-3.92 3.89-3.944 10.222-.053 14.142l13.492 13.593-40.984 40.677-13.492-13.594c-3.89-3.92-10.222-3.944-14.142-.053-3.92 3.89-3.943 10.222-.053 14.143l20.532 20.686.005.005.005.005 20.532 20.687a9.965 9.965 0 0 0 7.06 2.955 9.972 9.972 0 0 0 7.082-2.902c3.92-3.89 3.944-10.222.053-14.142l-13.492-13.594 40.984-40.677 13.492 13.594a9.971 9.971 0 0 0 7.06 2.955 9.972 9.972 0 0 0 7.082-2.902c3.92-3.89 3.944-10.222.053-14.142l-13.492-13.594 38.232-37.945 13.492 13.593a9.967 9.967 0 0 0 7.06 2.955 9.963 9.963 0 0 0 7.082-2.903c3.92-3.89 3.944-10.222.053-14.142l-41.073-41.381z" transform="matrix(.0439 0 0 .0545 205.623 230.17)"/></g></svg>