<svg width="56" height="26" xmlns="http://www.w3.org/2000/svg">

 <g>
  <title>background</title>
  <rect fill="none" id="canvas_background" height="402" width="582" y="-1" x="-1"/>
 </g>
 <g>
  <title>Layer 1</title>
  <path id="svg_1" fill-rule="evenodd" fill="#e85511" d="m9.1,15.887a0.726,0.726 0 0 1 -0.36,0.52c-0.192,0.124 -0.36,0.186 -0.53,0.248c-0.362,0.125 -0.743,0.25 -1.146,0.395c-0.425,0.145 -0.806,0.29 -1.146,0.395c-0.424,0.145 -0.827,0.27 -1.21,0.415a3.57,3.57 0 0 0 -0.805,0.478a3.422,3.422 0 0 0 -0.594,0.706c-0.17,0.29 -0.277,0.664 -0.277,1.1c0,0.873 0.212,1.537 0.637,1.952c0.424,0.437 1.21,0.644 2.375,0.644c1.188,0 1.994,-0.228 2.42,-0.685c0.423,-0.457 0.635,-1.1 0.635,-1.93l0,-4.238l0.001,0zm-3.056,-9.2c2.08,0 3.607,0.395 4.582,1.205c0.976,0.79 1.464,1.806 1.464,3.01l0,10.26c0,0.415 -0.084,0.872 -0.232,1.37c-0.15,0.5 -0.446,0.956 -0.913,1.37c-0.445,0.417 -1.06,0.77 -1.845,1.04c-0.785,0.27 -1.803,0.415 -3.055,0.415c-1.25,0 -2.27,-0.145 -3.054,-0.415c-0.784,-0.27 -1.4,-0.623 -1.845,-1.04a3.326,3.326 0 0 1 -0.912,-1.37c-0.149,-0.497 -0.234,-0.954 -0.234,-1.369l0,-1.64c0,-0.873 0.233,-1.683 0.7,-2.39c0.467,-0.726 1.124,-1.224 1.973,-1.536c0.424,-0.145 0.912,-0.29 1.463,-0.477c0.552,-0.188 1.06,-0.375 1.57,-0.54c0.51,-0.167 0.955,-0.334 1.336,-0.48a9.26,9.26 0 0 1 0.7,-0.248l0.382,-0.187c0.15,-0.083 0.297,-0.208 0.446,-0.374c0.148,-0.165 0.275,-0.352 0.382,-0.56a1.6,1.6 0 0 0 0.17,-0.726l0,-0.665a1.69,1.69 0 0 0 -0.15,-0.707c-0.084,-0.25 -0.254,-0.478 -0.487,-0.685c-0.233,-0.208 -0.552,-0.374 -0.933,-0.5c-0.382,-0.123 -0.89,-0.186 -1.464,-0.186c-1.188,0 -1.973,0.23 -2.397,0.706c-0.36,0.416 -0.572,0.935 -0.614,1.516c0,0.125 -0.106,0.208 -0.234,0.208l-2.587,0.042a0.233,0.233 0 0 1 -0.234,-0.23l0,-0.6c0,-0.583 0.107,-1.123 0.34,-1.642c0.234,-0.52 0.595,-0.955 1.082,-1.33c0.488,-0.373 1.125,-0.684 1.888,-0.892c0.743,-0.25 1.655,-0.353 2.715,-0.353l-0.003,0zm46.9,9.2a0.726,0.726 0 0 1 -0.36,0.52c-0.19,0.124 -0.36,0.186 -0.53,0.248c-0.36,0.125 -0.743,0.25 -1.146,0.395c-0.425,0.145 -0.807,0.29 -1.146,0.395c-0.425,0.145 -0.828,0.27 -1.21,0.415a3.57,3.57 0 0 0 -0.806,0.478a3.422,3.422 0 0 0 -0.593,0.706c-0.17,0.29 -0.276,0.664 -0.276,1.1c0,0.873 0.21,1.537 0.635,1.952c0.424,0.437 1.21,0.644 2.376,0.644c1.19,0 1.995,-0.228 2.42,-0.685c0.423,-0.457 0.635,-1.1 0.635,-1.93l0,-4.238l0.001,0zm-3.054,-9.2c2.08,0 3.607,0.395 4.583,1.205c0.975,0.79 1.463,1.806 1.463,3.01l0,10.26c0,0.415 -0.084,0.872 -0.233,1.37c-0.148,0.5 -0.445,0.956 -0.912,1.37c-0.445,0.417 -1.06,0.77 -1.845,1.04c-0.784,0.27 -1.803,0.415 -3.054,0.415c-1.25,0 -2.27,-0.145 -3.054,-0.415c-0.784,-0.27 -1.4,-0.623 -1.845,-1.04a3.325,3.325 0 0 1 -0.91,-1.37c-0.15,-0.498 -0.235,-0.955 -0.235,-1.37l0,-1.64c0,-0.873 0.234,-1.683 0.7,-2.39c0.467,-0.726 1.125,-1.224 1.973,-1.536c0.424,-0.145 0.912,-0.29 1.464,-0.477c0.55,-0.188 1.06,-0.375 1.57,-0.54c0.51,-0.167 0.954,-0.334 1.336,-0.48a9.26,9.26 0 0 1 0.7,-0.248l0.382,-0.187c0.148,-0.083 0.297,-0.208 0.445,-0.374a2.54,2.54 0 0 0 0.382,-0.56a1.6,1.6 0 0 0 0.17,-0.726l0,-0.665a1.69,1.69 0 0 0 -0.15,-0.707c-0.084,-0.25 -0.253,-0.478 -0.487,-0.685c-0.233,-0.208 -0.55,-0.374 -0.933,-0.5c-0.382,-0.123 -0.89,-0.186 -1.464,-0.186c-1.188,0 -1.972,0.23 -2.397,0.706c-0.36,0.416 -0.572,0.935 -0.615,1.516c0,0.125 -0.105,0.208 -0.232,0.208l-2.572,0a0.233,0.233 0 0 1 -0.232,-0.228l0,-0.603c0,-0.58 0.106,-1.12 0.34,-1.64c0.233,-0.518 0.593,-0.955 1.08,-1.328c0.49,-0.374 1.125,-0.686 1.89,-0.893c0.72,-0.21 1.632,-0.313 2.693,-0.313l-0.001,0.001zm-9.1,0.083l1.698,0c0.148,0 0.254,0.146 0.212,0.29l-0.573,2.16c-0.02,0.105 -0.127,0.167 -0.212,0.167l-1.188,0c-0.636,0 -1.145,0.083 -1.548,0.25c-0.383,0.165 -0.7,0.352 -0.913,0.58c-0.212,0.23 -0.34,0.457 -0.403,0.686a2.74,2.74 0 0 0 -0.085,0.685l0,13.354a0.233,0.233 0 0 1 -0.235,0.228l-2.543,0a0.233,0.233 0 0 1 -0.233,-0.228l0,-13.957c0,-0.248 0.042,-0.622 0.148,-1.1c0.085,-0.477 0.34,-0.934 0.743,-1.412c0.403,-0.457 0.997,-0.872 1.803,-1.204c0.807,-0.334 1.91,-0.5 3.33,-0.5l-0.001,0.001zm-8.57,13.935l0,0.623c0,0.27 -0.04,0.644 -0.147,1.122c-0.085,0.456 -0.34,0.934 -0.743,1.39c-0.403,0.458 -0.997,0.873 -1.803,1.205c-0.806,0.333 -1.91,0.5 -3.33,0.5c-1.42,0 -2.524,-0.167 -3.33,-0.5c-0.806,-0.332 -1.4,-0.726 -1.803,-1.204c-0.403,-0.456 -0.658,-0.934 -0.743,-1.41c-0.084,-0.48 -0.147,-0.832 -0.147,-1.102l0,-13.977c0,-0.125 0.106,-0.23 0.233,-0.23l2.524,0c0.128,0 0.234,0.105 0.234,0.23l0,13.083c0,0.436 0.063,0.748 0.127,0.997c0.065,0.25 0.192,0.498 0.383,0.706c0.19,0.228 0.488,0.415 0.89,0.56c0.382,0.146 0.913,0.23 1.57,0.23c0.68,0 1.23,-0.084 1.634,-0.23c0.403,-0.145 0.7,-0.332 0.912,-0.54c0.21,-0.207 0.36,-0.435 0.423,-0.685c0.064,-0.25 0.15,-0.456 0.15,-1.06l0,-13.081c0,-0.124 0.105,-0.228 0.232,-0.228l2.524,0c0.126,0 0.232,0.104 0.232,0.23l0,13.373l-0.02,0l-0.002,-0.002zm-17.372,-20.602l2.525,0c0.127,0 0.233,0.103 0.233,0.227l0,24.734a0.233,0.233 0 0 1 -0.233,0.23l-2.523,0a0.233,0.233 0 0 1 -0.233,-0.23l0,-24.732c0.02,-0.124 0.106,-0.228 0.233,-0.228l-0.002,-0.001z"/>
 </g>
</svg>