<svg width="16" height="16" xmlns="http://www.w3.org/2000/svg" clip-rule="evenodd">

 <g>
  <title>background</title>
  <rect fill="none" id="canvas_background" height="402" width="582" y="-1" x="-1"/>
 </g>
 <g>
  <title>Layer 1</title>
  <path fill="#e85511" id="svg_1" fill-rule="nonzero" d="m8,14.555c-3.626,0 -6.566,-2.94 -6.566,-6.563c0,-3.625 2.94,-6.562 6.566,-6.562c3.624,0 6.563,2.937 6.563,6.562c0,3.624 -2.93,6.563 -6.564,6.563l0.001,0zm0,-14.555c-4.42,0 -8.004,3.584 -8.004,8s3.586,8 8.004,8c4.416,0 8,-3.584 8,-8s-3.576,-8.008 -8,-8zm-0.867,10.196l-2.335,-2.196l2.335,-2.204l0,-2.056l-4.507,4.26l4.507,4.253l0,-2.057zm1.74,-6.457l0,2.056l2.333,2.205l-2.335,2.196l0,2.057l4.509,-4.253l-4.51,-4.26"/>
 </g>
</svg>