<svg width="16" height="16" xmlns="http://www.w3.org/2000/svg" clip-rule="evenodd">

 <g>
  <title>background</title>
  <rect fill="none" id="canvas_background" height="402" width="582" y="-1" x="-1"/>
 </g>
 <g>
  <title>Layer 1</title>
  <path fill="#e85511" id="svg_1" fill-rule="nonzero" d="m15.996,7.87c-0.003,-0.063 -0.007,-0.124 -0.012,-0.186l0,-0.004c-0.06,-0.675 -0.283,-1.306 -0.66,-1.877c-0.17,-0.254 -0.363,-0.485 -0.58,-0.692c-0.314,-0.304 -0.68,-0.555 -1.09,-0.754c-0.62,-0.297 -1.305,-0.446 -2.036,-0.446c-0.07,0 -0.146,0 -0.22,0.004c-0.514,0.023 -1.01,0.12 -1.477,0.292c-0.47,0.17 -0.88,0.395 -1.214,0.664c-0.068,0.054 -0.142,0.12 -0.22,0.194l-0.06,0.056l-0.077,0.083l-0.037,0.037l-0.018,0.02l-0.093,0.098c-0.07,0.077 -0.136,0.155 -0.197,0.232l-0.005,-0.001c-0.128,0.156 -0.247,0.318 -0.334,0.463c-0.06,0.093 -0.117,0.188 -0.172,0.284l-0.764,1.546l0.002,0l-0.04,0.08l-0.084,0.17c-0.168,0.34 -0.347,0.678 -0.548,0.957c-0.448,0.49 -0.954,0.73 -1.604,0.73c-0.045,0 -0.092,0 -0.14,-0.004c-0.39,-0.015 -0.727,-0.108 -1.026,-0.284l-0.092,-0.06c-0.244,-0.16 -0.43,-0.368 -0.57,-0.627c-0.157,-0.294 -0.227,-0.594 -0.217,-0.913l0.002,-0.023c0.02,-0.507 0.214,-0.9 0.603,-1.242c0.095,-0.08 0.194,-0.15 0.297,-0.212c0.015,-0.01 0.03,-0.017 0.044,-0.025c0.29,-0.156 0.618,-0.235 0.995,-0.235l0.118,0.004c0.6,0.02 1.062,0.21 1.43,0.574l1.154,-2.073c-0.277,-0.186 -0.59,-0.345 -0.933,-0.475l-0.04,-0.014c-0.04,-0.014 -0.08,-0.03 -0.123,-0.043c-0.366,-0.122 -0.75,-0.197 -1.144,-0.23c-0.01,-0.003 -0.02,-0.004 -0.03,-0.005l-0.184,-0.014c-0.067,-0.003 -0.133,-0.004 -0.198,-0.004l-0.037,0c-0.727,0.002 -1.402,0.15 -2.02,0.446c-0.69,0.333 -1.252,0.82 -1.668,1.444c-0.414,0.626 -0.64,1.32 -0.673,2.065c-0.002,0.063 -0.004,0.126 -0.004,0.188c0,1.043 0.38,1.96 1.135,2.73c0.788,0.806 1.813,1.24 3.045,1.292c0.08,0.004 0.156,0.006 0.234,0.006c0.697,0 1.34,-0.124 1.92,-0.372c0.144,-0.062 0.284,-0.134 0.427,-0.215c0.08,-0.046 0.153,-0.093 0.226,-0.144l0.054,-0.036l0.09,-0.063c0.11,-0.078 0.212,-0.163 0.312,-0.253l0.034,-0.033c0.06,-0.055 0.117,-0.11 0.173,-0.17l0.206,-0.234l0.08,-0.1l0.036,-0.053l0.036,-0.053c0.308,-0.517 1.31,-2.4 1.31,-2.4l0,-0.003l0.06,-0.115l0.05,-0.09c0.147,-0.27 0.254,-0.46 0.395,-0.66l0.004,-0.006c0.33,-0.478 0.896,-0.82 1.564,-0.876c1.12,-0.096 2.103,0.64 2.193,1.644c0.09,1.004 -0.746,1.896 -1.866,1.993c-0.233,0.02 -0.46,0.005 -0.674,-0.042l-0.005,0.002c-0.822,-0.17 -1.345,-0.77 -1.603,-1.04l-1.079,1.983s0.335,0.338 0.564,0.507c0.23,0.168 0.528,0.334 0.765,0.437c0.575,0.245 1.2,0.392 1.892,0.392c0.08,0 0.064,0 0.147,-0.003c1.23,-0.05 2.326,-0.523 3.117,-1.33c0.75,-0.767 1.156,-1.642 1.16,-2.678l0,-0.03c0,-0.06 -0.002,-0.116 -0.004,-0.175l-0.002,0z"/>
 </g>
</svg>