<?xml version="1.0" encoding="UTF-8" standalone="no"?>
<!DOCTYPE svg PUBLIC "-//W3C//DTD SVG 1.1//EN" "http://www.w3.org/Graphics/SVG/1.1/DTD/svg11.dtd">
<svg version="1.1" xmlns="http://www.w3.org/2000/svg" xmlns:xlink="http://www.w3.org/1999/xlink" preserveAspectRatio="xMidYMid meet" viewBox="0 0 163 163"><defs><path d="M87.96 65.66L72.45 65.66C72.45 66.72 72.45 67.31 72.45 67.43C72.45 69.65 71.02 71.63 68.91 72.33C68.63 72.43 66.4 73.17 66.12 73.26C67.14 80.12 73.05 85.38 80.19 85.38C87.33 85.38 93.24 80.11 94.26 73.25C93.98 73.16 91.78 72.43 91.5 72.33C89.39 71.63 87.96 69.65 87.96 67.43C87.96 67.19 87.96 66.6 87.96 65.66Z" id="vnERY2BHu4"></path><path d="M49.17 63.4C49.17 44.78 49.17 34.43 49.17 32.36C49.17 18.08 60.75 6.5 75.03 6.5C76.07 6.5 84.34 6.5 85.38 6.5C99.66 6.5 111.24 18.08 111.24 32.36C111.24 34.43 111.24 44.78 111.24 63.4L49.17 63.4Z" id="hEj96sJBmz"></path><path d="M75.03 127.08C75.03 127.08 75.03 127.08 75.03 127.08C75.03 140.08 75.03 147.3 75.03 148.74C75.03 148.74 75.03 148.74 75.03 148.74C68.83 148.74 65.38 148.74 64.69 148.74C64.69 148.74 64.69 148.74 64.69 148.74C64.69 135.75 64.69 128.53 64.69 127.08C64.69 127.08 64.69 127.08 64.69 127.08C70.9 127.08 74.34 127.08 75.03 127.08Z" id="qtlTS9PViw"></path><path d="M95.72 127.08C95.72 127.08 95.72 127.08 95.72 127.08C95.72 140.08 95.72 147.3 95.72 148.74C95.72 148.74 95.72 148.74 95.72 148.74C89.52 148.74 86.07 148.74 85.38 148.74C85.38 148.74 85.38 148.74 85.38 148.74C85.38 135.75 85.38 128.53 85.38 127.08C85.38 127.08 85.38 127.08 85.38 127.08C91.59 127.08 95.03 127.08 95.72 127.08Z" id="y9VMt4lSD3"></path><path d="M54.34 109.95C52.92 109.95 51.76 111.11 51.76 112.53C51.76 112.79 51.76 114.86 51.76 115.12C51.76 119.41 55.23 122.88 59.52 122.88C59.69 122.88 60.55 122.88 62.1 122.88L62.1 78.91L54.34 78.91C54.34 97.53 54.34 107.88 54.34 109.95Z" id="T7DOYyETxx"></path><path d="M106.07 78.91L98.31 78.91L98.31 122.88C99.86 122.88 100.72 122.88 100.9 122.88C105.18 122.88 108.66 119.41 108.66 115.12C108.66 114.86 108.66 112.79 108.66 112.53C108.66 111.11 107.5 109.95 106.07 109.95C106.07 105.81 106.07 95.47 106.07 78.91Z" id="khajMo1mgu"></path><path d="M106.07 32.36C106.07 29.51 103.75 27.19 100.9 27.19C96.76 27.19 63.66 27.19 59.52 27.19C56.66 27.19 54.34 29.51 54.34 32.36C54.34 34.16 54.34 48.51 54.34 50.31C54.34 55.12 57.18 59.48 61.58 61.44C62.95 62.05 73.89 66.91 75.26 67.52C76.82 68.21 78.5 68.57 80.21 68.57C80.21 68.57 80.21 68.57 80.21 68.57C81.91 68.57 83.6 68.21 85.16 67.52C86.52 66.91 97.47 62.05 98.83 61.44C103.23 59.48 106.07 55.12 106.07 50.31C106.07 50.07 106.07 48.12 106.07 47.88C108.93 47.88 111.24 45.56 111.24 42.71C111.24 39.85 108.93 37.53 106.07 37.53C106.07 36.5 106.07 32.88 106.07 32.36Z" id="Khiyt2jd0m"></path><path d="M64.69 50.31C64.69 48.51 64.69 34.16 64.69 32.36C64.69 29.51 67.01 27.19 69.86 27.19C68.83 27.19 60.55 27.19 59.52 27.19C56.66 27.19 54.34 29.51 54.34 32.36C54.34 34.16 54.34 48.51 54.34 50.31C54.34 55.12 57.18 59.48 61.58 61.44C62.95 62.05 73.89 66.91 75.26 67.52C76.82 68.21 78.5 68.57 80.21 68.57C80.21 68.57 80.21 68.57 80.21 68.57C81.22 68.57 82.21 68.41 83.18 68.16C82.29 67.67 77.85 65.22 69.86 60.81C66.41 57.02 64.69 53.52 64.69 50.31Z" id="ZiOF8slwVg"></path><path d="M67.28 47.88C65.85 47.88 64.69 46.72 64.69 45.29C64.69 45.03 64.69 42.97 64.69 42.71C64.69 41.28 65.85 40.12 67.28 40.12C67.28 40.12 67.28 40.12 67.28 40.12C68.7 40.12 69.86 41.28 69.86 42.71C69.86 42.97 69.86 45.03 69.86 45.29C69.86 46.72 68.7 47.88 67.28 47.88C67.28 47.88 67.28 47.88 67.28 47.88Z" id="ATIHcl2MF"></path><path d="M93.14 47.88C91.71 47.88 90.55 46.72 90.55 45.29C90.55 45.03 90.55 42.97 90.55 42.71C90.55 41.28 91.71 40.12 93.14 40.12C93.14 40.12 93.14 40.12 93.14 40.12C94.57 40.12 95.72 41.28 95.72 42.71C95.72 42.97 95.72 45.03 95.72 45.29C95.72 46.72 94.57 47.88 93.14 47.88C93.14 47.88 93.14 47.88 93.14 47.88Z" id="BskzCPYmRw"></path><path d="M72.77 58.85C71.54 58.13 71.11 56.55 71.83 55.31C72.54 54.08 74.12 53.66 75.36 54.37C78.23 56.03 82.38 56.03 85.25 54.37C86.49 53.66 88.07 54.08 88.78 55.31C89.5 56.55 89.07 58.13 87.84 58.85C85.62 60.13 83.01 60.81 80.31 60.81C77.6 60.81 74.99 60.13 72.77 58.85Z" id="l68fReCUkJ"></path><path d="M96.07 71.99C94.67 71.59 93.16 72.41 92.86 73.84C91.62 79.69 86.43 84.09 80.21 84.09C73.98 84.09 68.79 79.69 67.55 73.84C67.25 72.41 65.74 71.59 64.34 71.99C63.22 72.31 54.28 74.87 53.16 75.19C51.28 75.73 50.57 78.02 51.82 79.52C52.33 80.14 54.9 83.24 59.52 88.81C58.07 110.7 57.27 122.86 57.11 125.3C57.01 126.79 58.2 128.05 59.69 128.05C63.8 128.05 96.62 128.05 100.72 128.05C102.22 128.05 103.4 126.79 103.3 125.3C103.14 122.86 102.34 110.7 100.9 88.81C105.52 83.24 108.08 80.14 108.59 79.52C109.84 78.02 109.13 75.73 107.25 75.19C105.02 74.55 97.19 72.31 96.07 71.99Z" id="jtibXOo1Du"></path><path d="M77.62 148.74C77.62 147.28 76.46 146.16 75.03 146.16C75.03 146.16 75.03 146.16 75.03 146.16C75.03 146.16 75.03 146.16 75.03 146.16C73.55 147.64 71.34 148.12 69.39 147.34C67.87 146.73 66.06 146.16 64.69 146.16C57.01 146.16 54.34 151.33 54.34 151.33C54.34 151.67 54.34 153.4 54.34 156.5L77.62 156.5C77.62 151.84 77.62 149.26 77.62 148.74Z" id="Ng3mP1QQtA"></path><path d="M77.62 151.33C77.62 151.33 77.62 151.33 77.62 151.33C77.62 154.43 77.62 156.16 77.62 156.5C77.62 156.5 77.62 156.5 77.62 156.5C63.66 156.5 55.9 156.5 54.34 156.5C54.34 156.5 54.34 156.5 54.34 156.5C54.34 153.4 54.34 151.67 54.34 151.33C54.34 151.33 54.34 151.33 54.34 151.33C68.31 151.33 76.07 151.33 77.62 151.33Z" id="EaZUCvQGt3"></path><path d="M82.79 148.74C82.79 147.28 83.95 146.16 85.38 146.16C85.38 146.16 85.38 146.16 85.38 146.16C85.38 146.16 85.38 146.16 85.38 146.16C86.86 147.64 89.08 148.12 91.02 147.34C92.55 146.73 94.35 146.16 95.72 146.16C103.4 146.16 106.07 151.33 106.07 151.33C106.07 151.67 106.07 153.4 106.07 156.5L82.79 156.5C82.79 151.84 82.79 149.26 82.79 148.74Z" id="cBpHxsj5LZ"></path><path d="M106.07 151.33C106.07 151.33 106.07 151.33 106.07 151.33C106.07 154.43 106.07 156.16 106.07 156.5C106.07 156.5 106.07 156.5 106.07 156.5C92.1 156.5 84.34 156.5 82.79 156.5C82.79 156.5 82.79 156.5 82.79 156.5C82.79 153.4 82.79 151.67 82.79 151.33C82.79 151.33 82.79 151.33 82.79 151.33C96.76 151.33 104.52 151.33 106.07 151.33Z" id="X4BFKnurcR"></path><path d="M53.86 45.94C53.86 44.56 53.86 37.66 53.86 25.25L100.9 25.25C75.81 36.28 60.13 43.18 53.86 45.94Z" id="yAJVtesAQT"></path><path d="M95.71 95.97L87.94 90.8L80.19 95.97L72.43 90.8L64.68 95.97L59.28 92.37L58.89 98.33L64.68 102.19L72.43 97.02L80.19 102.19L87.95 97.01L95.71 102.19L101.52 98.32L101.13 92.37L95.71 95.97Z" id="QuHnrHDbQA"></path><path d="M95.71 107.36L87.94 102.19L80.19 107.36L72.43 102.19L64.68 107.36L58.56 103.28L58.17 109.24L64.68 113.58L72.43 108.41L80.19 113.58L87.95 108.41L95.71 113.58L102.24 109.23L101.85 103.28L95.71 107.36Z" id="hnV4Or10HQ"></path><path d="M97.02 25.03C94.87 25.03 93.14 23.29 93.14 21.15C93.14 19.01 94.87 17.27 97.02 17.27C99.16 17.27 103.48 19.01 103.48 21.15C103.48 23.29 99.16 25.03 97.02 25.03Z" id="MB41de72Mn"></path><path d="M109.95 17.27C112.09 17.27 113.83 19.01 113.83 21.15C113.83 23.29 112.09 25.03 109.95 25.03C107.81 25.03 103.48 23.29 103.48 21.15C103.48 19.01 107.81 17.27 109.95 17.27Z" id="s9QUQaFht5"></path><path d="M103.61 28.69C102.54 30.55 100.17 31.18 98.31 30.11C96.45 29.04 95.82 26.67 96.89 24.81C97.96 22.96 101.63 20.08 103.48 21.15C105.34 22.22 104.68 26.84 103.61 28.69Z" id="jkHDbyXB0a"></path><path d="M103.36 13.61C104.43 11.76 106.8 11.12 108.66 12.19C110.51 13.26 111.15 15.64 110.07 17.49C109 19.35 105.34 22.22 103.48 21.15C101.63 20.08 102.28 15.47 103.36 13.61Z" id="rw1E3wrif"></path><path d="M103.36 28.69C104.43 30.55 106.8 31.18 108.66 30.11C110.51 29.04 111.15 26.67 110.07 24.81C109 22.96 105.34 20.08 103.48 21.15C101.63 22.22 102.28 26.84 103.36 28.69Z" id="B1OGFCjceb"></path><path d="M103.61 13.61C102.54 11.76 100.17 11.12 98.31 12.19C96.45 13.26 95.82 15.64 96.89 17.49C97.96 19.35 101.63 22.22 103.48 21.15C105.34 20.08 104.68 15.47 103.61 13.61Z" id="J6almUCOt9"></path><path d="M103.48 23.74C102.06 23.74 100.9 22.58 100.9 21.15C100.9 19.72 102.06 18.57 103.48 18.57C104.91 18.57 106.07 19.72 106.07 21.15C106.07 22.58 104.91 23.74 103.48 23.74Z" id="ragu6makDJ"></path></defs><g visibility="visible"><g visibility="visible"><path></path><g><use xlink:href="#vnERY2BHu4" opacity="1" fill="#ffc3a0" fill-opacity="1"></use><g><use xlink:href="#vnERY2BHu4" opacity="1" fill-opacity="0" stroke="#000000" stroke-width="1" stroke-opacity="0"></use></g></g><g><use xlink:href="#hEj96sJBmz" opacity="1" fill="#734b46" fill-opacity="1"></use><g><use xlink:href="#hEj96sJBmz" opacity="1" fill-opacity="0" stroke="#000000" stroke-width="1" stroke-opacity="0"></use></g></g><g><use xlink:href="#qtlTS9PViw" opacity="1" fill="#ffd6b3" fill-opacity="1"></use><g><use xlink:href="#qtlTS9PViw" opacity="1" fill-opacity="0" stroke="#000000" stroke-width="1" stroke-opacity="0"></use></g></g><g><use xlink:href="#y9VMt4lSD3" opacity="1" fill="#ffd6b3" fill-opacity="1"></use><g><use xlink:href="#y9VMt4lSD3" opacity="1" fill-opacity="0" stroke="#000000" stroke-width="1" stroke-opacity="0"></use></g></g><g><use xlink:href="#T7DOYyETxx" opacity="1" fill="#ffd6b3" fill-opacity="1"></use><g><use xlink:href="#T7DOYyETxx" opacity="1" fill-opacity="0" stroke="#000000" stroke-width="1" stroke-opacity="0"></use></g></g><g><use xlink:href="#khajMo1mgu" opacity="1" fill="#ffd6b3" fill-opacity="1"></use><g><use xlink:href="#khajMo1mgu" opacity="1" fill-opacity="0" stroke="#000000" stroke-width="1" stroke-opacity="0"></use></g></g><g><use xlink:href="#Khiyt2jd0m" opacity="1" fill="#ffe5d1" fill-opacity="1"></use><g><use xlink:href="#Khiyt2jd0m" opacity="1" fill-opacity="0" stroke="#000000" stroke-width="1" stroke-opacity="0"></use></g></g><g><use xlink:href="#ZiOF8slwVg" opacity="1" fill="#ffd6b3" fill-opacity="1"></use><g><use xlink:href="#ZiOF8slwVg" opacity="1" fill-opacity="0" stroke="#000000" stroke-width="1" stroke-opacity="0"></use></g></g><g><use xlink:href="#ATIHcl2MF" opacity="1" fill="#6e4141" fill-opacity="1"></use><g><use xlink:href="#ATIHcl2MF" opacity="1" fill-opacity="0" stroke="#000000" stroke-width="1" stroke-opacity="0"></use></g></g><g><use xlink:href="#BskzCPYmRw" opacity="1" fill="#6e4141" fill-opacity="1"></use><g><use xlink:href="#BskzCPYmRw" opacity="1" fill-opacity="0" stroke="#000000" stroke-width="1" stroke-opacity="0"></use></g></g><g><use xlink:href="#l68fReCUkJ" opacity="1" fill="#e6b996" fill-opacity="1"></use><g><use xlink:href="#l68fReCUkJ" opacity="1" fill-opacity="0" stroke="#000000" stroke-width="1" stroke-opacity="0"></use></g></g><g><use xlink:href="#jtibXOo1Du" opacity="1" fill="#17bc9c" fill-opacity="1"></use><g><use xlink:href="#jtibXOo1Du" opacity="1" fill-opacity="0" stroke="#000000" stroke-width="1" stroke-opacity="0"></use></g></g><g><use xlink:href="#Ng3mP1QQtA" opacity="1" fill="#e85511" fill-opacity="1"></use><g><use xlink:href="#Ng3mP1QQtA" opacity="1" fill-opacity="0" stroke="#000000" stroke-width="1" stroke-opacity="0"></use></g></g><g><use xlink:href="#EaZUCvQGt3" opacity="1" fill="#bf4006" fill-opacity="1"></use><g><use xlink:href="#EaZUCvQGt3" opacity="1" fill-opacity="0" stroke="#000000" stroke-width="1" stroke-opacity="0"></use></g></g><g><use xlink:href="#cBpHxsj5LZ" opacity="1" fill="#e85511" fill-opacity="1"></use><g><use xlink:href="#cBpHxsj5LZ" opacity="1" fill-opacity="0" stroke="#000000" stroke-width="1" stroke-opacity="0"></use></g></g><g><use xlink:href="#X4BFKnurcR" opacity="1" fill="#bf4006" fill-opacity="1"></use><g><use xlink:href="#X4BFKnurcR" opacity="1" fill-opacity="0" stroke="#000000" stroke-width="1" stroke-opacity="0"></use></g></g><g><use xlink:href="#yAJVtesAQT" opacity="1" fill="#734b46" fill-opacity="1"></use><g><use xlink:href="#yAJVtesAQT" opacity="1" fill-opacity="0" stroke="#000000" stroke-width="1" stroke-opacity="0"></use></g></g><g><use xlink:href="#QuHnrHDbQA" opacity="1" fill="#e85511" fill-opacity="1"></use><g><use xlink:href="#QuHnrHDbQA" opacity="1" fill-opacity="0" stroke="#000000" stroke-width="1" stroke-opacity="0"></use></g></g><g><use xlink:href="#hnV4Or10HQ" opacity="1" fill="#e85511" fill-opacity="1"></use><g><use xlink:href="#hnV4Or10HQ" opacity="1" fill-opacity="0" stroke="#000000" stroke-width="1" stroke-opacity="0"></use></g></g><g><use xlink:href="#MB41de72Mn" opacity="1" fill="#bf4006" fill-opacity="1"></use><g><use xlink:href="#MB41de72Mn" opacity="1" fill-opacity="0" stroke="#000000" stroke-width="1" stroke-opacity="0"></use></g></g><g><use xlink:href="#s9QUQaFht5" opacity="1" fill="#bf4007" fill-opacity="1"></use><g><use xlink:href="#s9QUQaFht5" opacity="1" fill-opacity="0" stroke="#000000" stroke-width="1" stroke-opacity="0"></use></g></g><g><use xlink:href="#jkHDbyXB0a" opacity="1" fill="#e85511" fill-opacity="1"></use><g><use xlink:href="#jkHDbyXB0a" opacity="1" fill-opacity="0" stroke="#000000" stroke-width="1" stroke-opacity="0"></use></g></g><g><use xlink:href="#rw1E3wrif" opacity="1" fill="#e85511" fill-opacity="1"></use><g><use xlink:href="#rw1E3wrif" opacity="1" fill-opacity="0" stroke="#000000" stroke-width="1" stroke-opacity="0"></use></g></g><g><use xlink:href="#B1OGFCjceb" opacity="1" fill="#cc511a" fill-opacity="1"></use><g><use xlink:href="#B1OGFCjceb" opacity="1" fill-opacity="0" stroke="#000000" stroke-width="1" stroke-opacity="0"></use></g></g><g><use xlink:href="#J6almUCOt9" opacity="1" fill="#cc511a" fill-opacity="1"></use><g><use xlink:href="#J6almUCOt9" opacity="1" fill-opacity="0" stroke="#000000" stroke-width="1" stroke-opacity="0"></use></g></g><g><use xlink:href="#ragu6makDJ" opacity="1" fill="#ffffff" fill-opacity="1"></use><g><use xlink:href="#ragu6makDJ" opacity="1" fill-opacity="0" stroke="#000000" stroke-width="1" stroke-opacity="0"></use></g></g><path></path></g></g></svg>