<svg width="180" height="210" xmlns="http://www.w3.org/2000/svg">

 <g>
  <title>background</title>
  <rect fill="none" id="canvas_background" height="212" width="182" y="-1" x="-1"/>
 </g>
 <g>
  <title>Layer 1</title>
  <path stroke="null" id="svg_1" d="m67.875,194.480909c0,0.083876 0,0.167025 0,0.250901c-0.182553,0.30246 -0.506391,0.472027 -0.902085,0.615451c-1.363323,0.494176 -13.937158,4.04491 -14.550847,4.146214c-0.188865,0.03159 -10.014692,-2.670948 -10.762869,-2.886265c-1.116682,-0.347122 -2.444076,-0.114376 -3.491329,0.103846c-0.700596,0.146692 -10.549243,2.84233 -10.966784,2.737031c-0.776336,-0.195347 -9.79524,-3.758426 -10.514771,-3.953772c-0.758372,-0.20624 -1.502665,-0.448426 -2.197435,-0.764684c-0.278685,-0.127084 -0.407346,-0.27777 -0.403947,-0.531575c0.010196,-0.661927 0.084965,-1.313688 0.355396,-1.947294c0.167017,-0.387788 0.117494,-0.787196 0.112154,-1.182973c-0.004855,-0.362735 0.070885,-0.70441 0.278685,-1.034829c0.217025,-0.346395 0.29325,-0.718934 0.310243,-1.097645c0.008254,-0.194984 0.076226,-0.364913 0.21751,-0.530123c0.306845,-0.355473 0.511731,-0.741809 0.563196,-1.169538c0.057776,-0.490908 0.289852,-0.956763 0.371904,-1.445129c0.043696,-0.255258 0.232561,-0.467307 0.436477,-0.669915c0.61466,-0.610367 0.89286,-1.294444 0.768083,-2.059854c-0.110697,-0.675725 0.167988,-1.324944 0.234989,-1.989413c0.091762,-0.919727 0.699625,-1.730887 1.036086,-2.600507c0.272859,-0.703684 0.476774,-1.419349 0.608834,-2.141551c0.076711,-0.414295 -0.083508,-0.834399 -0.345686,-1.210931c-0.223336,-0.317711 -0.250525,-0.639052 -0.257322,-0.994888c-0.00971,-0.617266 0.161191,-1.200038 0.363164,-1.786804c0.212655,-0.620534 0.038356,-1.209479 -0.370932,-1.753763c-0.252953,-0.337681 -0.262663,-0.637237 -0.095646,-1.009049c0.216539,-0.482194 0.375788,-0.981453 0.605436,-1.464374c0.050979,-0.107477 0.097588,-0.225121 0.092248,-0.336229c-0.051464,-1.000698 0.43502,-1.930591 0.663697,-2.894253c0.13206,-0.556266 0.236445,-1.113984 0.176727,-1.681506c-0.012138,-0.116191 0.037385,-0.227299 0.070885,-0.340586c0.158763,-0.524313 0.203916,-1.054073 0.094675,-1.587827c-0.036414,-0.179733 -0.010196,-0.353294 0.048066,-0.528307c0.187894,-0.564617 0.229648,-1.135407 0.124777,-1.712006c-0.032529,-0.182275 0.023305,-0.352568 0.076226,-0.526492c0.260721,-0.839845 0.018935,-1.593999 -0.700596,-2.265367c-0.384041,-0.35983 -0.348599,-1.060246 0.120407,-1.365974c0.930244,-0.607463 1.327395,-1.368516 1.317684,-2.278802c-0.005826,-0.425551 0.194205,-0.840935 0.082537,-1.277378c-0.124777,-0.485825 -0.356853,-0.928441 -0.829257,-1.276652c-0.362193,-0.268329 -0.646219,-0.572605 -0.904027,-0.896852c-0.158763,-0.199704 -0.230134,-0.40086 -0.180611,-0.627433c0.02379,-0.114013 0.060204,-0.228389 0.036414,-0.342764c-0.045153,-0.225121 0.108755,-0.352205 0.355882,-0.444795c1.129305,-0.423735 1.75319,-1.10999 1.885735,-2.046419c0.173814,-1.243973 0.097103,-2.458535 -0.810322,-3.563805c-0.17527,-0.214228 -0.154879,-0.373628 0.108755,-0.544284c0.870526,-0.562439 1.245343,-1.296985 1.247285,-2.143366c0.001457,-0.261794 0.110212,-0.516688 0.057776,-0.78066c-0.072827,-0.375806 -0.17527,-0.742898 -0.440361,-1.072228c-0.149538,-0.186632 -0.167988,-0.366003 -0.00971,-0.559534c0.663697,-0.803172 0.663697,-1.62922 0.201003,-2.49194c-0.217025,-0.402675 -0.03787,-0.820601 0.240329,-1.166633c0.424825,-0.528307 0.620972,-1.071139 0.646704,-1.69022c0.032044,-0.811887 0.110697,-1.624863 0.260235,-2.434208c0.140799,-0.766136 -0.054378,-1.504677 -0.673408,-2.145545c-0.273344,-0.283216 -0.295192,-0.541016 -0.071856,-0.840935c0.605921,-0.810797 1.071529,-1.653911 1.076384,-2.607769c0.002428,-0.239645 0.151966,-0.465128 0.241786,-0.696059c0.291794,-0.741809 0.649132,-1.478171 0.334033,-2.270088c-0.036414,-0.092227 -0.000971,-0.183364 0.057291,-0.27196c0.261206,-0.394687 0.026218,-1.021757 -0.47289,-1.26467c-0.12769,-0.061 -0.299076,-0.096584 -0.275286,-0.243639c0.021848,-0.131805 0.174299,-0.179733 0.314127,-0.228752c0.114096,-0.04103 0.237416,-0.061 0.353454,-0.099489c0.417542,-0.13943 0.484057,-0.234561 0.45347,-0.58023c-0.0335,-0.377259 0.027189,-0.754517 0.102443,-1.122698c0.185466,-0.905566 0.232561,-1.805322 0.070399,-2.714882c-0.092733,-0.517414 0.003884,-1.044269 -0.06166,-1.566404c-0.022334,-0.177918 -0.085936,-0.307181 -0.28791,-0.423009c-0.38744,-0.222942 -0.305874,-0.51451 0.152451,-0.632153c0.06603,-0.017066 0.133031,-0.03631 0.201488,-0.042482c0.389868,-0.032316 0.446673,-0.203698 0.474347,-0.474932c0.083508,-0.823506 0.014565,-1.647738 0.08982,-2.469791c0.025732,-0.272323 0.175756,-0.527218 0.219938,-0.798452c0.065544,-0.40558 -0.011652,-0.505795 -0.523869,-0.608552c-0.37773,-0.075887 -0.754003,-0.160126 -1.14387,-0.192079c-0.145169,-0.011982 -0.281112,-0.041393 -0.334033,-0.157584c-0.058262,-0.126721 0.017964,-0.228389 0.149053,-0.301008c0.268489,-0.14887 0.536493,-0.297014 0.814692,-0.436807c0.4491,-0.224031 0.791387,-0.469849 0.855961,-0.947685c0.14614,-1.080216 0.178184,-2.165879 0.330635,-3.245731c0.097588,-0.705862 0.053892,-1.41826 0.118951,-2.127753c0.051464,-0.563165 0.126719,-1.123425 0.191778,-1.684411c0.055834,-0.478926 0.070399,-0.959668 0.096617,-1.438957c0.006797,-0.129626 -0.070885,-0.24146 -0.142741,-0.356562c-0.24567,-0.393235 -0.374817,-0.805351 -0.39181,-1.240705c-0.031558,-0.83803 0.064088,-1.666982 0.249069,-2.491214c0.008739,-0.041756 0.008254,-0.084965 0.025732,-0.123816c0.028645,-0.065358 0.02379,-0.161215 0.151966,-0.159037c0.098559,0.002179 0.118465,0.082786 0.134973,0.140882c0.040298,0.13834 0.116523,0.254168 0.282083,0.33405c0.142256,0.068989 0.251011,0.070441 0.241786,-0.077703c-0.050008,-0.840571 0.251496,-1.660083 0.260721,-2.497024c0.013109,-1.147752 0.109241,-2.295504 0.210713,-3.438536c0.118465,-1.332932 0.228191,-2.665864 0.277228,-4.000249c0.025247,-0.686255 -0.16993,-1.370331 -0.231105,-2.057675c-0.016022,-0.188085 -0.1374,-0.320252 -0.380157,-0.415384c-0.441818,-0.174287 -0.428709,-0.518141 0.006797,-0.707315c0.036414,-0.01525 0.072827,-0.032316 0.113125,-0.040304c0.431136,-0.090048 0.613204,-0.278133 0.517072,-0.62707c-0.054378,-0.202245 -0.037385,-0.425188 0.088364,-0.61654c0.37336,-0.564254 0.365106,-1.170627 0.407346,-1.775548c0.093219,-1.387034 0.167502,-2.774431 0.310243,-4.159286c0.049522,-0.477474 0.057776,-0.958941 0.08982,-1.437867c0.055349,-0.845292 0.084965,-1.69131 0.163618,-2.534786c0.041754,-0.439348 -0.077682,-0.535932 -0.676321,-0.639415c-0.224793,-0.038488 -0.456868,-0.082423 -0.438904,-0.307181c0.016993,-0.214954 0.229162,-0.273776 0.469492,-0.280312c0.330635,-0.008714 0.517072,-0.115465 0.555428,-0.371086c0.152937,-1.017037 0.36899,-2.028628 0.368019,-3.057284c0,-0.27196 -0.106328,-0.477111 -0.383556,-0.658659c-0.571935,-0.377259 -0.936556,-0.854732 -1.111341,-1.40882c-0.110697,-0.349663 -0.020392,-0.414658 0.436962,-0.315169c0.146625,0.031226 0.2078,0.007262 0.240329,-0.095132c0.035443,-0.112197 0.045153,-0.226936 0.069428,-0.340586c0.017964,-0.082786 0.033015,-0.17465 0.156821,-0.206603c0.123806,-0.032679 0.204887,0.03522 0.293736,0.087507c0.147111,0.085691 0.209742,0.324246 0.410259,0.259252c0.20343,-0.066084 0.072827,-0.284669 0.098559,-0.434265c0.112154,-0.653939 0.102443,-1.313688 0.187408,-1.968716c0.109726,-0.837667 -0.129147,-1.627404 -0.513674,-2.42041c-0.629226,-1.295896 -1.122508,-2.627013 -1.382258,-3.999523c-0.145654,-0.772672 -0.047095,-1.541713 0.009225,-2.31257c0.003399,-0.042119 0.01845,-0.083513 0.027674,-0.123816c0.1039,-0.42664 0.177698,-0.449515 0.635052,-0.192079c0.164104,-0.090048 0.095161,-0.332598 0.298105,-0.3493c0.227706,-0.018881 0.248098,0.19462 0.354425,0.309722c0.022334,0.026143 0.04758,0.069715 0.084479,0.063542c0.474832,-0.075887 0.43939,0.239281 0.555913,0.418652c0.248583,0.381979 0.28354,0.821327 0.550087,1.168086c-0.039327,-0.177918 -0.021363,-0.388515 0.001942,-0.595117c0.088364,-0.804262 -0.406861,-1.508308 -0.660299,-2.252659c-0.269946,-0.790464 -0.539406,-1.578749 -0.684574,-2.389547c-0.044182,-0.252353 0.031073,-0.408122 0.374331,-0.465491c0.051464,0.000726 0.09419,0.014524 0.131574,0.040667c0.310729,0.526855 0.680205,1.028293 1.145812,1.487975c0.066515,0.06681 0.117009,0.143061 0.200032,0.200793c0.145654,0.10203 0.314613,0.197525 0.518529,0.172108c0.224793,-0.026869 0.211198,-0.198978 0.263634,-0.323157c0.098559,-0.230567 0.170901,-0.462224 0.050493,-0.703684c-0.0335,-0.06681 -0.031073,-0.147418 -0.006797,-0.217859c0.260721,-0.77122 -0.026703,-1.535904 -0.056805,-2.302403c-0.022334,-0.560986 -0.070399,-1.127782 -0.296163,-1.673881c-0.373846,-0.903387 -0.847221,-1.770102 -1.62113,-2.528976c-0.229162,-0.224758 -0.421911,-0.468033 -0.646219,-0.695695c-0.281112,-0.284669 -0.235474,-0.621623 -0.229162,-0.937882c0.009225,-0.324246 -0.01408,-0.64704 -0.017478,-0.969834c-0.009225,-1.389575 -0.058262,-2.782419 0.012623,-4.171268c0.066515,-1.294444 0.005826,-2.587798 0.006797,-3.881516c0.000971,-0.87434 -0.017478,-1.754852 0.007283,-2.627739c0.023305,-0.815155 -0.0335,-1.627041 -0.035443,-2.440744c-0.002913,-1.849257 0.022819,-3.699604 0.002913,-5.548498c-0.010681,-1.044632 -0.162162,-2.089991 -0.068457,-3.132808c0.077682,-0.855095 -0.04758,-1.702929 -0.019906,-2.554393c0.029616,-0.847107 0.005826,-1.694578 0.007283,-2.540959c0,-0.240734 -0.01845,-0.479289 -0.056805,-0.719297c-0.1039,-0.650308 0.025732,-1.290087 0.192749,-1.926597c0.042725,-0.047929 0.086907,-0.094042 0.17964,-0.064995c0.197119,0.258163 0.148567,0.552635 0.171386,0.826048c0.152937,1.879757 0.794786,3.686532 1.383714,5.505289c0.357824,1.107811 0.811293,2.194926 1.21427,3.292208c0.43502,1.186241 0.997245,2.347791 1.822133,3.469037c0.046124,-0.136888 0.048066,-0.250174 0.038841,-0.358014c-0.06603,-0.845292 0.046609,-1.69022 0.059233,-2.534786c0.046124,-2.791496 0.001457,-5.582629 0.031073,-8.373762c0.002913,-0.30246 0.101472,-0.600927 0.024761,-0.906292c-0.026218,-0.106025 -0.033986,-0.270508 0.15585,-0.281401c0.140313,-0.007988 0.185466,0.143061 0.200032,0.245817c0.043211,0.291204 0.092733,0.58132 0.126234,0.872887c0.107784,0.936429 0.181097,1.875763 0.347628,2.806383c0.254409,1.429516 0.56271,2.85177 0.934614,4.269304c0.234503,0.901209 0.351512,1.822388 0.653016,2.714156c0.511731,1.516297 0.85062,3.073986 1.823104,4.487163c0.383556,0.556266 0.569022,1.131413 0.542319,1.774459c-0.055834,1.337289 -0.016022,2.676394 -0.017478,4.015499c-0.000486,0.563165 -0.1374,1.122698 -0.053892,1.689131c0.052435,0.362009 0.086421,0.415747 0.575819,0.418289c1.509948,0.007988 3.020867,-0.007625 4.530329,0.001452c0.306845,0.002179 0.616602,-0.014887 0.920534,0.026869c0.291308,0.039941 0.416085,-0.059185 0.450071,-0.259615c0.013594,-0.07262 0.027189,-0.145239 0.027189,-0.218585c-0.006312,-1.139764 -0.021848,-2.279528 -0.006312,-3.418203c0.016507,-1.148842 -0.083994,-2.300951 0.102929,-3.446525c0.067972,-0.419741 0.22722,-0.820238 0.450557,-1.204759c0.762257,-1.310057 1.220096,-2.690918 1.709494,-4.064154c0.69477,-1.940395 1.116682,-3.925088 1.687646,-5.88509c0.336461,-1.155377 0.909367,-3.577966 0.945295,-4.401835c0.003884,-0.063179 0.027674,-0.124543 0.064088,-0.180823c0.036414,-0.055917 0.070885,-0.129989 0.163618,-0.129626c0.124292,0.000726 0.133516,0.091138 0.154879,0.158674c0.031558,0.102394 0.025247,0.208055 0.025247,0.312627c0.001457,0.668826 0.023305,2.476327 -0.031558,3.445072c-0.034957,0.603832 0.002913,1.210205 -0.049522,1.815852c-0.147111,1.712006 -0.067972,3.426917 -0.08545,5.140739c-0.002428,0.215317 0.000971,0.430634 0.114096,0.640505c0.193234,-0.056643 0.214597,-0.169204 0.251496,-0.26252c0.314613,-0.815155 0.802554,-1.584196 1.14387,-2.390273c0.886063,-2.094348 1.644921,-4.213387 1.903699,-6.412308c0.079139,-0.675362 -0.032529,-1.359438 0.102443,-2.0348c0.034471,-0.171382 -0.000971,-0.445158 0.251011,-0.444795c0.234503,0.000726 0.171872,0.270145 0.171872,0.428092c-0.004855,1.703655 0.064088,3.406947 0.038356,5.109513c-0.032044,2.121218 0.040298,4.243161 -0.052435,6.362563c-0.05632,1.286093 -0.013594,2.571459 -0.071371,3.85501c-0.077197,1.703292 -0.078168,3.405858 -0.077197,5.108423c0.002913,2.288969 -0.135458,4.577937 -0.104871,6.866543c0.013594,1.076948 -0.126234,2.151718 -0.06166,3.228666c0.01845,0.301734 -0.122349,0.531938 -0.391324,0.759601c-1.089978,0.923358 -1.843496,1.98905 -2.296966,3.172749c-0.06603,0.172471 -0.076226,0.350026 -0.083023,0.528307c-0.043696,1.001787 -0.048551,2.003211 -0.049522,3.005361c0,0.335139 0.034471,0.665921 0.067972,0.998156c0.021363,0.22149 0.118465,0.258889 0.369961,0.122727c0.418027,-0.22621 0.829257,-0.45714 1.059877,-0.827863c0.193234,-0.312264 0.447158,-0.603469 0.69914,-0.892494c0.080595,-0.09259 0.134973,-0.213138 0.324323,-0.217859c0.143712,0.102394 0.10827,0.234561 0.114096,0.35983c-0.152937,0.861631 -0.528724,1.68078 -0.877809,2.50356c-0.126234,0.29774 -0.192263,0.580593 -0.117494,0.885959c0.140799,0.578778 0.058747,1.162639 0.081081,1.778453c0.110697,-0.753428 0.396179,-1.448397 0.551058,-2.162974c0.017964,-0.083513 0.045638,-0.163394 0.11798,-0.23202c0.071371,-0.05156 0.150509,-0.087143 0.254409,-0.05156c0.296163,0.349663 0.686031,0.645588 0.709821,1.118341c0.04758,0.870345 -0.009225,1.73125 -0.180126,2.588524c-0.13206,0.66229 -0.275286,1.322039 -0.449586,1.977794c-0.100501,0.378348 -0.217025,0.755607 -0.342773,1.130324c-0.329178,0.987626 -0.60495,1.987598 -0.468035,3.004635c0.098559,0.724743 0.144198,1.452754 0.258779,2.156438c0.040783,0.037762 0.067486,0.042482 0.09419,0.028685c0.603979,-0.306455 0.603979,-0.306455 0.739923,0.24618c0.065059,0.264698 0.131574,0.281401 0.416085,0.108566c0.081566,-0.050834 0.148082,-0.153227 0.27383,-0.099852c0.100987,0.042482 0.109726,0.141245 0.115552,0.225484c0.020877,0.251627 0.011652,0.499986 -0.106328,0.742172c-0.236445,0.489093 -0.584073,0.924447 -1.072985,1.295896c-0.121864,0.093679 -0.201003,0.188811 -0.190807,0.330782c0.075255,1.097282 0.252953,2.184397 0.570964,3.259529c0.059718,0.200793 0.217996,0.237103 0.445216,0.252353c0.310729,0.01997 0.587472,0.082423 0.600581,0.375443c0.009225,0.207692 -0.091762,0.345306 -0.394723,0.363098c-0.083994,0.00472 -0.167988,0.00581 -0.251982,0.009077c-0.461724,0.017792 -0.452013,0.022512 -0.444245,0.366366c0.030587,1.336926 0.164589,2.670585 0.277714,4.004243c0.118951,1.417171 0.279656,2.833252 0.455412,4.248245c0.07574,0.605284 0.116523,1.206574 0.479202,1.76756c0.1039,0.162305 0.08011,0.353657 -0.033015,0.51923c-0.125748,0.183364 -0.042725,0.292657 0.185466,0.37508c0.201974,0.072256 0.399578,0.151412 0.568051,0.263972c0.320925,0.212412 0.324809,0.455688 -0.036899,0.61654c-0.276743,0.123816 -0.350541,0.29302 -0.406861,0.507974c-0.303932,1.133591 -0.194205,2.267909 -0.038841,3.402953c0.111668,0.810071 0.134973,1.624863 0.233047,2.43675c0.151966,1.258497 0.2078,2.522441 0.405404,3.778396c0.072342,0.465855 -0.002913,0.94115 0.1039,1.40773c0.020877,0.090411 -0.002913,0.188085 0.093219,0.266514c0.205372,-0.027595 0.144683,-0.190263 0.251011,-0.263972c0.039327,-0.027232 0.083023,-0.033405 0.132545,-0.018518c0.168959,0.222942 0.218967,0.474206 0.264605,0.719297c0.11361,0.610367 0.23159,1.220735 0.335004,1.832192c0.064573,0.382342 -0.078653,0.725833 -0.308787,1.055162c-0.133031,0.192079 -0.199546,0.386699 -0.147111,0.603832c0.206343,0.846018 0.139828,1.709101 0.300533,2.558024c0.19809,1.044632 0.203916,2.103063 0.354911,3.151689c0.121378,0.841661 0.175756,1.686953 0.313642,2.527887c0.060689,0.367818 0.224793,0.648856 0.641849,0.863447c0.389868,0.20043 0.767112,0.419378 1.110855,0.667011c0.135944,0.097673 0.263634,0.198251 0.188379,0.352568c-0.072827,0.149233 -0.255866,0.135072 -0.422882,0.147055c-0.413658,0.030137 -0.813721,0.129263 -1.244372,0.073346c-0.299562,-0.038851 -0.423853,0.118007 -0.416085,0.329693c0.005341,0.156858 0.036414,0.31299 0.069428,0.466581c0.206343,0.972376 0.153422,1.959639 0.318497,2.93383c0.039812,0.234561 0.171872,0.360193 0.457839,0.424098c0.187408,0.042119 0.376759,0.083149 0.536007,0.173924c0.309272,0.176102 0.335004,0.459319 0,0.592576c-0.421911,0.166299 -0.458325,0.412842 -0.488427,0.725106c-0.083508,0.857274 -0.086907,1.71128 0.008254,2.567102c0.088849,0.802083 0.238387,1.59872 0.311214,2.401892c0.027674,0.30246 0.216054,0.507974 0.580189,0.634695c0.163618,0.057006 0.322381,0.127447 0.462209,0.214228c0.248583,0.154317 0.225278,0.295925 -0.074284,0.358014c-0.29762,0.061364 -0.605921,0.081334 -0.736524,0.347848c-0.109726,0.224394 -0.135944,0.445521 -0.05632,0.676088c0.031073,0.091864 0.036899,0.186269 0.028645,0.280312c-0.065059,0.687344 0.091277,1.35726 0.318012,2.016282c0.209256,0.604195 0.163133,1.225455 0.249069,1.836912c0.054863,0.392872 0.118465,0.788648 0.101472,1.187693c-0.014565,0.35983 0.106813,0.451694 0.583102,0.530486c0.123806,0.020333 0.251011,0.009804 0.374817,0.018155c0.206829,0.013072 0.337918,0.0984 0.378701,0.248722c0.039327,0.146692 -0.082537,0.234561 -0.234018,0.301734c-0.148082,0.065358 -0.313156,0.094042 -0.480659,0.101667c-0.324809,0.016339 -0.479202,0.133983 -0.460267,0.383431c0.04758,0.635784 0.100016,1.271205 0.119922,1.908442c0.025732,0.814428 0.205858,1.621595 0.219938,2.437839c0.006312,0.396503 0.079139,0.79119 0.125263,1.186604c0.020392,0.17465 0.125748,0.270145 0.389868,0.300282c0.499594,0.057006 0.625827,0.27777 0.359766,0.603469c-0.821489,1.011227 -0.791873,1.996675 0.136915,2.95961c0.171386,0.177555 0.21217,0.352205 0.084965,0.556629c-0.313642,0.506521 -0.411716,1.038097 -0.314613,1.591821c0.041269,0.229841 -0.025732,0.458229 -0.034471,0.688433c-0.020877,0.568611 0.202459,1.077311 0.658357,1.521743c0.429194,0.416836 0.54766,0.869982 0.467064,1.384492c-0.102929,0.653939 -0.193234,1.307515 -0.457354,1.939305c-0.079624,0.192079 -0.073313,0.392509 -0.077682,0.591849c-0.013594,0.68916 -0.064088,1.377956 -0.281112,2.052229c-0.039812,0.122364 -0.048551,0.247633 -0.052921,0.373991c-0.020392,0.56498 0.09953,1.124877 0.107784,1.689857c0.00437,0.260704 0.087392,0.527218 0.263148,0.754154c0.259264,0.331871 0.264119,0.686981 0.313642,1.052984c0.159249,1.193139 0.427252,2.367398 1.642007,3.268244c0.219938,0.163394 0.262177,0.346758 0.194205,0.573695c-0.272373,0.895036 -0.544261,1.789709 -0.786047,2.689103c-0.01408,0.051923 -0.038841,0.102757 -0.035443,0.153953c0.041754,0.780297 -0.032529,1.574392 0.251496,2.329636c0.215568,0.574058 0.297134,1.150294 0.306359,1.731977c0.022334,1.262854 0.049037,2.526072 0.011167,3.789289c-0.030102,0.958578 0.562225,1.666982 1.648805,2.140099c0.37336,0.162305 0.602037,0.36455 0.769054,0.661201c0.297134,0.531212 0.411716,1.071865 0.450557,1.645922c0.040783,0.615451 -0.038841,1.228723 0.012138,1.845626c0.04758,0.557355 -0.242757,1.083847 -0.787989,1.473451c-0.923447,0.659023 -1.207473,1.446945 -1.038999,2.367761c0.166531,0.908471 0.28791,1.822388 0.497166,2.727954c0.090791,0.396503 0.125263,0.809345 0.122349,1.217104c-0.002913,0.324973 0.101472,0.649219 0.096132,0.96584c-0.017964,1.055525 0.465122,2.082366 0.27383,3.145516c-0.043211,0.237103 0.033015,0.481105 0.122349,0.711672c0.390839,1.011954 0.679234,2.044967 1.130762,3.044575c0.07574,0.168114 0.134973,0.349663 0.119922,0.52395c-0.052921,0.645588 0.058262,1.292265 -0.020392,1.937853c-0.003399,0.030863 -0.020392,0.063179 -0.013594,0.09259c0.160705,0.750523 0.15585,1.519928 0.439875,2.254838c0.49571,1.282462 1.064732,1.783173 1.122993,3.135713c0.021848,0.193531 -0.049522,0.388878 0.041269,0.577326z" fill="#010101" clip-rule="evenodd" fill-rule="evenodd"/>
  <g stroke="null" id="svg_92">
   <path stroke="null" id="svg_6" fill="#464655" d="m151.710143,100.116122l-116.206323,0c-2.377075,0 -4.303893,1.815918 -4.303893,4.056178l0,64.899536l124.814109,0l0,-64.899536c0,-2.24026 -1.926818,-4.056178 -4.303893,-4.056178zm-2.152068,62.871333l-111.902187,0l0,-56.786951l111.902187,0l0,56.786951z"/>
   <g stroke="null" transform="matrix(0.24377755618647753,0,0,0.22974669780003934,-396.8542837317409,-270.8667152685856) " id="svg_7">
    <path stroke="null" id="svg_8" fill="#FFFFFF" d="m1958.954237,1751.575143c2.44,0 4.414,1.974 4.414,4.414l13.241,0l0,-13.241l-17.655,0c-2.44,0 -4.414,-1.974 -4.414,-4.414c0,-2.44 1.974,-4.414 4.414,-4.414l17.655,0l0,-57.379l-79.448,0l0,79.448l57.379,0c0.001,-2.44 1.975,-4.414 4.414,-4.414z"/>
    <path stroke="null" id="svg_9" fill="#FFFFFF" d="m1782.404237,1888.402143l459.034,0l0,-247.172l-459.034,0l0,247.172zm194.206,-22.069l-17.655,0c-2.44,0 -4.414,-1.974 -4.414,-4.414s1.974,-4.414 4.414,-4.414l17.655,0c2.44,0 4.414,1.974 4.414,4.414s-1.975,4.414 -4.414,4.414zm-17.656,-44.138c2.44,0 4.414,1.974 4.414,4.414l0,17.655c0,2.44 -1.974,4.414 -4.414,4.414s-4.414,-1.974 -4.414,-4.414l0,-17.655c0.001,-2.44 1.975,-4.414 4.414,-4.414zm-4.413,-13.241l0,-17.655c0,-2.44 1.974,-4.414 4.414,-4.414s4.414,1.974 4.414,4.414l0,17.655c0,2.44 -1.974,4.414 -4.414,4.414s-4.414,-1.974 -4.414,-4.414zm57.379,57.379l-17.655,0c-2.44,0 -4.414,-1.974 -4.414,-4.414s1.974,-4.414 4.414,-4.414l17.655,0c2.44,0 4.414,1.974 4.414,4.414s-1.974,4.414 -4.414,4.414zm75.034,-22.069c0,2.44 -1.974,4.414 -4.414,4.414s-4.414,-1.974 -4.414,-4.414l0,-17.655c0,-2.44 1.974,-4.414 4.414,-4.414s4.414,1.974 4.414,4.414l0,17.655zm0,-35.31c0,2.44 -1.974,4.414 -4.414,4.414s-4.414,-1.974 -4.414,-4.414l0,-17.655c0,-2.44 1.974,-4.414 4.414,-4.414s4.414,1.974 4.414,4.414l0,17.655zm0,-35.31c0,2.44 -1.974,4.414 -4.414,4.414s-4.414,-1.974 -4.414,-4.414l0,-17.655c0,-2.44 1.974,-4.414 4.414,-4.414s4.414,1.974 4.414,4.414l0,17.655zm39.726,8.827l0,-61.793l0,-52.965c0,-4.875 3.953,-8.828 8.828,-8.828l79.448,0c4.875,0 8.828,3.953 8.828,8.828l0,52.966l0,61.793l0,79.448c0,4.875 -3.953,8.828 -8.828,8.828l-79.448,0c-4.875,0 -8.828,-3.953 -8.828,-8.828l0,-79.449zm-61.795,-48.551l17.655,0c2.44,0 4.414,1.974 4.414,4.414c0,2.44 -1.974,4.414 -4.414,4.414l-17.655,0c-2.44,0 -4.414,-1.974 -4.414,-4.414c0.001,-2.44 1.975,-4.414 4.414,-4.414zm0,123.586l17.655,0c2.44,0 4.414,1.974 4.414,4.414s-1.974,4.414 -4.414,4.414l-17.655,0c-2.44,0 -4.414,-1.974 -4.414,-4.414s1.975,-4.414 4.414,-4.414zm-35.31,-123.586l17.655,0c2.44,0 4.414,1.974 4.414,4.414c0,2.44 -1.974,4.414 -4.414,4.414l-17.655,0c-2.44,0 -4.414,-1.974 -4.414,-4.414c0,-2.44 1.974,-4.414 4.414,-4.414zm0,123.586l17.655,0c2.44,0 4.414,1.974 4.414,4.414s-1.974,4.414 -4.414,4.414l-17.655,0c-2.44,0 -4.414,-1.974 -4.414,-4.414s1.974,-4.414 4.414,-4.414zm-150.069,-189.793c0,-4.879 3.953,-8.828 8.828,-8.828l97.103,0c4.875,0 8.828,3.948 8.828,8.828l0,66.207l17.655,0c2.44,0 4.414,1.974 4.414,4.414c0,2.44 -1.974,4.414 -4.414,4.414l-17.655,0l0,22.069c0,0.957 -0.157,1.877 -0.438,2.739l23.165,20.754c1.919,1.719 1.419,4.847 -0.94,5.884l-8.778,3.853l7.84,17.857c0.979,2.232 -0.039,4.836 -2.268,5.818c-0.577,0.25 -1.181,0.371 -1.771,0.371c-1.703,0 -3.319,-0.983 -4.047,-2.638l-7.841,-17.859l-8.781,3.854c-2.359,1.036 -5.001,-0.714 -4.967,-3.29l0.371,-28.534c-0.125,0.006 -0.247,0.019 -0.373,0.019l-22.069,0c0,2.44 -1.974,4.414 -4.414,4.414s-4.414,-1.974 -4.414,-4.414l-66.207,0c-4.875,0 -8.828,-3.948 -8.828,-8.828l0,-97.104l0.001,0zm-79.447,0c0,-4.875 3.953,-8.828 8.828,-8.828l26.483,0c4.875,0 8.828,3.953 8.828,8.828l0,194.207c0,4.875 -3.953,8.828 -8.828,8.828l-26.483,0c-4.875,0 -8.828,-3.953 -8.828,-8.828l0,-194.207z"/>
   </g>
   <path stroke="null" id="svg_10" fill="#BEC8DC" d="m31.199927,177.184193c0,2.24026 1.926818,4.056178 4.303893,4.056178l40.887347,0l34.431386,0l40.887347,0c2.377075,0 4.303893,-1.815918 4.303893,-4.056178l0,-8.112356l-124.813865,0l0,8.112356zm62.407054,-5.07028c1.782745,0 3.227859,1.362168 3.227859,3.042076s-1.445357,3.042076 -3.227859,3.042076c-1.782745,0 -3.227859,-1.362168 -3.227859,-3.042076s1.445113,-3.042076 3.227859,-3.042076z"/>
   <polygon stroke="null" id="svg_11" fill="#AFBBD0" points="74.50823974609375,195.43728637695312 112.70578002929688,195.43728637695312 111.36080932617188,185.29678344726562 75.85317993164062,185.29678344726562 "/>
   <path stroke="null" id="svg_12" fill="#BEC8DC" d="m74.239342,195.437338c-1.188416,0 -2.152068,0.908189 -2.152068,2.028204s0.963653,2.028204 2.152068,2.028204l38.735522,0c1.188416,0 2.152068,-0.908189 2.152068,-2.028204s-0.963653,-2.028204 -2.152068,-2.028204l-0.268887,0l-38.197505,0l-0.26913,0z"/>
   <g stroke="null" transform="matrix(0.24377755618647753,0,0,0.22974669780003934,-396.8542837317409,-270.8667152685856) " id="svg_13">
    <polygon stroke="null" id="svg_14" fill="#96A5B9" points="1939.0929145812988,1985.505786895752 2084.748676300049,1985.505786895752 2082.541889190674,1967.850757598877 1941.2998237609863,1967.850757598877 "/>
    <circle stroke="null" id="svg_15" fill="#96A5B9" r="13.241" cy="1941.368143" cx="2011.921237"/>
   </g>
   <path stroke="null" id="svg_16" fill="#BEC8DC" d="m44.111849,158.931277l6.455961,0c1.188416,0 2.152068,-0.908189 2.152068,-2.028204l0,-44.618187c0,-1.120015 -0.963653,-2.028204 -2.152068,-2.028204l-6.455961,0c-1.188416,0 -2.152068,0.908189 -2.152068,2.028204l0,44.618417c0,1.120015 0.963409,2.027974 2.152068,2.027974zm2.151824,-44.618417l2.152068,0c1.188416,0 2.152068,0.908189 2.152068,2.028204c0,1.120015 -0.963653,2.028204 -2.152068,2.028204l-2.152068,0c-1.188416,0 -2.152068,-0.908189 -2.152068,-2.028204c0.000244,-1.120015 0.963653,-2.028204 2.152068,-2.028204zm0,6.084382l2.152068,0c1.188416,0 2.152068,0.908189 2.152068,2.028204c0,1.120015 -0.963653,2.028204 -2.152068,2.028204l-2.152068,0c-1.188416,0 -2.152068,-0.908189 -2.152068,-2.028204c0.000244,-1.120015 0.963653,-2.028204 2.152068,-2.028204zm0,6.084382l2.152068,0c1.188416,0 2.152068,0.908189 2.152068,2.028204s-0.963653,2.028204 -2.152068,2.028204l-2.152068,0c-1.188416,0 -2.152068,-0.908189 -2.152068,-2.028204s0.963653,-2.028204 2.152068,-2.028204zm0,6.084382l2.152068,0c1.188416,0 2.152068,0.908189 2.152068,2.028204s-0.963653,2.028204 -2.152068,2.028204l-2.152068,0c-1.188416,0 -2.152068,-0.908189 -2.152068,-2.028204s0.963653,-2.028204 2.152068,-2.028204zm0,6.084152l2.152068,0c1.188416,0 2.152068,0.908189 2.152068,2.028204s-0.963653,2.028204 -2.152068,2.028204l-2.152068,0c-1.188416,0 -2.152068,-0.908189 -2.152068,-2.028204s0.963653,-2.028204 2.152068,-2.028204zm-2.151824,10.14056c0,-1.120015 0.963653,-2.028204 2.152068,-2.028204l2.152068,0c1.188416,0 2.152068,0.908189 2.152068,2.028204l0,4.056178c0,1.120015 -0.963653,2.028204 -2.152068,2.028204l-2.152068,0c-1.188416,0 -2.152068,-0.908189 -2.152068,-2.028204l0,-4.056178z"/>
   <path stroke="null" id="svg_17" fill="#E4EAF6" d="m46.263674,118.369038l2.152068,0c1.188416,0 2.152068,-0.908189 2.152068,-2.028204c0,-1.120015 -0.963653,-2.028204 -2.152068,-2.028204l-2.152068,0c-1.188416,0 -2.152068,0.908189 -2.152068,2.028204c0.000244,1.120245 0.963653,2.028204 2.152068,2.028204z"/>
   <path stroke="null" id="svg_18" fill="#96A5B9" d="m46.263674,124.45342l2.152068,0c1.188416,0 2.152068,-0.908189 2.152068,-2.028204c0,-1.120015 -0.963653,-2.028204 -2.152068,-2.028204l-2.152068,0c-1.188416,0 -2.152068,0.908189 -2.152068,2.028204c0.000244,1.120245 0.963653,2.028204 2.152068,2.028204z"/>
   <g stroke="null" transform="matrix(0.24377755618647753,0,0,0.22974669780003934,-396.8542837317409,-270.8667152685856) " id="svg_19">
    <path stroke="null" id="svg_20" fill="#E4EAF6" d="m1817.714237,1747.161143l8.828,0c4.875,0 8.828,-3.953 8.828,-8.828s-3.953,-8.828 -8.828,-8.828l-8.828,0c-4.875,0 -8.828,3.953 -8.828,8.828s3.953,8.828 8.828,8.828z"/>
    <path stroke="null" id="svg_21" fill="#E4EAF6" d="m1817.714237,1773.644143l8.828,0c4.875,0 8.828,-3.953 8.828,-8.828s-3.953,-8.828 -8.828,-8.828l-8.828,0c-4.875,0 -8.828,3.953 -8.828,8.828s3.953,8.828 8.828,8.828z"/>
    <path stroke="null" id="svg_22" fill="#E4EAF6" d="m1817.714237,1800.126143l8.828,0c4.875,0 8.828,-3.953 8.828,-8.828s-3.953,-8.828 -8.828,-8.828l-8.828,0c-4.875,0 -8.828,3.953 -8.828,8.828s3.953,8.828 8.828,8.828z"/>
   </g>
   <path stroke="null" id="svg_23" fill="#96A5B9" d="m46.263674,154.875099l2.152068,0c1.188416,0 2.152068,-0.908189 2.152068,-2.028204l0,-4.056178c0,-1.120015 -0.963653,-2.028204 -2.152068,-2.028204l-2.152068,0c-1.188416,0 -2.152068,0.908189 -2.152068,2.028204l0,4.056178c0.000244,1.120015 0.963409,2.028204 2.152068,2.028204z"/>
   <g stroke="null" transform="matrix(0.24377755618647753,0,0,0.22974669780003934,-396.8542837317409,-270.8667152685856) " id="svg_24">
    <path stroke="null" id="svg_25" fill="#BEC8DC" d="m2223.783237,1667.713143c0,-4.875 -3.953,-8.828 -8.828,-8.828l-79.448,0c-4.875,0 -8.828,3.953 -8.828,8.828l0,52.966l97.103,0l0,-52.966l0.001,0zm-13.241,44.138l-35.31,0l-8.828,0l-26.483,0c-2.438,0 -4.414,-1.976 -4.414,-4.414s1.976,-4.414 4.414,-4.414l26.483,0l8.828,0l35.31,0c2.438,0 4.414,1.976 4.414,4.414s-1.977,4.414 -4.414,4.414zm0,-17.656l-8.828,0l-8.828,0l-52.965,0c-2.438,0 -4.414,-1.976 -4.414,-4.414s1.976,-4.414 4.414,-4.414l52.966,0l8.828,0l8.828,0c2.438,0 4.414,1.976 4.414,4.414s-1.978,4.414 -4.415,4.414zm0,-17.655l-52.966,0l-8.828,0l-8.827,0c-2.438,0 -4.414,-1.976 -4.414,-4.414s1.976,-4.414 4.414,-4.414l8.828,0l8.828,0l52.966,0c2.438,0 4.414,1.976 4.414,4.414s-1.978,4.414 -4.415,4.414z"/>
    <path stroke="null" id="svg_26" fill="#BEC8DC" d="m2135.507237,1870.747143l79.448,0c4.875,0 8.828,-3.953 8.828,-8.828l0,-79.448l-97.103,0l0,79.448c0,4.876 3.952,8.828 8.827,8.828zm39.724,-79.448l35.31,0c2.438,0 4.414,1.976 4.414,4.414s-1.976,4.414 -4.414,4.414l-35.31,0c-2.438,0 -4.414,-1.976 -4.414,-4.414s1.977,-4.414 4.414,-4.414zm0,17.655l35.31,0c2.438,0 4.414,1.976 4.414,4.414c0,2.438 -1.976,4.414 -4.414,4.414l-35.31,0c-2.438,0 -4.414,-1.976 -4.414,-4.414c0.001,-2.438 1.977,-4.414 4.414,-4.414zm0,17.655l35.31,0c2.438,0 4.414,1.976 4.414,4.414c0,2.438 -1.976,4.414 -4.414,4.414l-35.31,0c-2.438,0 -4.414,-1.976 -4.414,-4.414c0.001,-2.438 1.977,-4.414 4.414,-4.414zm0,17.655l35.31,0c2.438,0 4.414,1.976 4.414,4.414c0,2.438 -1.976,4.414 -4.414,4.414l-35.31,0c-2.438,0 -4.414,-1.976 -4.414,-4.414c0.001,-2.437 1.977,-4.414 4.414,-4.414zm-17.655,-52.965l0,0c2.438,0 4.414,1.976 4.414,4.414s-1.976,4.414 -4.414,4.414l0,0c-2.438,0 -4.414,-1.976 -4.414,-4.414s1.977,-4.414 4.414,-4.414zm0,17.655l0,0c2.438,0 4.414,1.976 4.414,4.414c0,2.438 -1.976,4.414 -4.414,4.414l0,0c-2.438,0 -4.414,-1.976 -4.414,-4.414c0,-2.438 1.977,-4.414 4.414,-4.414zm0,17.655l0,0c2.438,0 4.414,1.976 4.414,4.414c0,2.438 -1.976,4.414 -4.414,4.414l0,0c-2.438,0 -4.414,-1.976 -4.414,-4.414c0,-2.438 1.977,-4.414 4.414,-4.414zm0,17.655l0,0c2.438,0 4.414,1.976 4.414,4.414c0,2.438 -1.976,4.414 -4.414,4.414l0,0c-2.438,0 -4.414,-1.976 -4.414,-4.414c0,-2.437 1.977,-4.414 4.414,-4.414zm-17.655,-52.965l0,0c2.438,0 4.414,1.976 4.414,4.414s-1.976,4.414 -4.414,4.414l0,0c-2.438,0 -4.414,-1.976 -4.414,-4.414s1.976,-4.414 4.414,-4.414zm0,17.655l0,0c2.438,0 4.414,1.976 4.414,4.414c0,2.438 -1.976,4.414 -4.414,4.414l0,0c-2.438,0 -4.414,-1.976 -4.414,-4.414c0,-2.438 1.976,-4.414 4.414,-4.414zm0,17.655l0,0c2.438,0 4.414,1.976 4.414,4.414c0,2.438 -1.976,4.414 -4.414,4.414l0,0c-2.438,0 -4.414,-1.976 -4.414,-4.414c0,-2.438 1.976,-4.414 4.414,-4.414zm0,17.655l0,0c2.438,0 4.414,1.976 4.414,4.414c0,2.438 -1.976,4.414 -4.414,4.414l0,0c-2.438,0 -4.414,-1.976 -4.414,-4.414c0,-2.437 1.976,-4.414 4.414,-4.414z"/>
   </g>
   <g stroke="null" transform="matrix(0.24377755618647753,0,0,0.22974669780003934,-396.8542837317409,-270.8667152685856) " id="svg_27">
    <path stroke="null" id="svg_28" fill="#96A5B9" d="m2223.783237,1720.678143l-97.103,0l0,61.793l97.103,0l0,-61.793zm-75.034,52.966l-8.828,0c-2.438,0 -4.414,-1.976 -4.414,-4.414s1.976,-4.414 4.414,-4.414l8.828,0c2.438,0 4.414,1.976 4.414,4.414s-1.977,4.414 -4.414,4.414zm0,-17.655l-8.828,0c-2.438,0 -4.414,-1.976 -4.414,-4.414s1.976,-4.414 4.414,-4.414l8.828,0c2.438,0 4.414,1.976 4.414,4.414s-1.977,4.414 -4.414,4.414zm0,-17.656l-8.828,0c-2.438,0 -4.414,-1.976 -4.414,-4.414s1.976,-4.414 4.414,-4.414l8.828,0c2.438,0 4.414,1.976 4.414,4.414s-1.977,4.414 -4.414,4.414zm61.793,35.311l-44.138,0c-2.438,0 -4.414,-1.976 -4.414,-4.414s1.976,-4.414 4.414,-4.414l44.138,0c2.438,0 4.414,1.976 4.414,4.414s-1.977,4.414 -4.414,4.414zm0,-17.655l-44.138,0c-2.438,0 -4.414,-1.976 -4.414,-4.414s1.976,-4.414 4.414,-4.414l44.138,0c2.438,0 4.414,1.976 4.414,4.414s-1.977,4.414 -4.414,4.414zm0,-17.656l-44.138,0c-2.438,0 -4.414,-1.976 -4.414,-4.414s1.976,-4.414 4.414,-4.414l44.138,0c2.438,0 4.414,1.976 4.414,4.414s-1.977,4.414 -4.414,4.414z"/>
    <path stroke="null" id="svg_29" fill="#96A5B9" d="m2210.542237,1667.713143l-52.966,0c2.438,0 4.414,1.976 4.414,4.414s-1.976,4.414 -4.414,4.414l52.966,0c2.438,0 4.414,-1.976 4.414,-4.414s-1.977,-4.414 -4.414,-4.414z"/>
    <path stroke="null" id="svg_30" fill="#96A5B9" d="m2144.335237,1672.126143c0,-2.438 1.976,-4.414 4.414,-4.414l-8.828,0c-2.438,0 -4.414,1.976 -4.414,4.414s1.976,4.414 4.414,4.414l8.828,0c-2.438,0 -4.414,-1.976 -4.414,-4.414z"/>
    <path stroke="null" id="svg_31" fill="#96A5B9" d="m2210.542237,1703.023143l-35.31,0c2.438,0 4.414,1.976 4.414,4.414s-1.976,4.414 -4.414,4.414l35.31,0c2.438,0 4.414,-1.976 4.414,-4.414s-1.977,-4.414 -4.414,-4.414z"/>
    <path stroke="null" id="svg_32" fill="#96A5B9" d="m2161.990237,1707.437143c0,-2.438 1.976,-4.414 4.414,-4.414l-26.483,0c-2.438,0 -4.414,1.976 -4.414,4.414s1.976,4.414 4.414,4.414l26.483,0c-2.438,0 -4.414,-1.977 -4.414,-4.414z"/>
   </g>
   <path stroke="null" id="svg_33" fill="#BEC8DC" d="m142.026324,126.481624l-10.759854,0c-0.59433,0 -1.076034,0.453979 -1.076034,1.014102s0.481704,1.014102 1.076034,1.014102l10.759854,0c0.59433,0 1.076034,-0.453979 1.076034,-1.014102s-0.481948,-1.014102 -1.076034,-1.014102z"/>
   <g stroke="null" transform="matrix(0.24377755618647753,0,0,0.22974669780003934,-396.8542837317409,-270.8667152685856) " id="svg_34">
    <path stroke="null" id="svg_35" fill="#96A5B9" d="m2188.473237,1689.782143c0,-2.438 1.976,-4.414 4.414,-4.414l-52.966,0c-2.438,0 -4.414,1.976 -4.414,4.414s1.976,4.414 4.414,4.414l52.966,0c-2.438,-0.001 -4.414,-1.977 -4.414,-4.414z"/>
    <path stroke="null" id="svg_36" fill="#96A5B9" d="m2210.542237,1685.368143l-8.828,0c2.438,0 4.414,1.976 4.414,4.414s-1.976,4.414 -4.414,4.414l8.828,0c2.438,0 4.414,-1.976 4.414,-4.414s-1.977,-4.414 -4.414,-4.414z"/>
   </g>
   <g stroke="null" transform="matrix(0.24377755618647753,0,0,0.22974669780003934,-396.8542837317409,-270.8667152685856) " id="svg_37">
    <path stroke="null" id="svg_38" fill="#E4EAF6" d="m2161.990237,1672.126143c0,-2.438 -1.976,-4.414 -4.414,-4.414l-8.828,0c-2.438,0 -4.414,1.976 -4.414,4.414s1.976,4.414 4.414,4.414l8.828,0c2.438,0 4.414,-1.976 4.414,-4.414z"/>
    <path stroke="null" id="svg_39" fill="#E4EAF6" d="m2179.645237,1707.437143c0,-2.438 -1.976,-4.414 -4.414,-4.414l-8.828,0c-2.438,0 -4.414,1.976 -4.414,4.414s1.976,4.414 4.414,4.414l8.828,0c2.438,0 4.414,-1.977 4.414,-4.414z"/>
    <path stroke="null" id="svg_40" fill="#E4EAF6" d="m2148.749237,1729.506143l-8.828,0c-2.438,0 -4.414,1.976 -4.414,4.414s1.976,4.414 4.414,4.414l8.828,0c2.438,0 4.414,-1.976 4.414,-4.414s-1.977,-4.414 -4.414,-4.414z"/>
   </g>
   <path stroke="null" id="svg_41" fill="#BEC8DC" d="m142.026324,130.537802l-10.759854,0c-0.59433,0 -1.076034,0.453979 -1.076034,1.014102s0.481704,1.014102 1.076034,1.014102l10.759854,0c0.59433,0 1.076034,-0.453979 1.076034,-1.014102s-0.481948,-1.014102 -1.076034,-1.014102z"/>
   <path stroke="null" id="svg_42" fill="#E4EAF6" d="m126.962577,130.537802l-2.152068,0c-0.59433,0 -1.076034,0.453979 -1.076034,1.014102s0.481704,1.014102 1.076034,1.014102l2.152068,0c0.59433,0 1.076034,-0.453979 1.076034,-1.014102s-0.481948,-1.014102 -1.076034,-1.014102z"/>
   <path stroke="null" id="svg_43" fill="#BEC8DC" d="m142.026324,134.59398l-10.759854,0c-0.59433,0 -1.076034,0.453979 -1.076034,1.014102s0.481704,1.014102 1.076034,1.014102l10.759854,0c0.59433,0 1.076034,-0.453979 1.076034,-1.014102s-0.481948,-1.014102 -1.076034,-1.014102z"/>
   <g stroke="null" transform="matrix(0.24377755618647753,0,0,0.22974669780003934,-396.8542837317409,-270.8667152685856) " id="svg_44">
    <path stroke="null" id="svg_45" fill="#E4EAF6" d="m2148.749237,1764.816143l-8.828,0c-2.438,0 -4.414,1.976 -4.414,4.414s1.976,4.414 4.414,4.414l8.828,0c2.438,0 4.414,-1.976 4.414,-4.414s-1.977,-4.414 -4.414,-4.414z"/>
    <path stroke="null" id="svg_46" fill="#E4EAF6" d="m2139.921237,1817.782143l0,0c2.438,0 4.414,-1.976 4.414,-4.414c0,-2.438 -1.976,-4.414 -4.414,-4.414l0,0c-2.438,0 -4.414,1.976 -4.414,4.414c0,2.437 1.976,4.414 4.414,4.414z"/>
    <path stroke="null" id="svg_47" fill="#E4EAF6" d="m2139.921237,1800.126143l0,0c2.438,0 4.414,-1.976 4.414,-4.414s-1.976,-4.414 -4.414,-4.414l0,0c-2.438,0 -4.414,1.976 -4.414,4.414s1.976,4.414 4.414,4.414z"/>
    <path stroke="null" id="svg_48" fill="#E4EAF6" d="m2139.921237,1853.092143l0,0c2.438,0 4.414,-1.976 4.414,-4.414c0,-2.438 -1.976,-4.414 -4.414,-4.414l0,0c-2.438,0 -4.414,1.976 -4.414,4.414c0,2.438 1.976,4.414 4.414,4.414z"/>
    <path stroke="null" id="svg_49" fill="#E4EAF6" d="m2139.921237,1835.437143l0,0c2.438,0 4.414,-1.976 4.414,-4.414c0,-2.438 -1.976,-4.414 -4.414,-4.414l0,0c-2.438,0 -4.414,1.976 -4.414,4.414c0,2.438 1.976,4.414 4.414,4.414z"/>
   </g>
   <g stroke="null" transform="matrix(0.24377755618647753,0,0,0.22974669780003934,-396.8542837317409,-270.8667152685856) " id="svg_50">
    <path stroke="null" id="svg_51" fill="#96A5B9" d="m2157.576237,1817.782143l0,0c2.438,0 4.414,-1.976 4.414,-4.414c0,-2.438 -1.976,-4.414 -4.414,-4.414l0,0c-2.438,0 -4.414,1.976 -4.414,4.414c0,2.437 1.977,4.414 4.414,4.414z"/>
    <path stroke="null" id="svg_52" fill="#96A5B9" d="m2157.576237,1800.126143l0,0c2.438,0 4.414,-1.976 4.414,-4.414s-1.976,-4.414 -4.414,-4.414l0,0c-2.438,0 -4.414,1.976 -4.414,4.414s1.977,4.414 4.414,4.414z"/>
    <path stroke="null" id="svg_53" fill="#96A5B9" d="m2157.576237,1853.092143l0,0c2.438,0 4.414,-1.976 4.414,-4.414c0,-2.438 -1.976,-4.414 -4.414,-4.414l0,0c-2.438,0 -4.414,1.976 -4.414,4.414c0,2.438 1.977,4.414 4.414,4.414z"/>
    <path stroke="null" id="svg_54" fill="#96A5B9" d="m2157.576237,1835.437143l0,0c2.438,0 4.414,-1.976 4.414,-4.414c0,-2.438 -1.976,-4.414 -4.414,-4.414l0,0c-2.438,0 -4.414,1.976 -4.414,4.414c0,2.438 1.977,4.414 4.414,4.414z"/>
    <path stroke="null" id="svg_55" fill="#96A5B9" d="m2175.231237,1817.782143l35.31,0c2.438,0 4.414,-1.976 4.414,-4.414c0,-2.438 -1.976,-4.414 -4.414,-4.414l-35.31,0c-2.438,0 -4.414,1.976 -4.414,4.414c0.001,2.437 1.977,4.414 4.414,4.414z"/>
    <path stroke="null" id="svg_56" fill="#96A5B9" d="m2175.231237,1800.126143l35.31,0c2.438,0 4.414,-1.976 4.414,-4.414s-1.976,-4.414 -4.414,-4.414l-35.31,0c-2.438,0 -4.414,1.976 -4.414,4.414s1.977,4.414 4.414,4.414z"/>
    <path stroke="null" id="svg_57" fill="#96A5B9" d="m2175.231237,1853.092143l35.31,0c2.438,0 4.414,-1.976 4.414,-4.414c0,-2.438 -1.976,-4.414 -4.414,-4.414l-35.31,0c-2.438,0 -4.414,1.976 -4.414,4.414c0.001,2.438 1.977,4.414 4.414,4.414z"/>
    <path stroke="null" id="svg_58" fill="#96A5B9" d="m2175.231237,1835.437143l35.31,0c2.438,0 4.414,-1.976 4.414,-4.414c0,-2.438 -1.976,-4.414 -4.414,-4.414l-35.31,0c-2.438,0 -4.414,1.976 -4.414,4.414c0.001,2.438 1.977,4.414 4.414,4.414z"/>
   </g>
   <path stroke="null" id="svg_59" fill="#E4EAF6" d="m140.950289,117.355166c0,-0.560122 -0.481704,-1.014102 -1.076034,-1.014102l-2.152068,0c-0.59433,0 -1.076034,0.453979 -1.076034,1.014102s0.481704,1.014102 1.076034,1.014102l2.152068,0c0.59433,-0.00023 1.076034,-0.454209 1.076034,-1.014102z"/>
   <path stroke="null" id="svg_60" fill="#FF6469" d="m63.479245,136.622183l16.139781,0l0,-4.056178l-13.987956,0l0,-18.252916l19.367639,0l0,13.182636c0.594817,0 1.076034,0.45352 1.076034,1.014102c0,0.560582 -0.481217,1.014102 -1.076034,1.014102l0,3.042076l-3.227859,0l0,4.056178l5.379927,0c0.030716,0 0.060457,-0.002987 0.090929,-0.004365l0.017064,-1.218806c0.009751,-0.698889 0.887594,-1.061889 1.439994,-0.595733l0.49755,0.419977c0.068501,-0.198271 0.106775,-0.409409 0.106775,-0.629276l0,-5.07028c-0.594817,0 -1.076034,-0.45352 -1.076034,-1.014102c0,-0.560582 0.481217,-1.014102 1.076034,-1.014102l0,-15.21061c0,-1.120934 -0.963653,-2.028204 -2.152068,-2.028204l-23.671532,0c-1.188416,0 -2.152068,0.90704 -2.152068,2.028204l0,22.309094c-0.000244,1.121164 0.963409,2.028204 2.151824,2.028204z"/>
   <g stroke="null" transform="matrix(0.24377755618647753,0,0,0.22974669780003934,-396.8542837317409,-270.8667152685856) " id="svg_61">
    <path stroke="null" id="svg_62" fill="#96A5B9" d="m1958.954237,1813.368143c2.44,0 4.414,-1.974 4.414,-4.414l0,-17.655c0,-2.44 -1.974,-4.414 -4.414,-4.414s-4.414,1.974 -4.414,4.414l0,17.655c0.001,2.44 1.975,4.414 4.414,4.414z"/>
    <path stroke="null" id="svg_63" fill="#96A5B9" d="m2064.885237,1866.333143l17.655,0c2.44,0 4.414,-1.974 4.414,-4.414s-1.974,-4.414 -4.414,-4.414l-17.655,0c-2.44,0 -4.414,1.974 -4.414,4.414s1.975,4.414 4.414,4.414z"/>
    <path stroke="null" id="svg_64" fill="#96A5B9" d="m2082.541237,1822.195143c-2.44,0 -4.414,1.974 -4.414,4.414l0,17.655c0,2.44 1.974,4.414 4.414,4.414s4.414,-1.974 4.414,-4.414l0,-17.655c-0.001,-2.44 -1.975,-4.414 -4.414,-4.414z"/>
    <path stroke="null" id="svg_65" fill="#96A5B9" d="m2064.885237,1742.747143l17.655,0c2.44,0 4.414,-1.974 4.414,-4.414c0,-2.44 -1.974,-4.414 -4.414,-4.414l-17.655,0c-2.44,0 -4.414,1.974 -4.414,4.414c0.001,2.44 1.975,4.414 4.414,4.414z"/>
    <path stroke="null" id="svg_66" fill="#96A5B9" d="m2082.541237,1751.575143c-2.44,0 -4.414,1.974 -4.414,4.414l0,17.655c0,2.44 1.974,4.414 4.414,4.414s4.414,-1.974 4.414,-4.414l0,-17.655c-0.001,-2.44 -1.975,-4.414 -4.414,-4.414z"/>
    <path stroke="null" id="svg_67" fill="#96A5B9" d="m2011.920237,1857.506143l-17.655,0c-2.44,0 -4.414,1.974 -4.414,4.414s1.974,4.414 4.414,4.414l17.655,0c2.44,0 4.414,-1.974 4.414,-4.414s-1.974,-4.414 -4.414,-4.414z"/>
    <path stroke="null" id="svg_68" fill="#96A5B9" d="m1958.954237,1751.575143c-2.44,0 -4.414,1.974 -4.414,4.414l0,17.655c0,2.44 1.974,4.414 4.414,4.414s4.414,-1.974 4.414,-4.414l0,-17.655c0,-2.44 -1.974,-4.414 -4.414,-4.414z"/>
    <path stroke="null" id="svg_69" fill="#96A5B9" d="m1976.610237,1857.506143l-17.655,0c-2.44,0 -4.414,1.974 -4.414,4.414s1.974,4.414 4.414,4.414l17.655,0c2.44,0 4.414,-1.974 4.414,-4.414s-1.975,-4.414 -4.414,-4.414z"/>
    <path stroke="null" id="svg_70" fill="#96A5B9" d="m1954.541237,1844.264143c0,2.44 1.974,4.414 4.414,4.414s4.414,-1.974 4.414,-4.414l0,-17.655c0,-2.44 -1.974,-4.414 -4.414,-4.414s-4.414,1.974 -4.414,4.414l0,17.655z"/>
    <path stroke="null" id="svg_71" fill="#96A5B9" d="m2082.541237,1786.885143c-2.44,0 -4.414,1.974 -4.414,4.414l0,17.655c0,2.44 1.974,4.414 4.414,4.414s4.414,-1.974 4.414,-4.414l0,-17.655c-0.001,-2.44 -1.975,-4.414 -4.414,-4.414z"/>
    <path stroke="null" id="svg_72" fill="#96A5B9" d="m2029.575237,1742.747143l17.655,0c2.44,0 4.414,-1.974 4.414,-4.414c0,-2.44 -1.974,-4.414 -4.414,-4.414l-17.655,0c-2.44,0 -4.414,1.974 -4.414,4.414c0,2.44 1.974,4.414 4.414,4.414z"/>
    <path stroke="null" id="svg_73" fill="#96A5B9" d="m1954.541237,1738.333143c0,2.44 1.974,4.414 4.414,4.414l17.655,0c2.44,0 4.414,-1.974 4.414,-4.414c0,-2.44 -1.974,-4.414 -4.414,-4.414l-17.655,0c-2.44,0.001 -4.414,1.975 -4.414,4.414z"/>
    <path stroke="null" id="svg_74" fill="#96A5B9" d="m2029.575237,1866.333143l17.655,0c2.44,0 4.414,-1.974 4.414,-4.414s-1.974,-4.414 -4.414,-4.414l-17.655,0c-2.44,0 -4.414,1.974 -4.414,4.414s1.974,4.414 4.414,4.414z"/>
    <path stroke="null" id="svg_75" fill="#96A5B9" d="m1989.851237,1738.333143c0,2.44 1.974,4.414 4.414,4.414l17.655,0c2.44,0 4.414,-1.974 4.414,-4.414c0,-2.44 -1.974,-4.414 -4.414,-4.414l-17.655,0c-2.44,0.001 -4.414,1.975 -4.414,4.414z"/>
   </g>
   <path stroke="null" id="svg_76" fill="#464655" d="m87.258526,135.399012l-0.017064,1.218806l-0.090441,6.555592c-0.008045,0.592057 0.635528,0.994114 1.210843,0.755867l2.140611,-0.885444l1.91146,4.103046c0.17747,0.380231 0.571658,0.606072 0.986568,0.606072c0.143829,0 0.29107,-0.02757 0.43173,-0.085236c0.54338,-0.225841 0.791058,-0.823872 0.552887,-1.336666l-1.911216,-4.102587l2.139879,-0.885214c0.575071,-0.238018 0.69696,-0.956436 0.229151,-1.35183l-5.647107,-4.768163l-0.49755,-0.419977c-0.552156,-0.466386 -1.430243,-0.103156 -1.43975,0.595733z"/>
   <g stroke="null" transform="matrix(0.24377755618647753,0,0,0.22974669780003934,-396.8542837317409,-270.8667152685856) " id="svg_77"/>
   <g stroke="null" transform="matrix(0.24377755618647753,0,0,0.22974669780003934,-396.8542837317409,-270.8667152685856) " id="svg_78"/>
   <g stroke="null" transform="matrix(0.24377755618647753,0,0,0.22974669780003934,-396.8542837317409,-270.8667152685856) " id="svg_79"/>
   <g stroke="null" transform="matrix(0.24377755618647753,0,0,0.22974669780003934,-396.8542837317409,-270.8667152685856) " id="svg_80"/>
   <g stroke="null" transform="matrix(0.24377755618647753,0,0,0.22974669780003934,-396.8542837317409,-270.8667152685856) " id="svg_81"/>
   <g stroke="null" transform="matrix(0.24377755618647753,0,0,0.22974669780003934,-396.8542837317409,-270.8667152685856) " id="svg_82"/>
   <g stroke="null" transform="matrix(0.24377755618647753,0,0,0.22974669780003934,-396.8542837317409,-270.8667152685856) " id="svg_83"/>
   <g stroke="null" transform="matrix(0.24377755618647753,0,0,0.22974669780003934,-396.8542837317409,-270.8667152685856) " id="svg_84"/>
   <g stroke="null" transform="matrix(0.24377755618647753,0,0,0.22974669780003934,-396.8542837317409,-270.8667152685856) " id="svg_85"/>
   <g stroke="null" transform="matrix(0.24377755618647753,0,0,0.22974669780003934,-396.8542837317409,-270.8667152685856) " id="svg_86"/>
   <g stroke="null" transform="matrix(0.24377755618647753,0,0,0.22974669780003934,-396.8542837317409,-270.8667152685856) " id="svg_87"/>
   <g stroke="null" transform="matrix(0.24377755618647753,0,0,0.22974669780003934,-396.8542837317409,-270.8667152685856) " id="svg_88"/>
   <g stroke="null" transform="matrix(0.24377755618647753,0,0,0.22974669780003934,-396.8542837317409,-270.8667152685856) " id="svg_89"/>
   <g stroke="null" transform="matrix(0.24377755618647753,0,0,0.22974669780003934,-396.8542837317409,-270.8667152685856) " id="svg_90"/>
   <g stroke="null" transform="matrix(0.24377755618647753,0,0,0.22974669780003934,-396.8542837317409,-270.8667152685856) " id="svg_91"/>
  </g>
  <g stroke="null" id="svg_120">
   <g stroke="null" transform="matrix(0.10923687611735498,0,0,0.12019187428662577,140.19166438638604,98.19311636780913) " id="svg_97">
    <path stroke="null" id="svg_98" fill="#E85512" d="m203.612377,463.416103c-6.062,-6.213 -23.311,-12.983 -53.539,-13.352c-10.789,-0.132 -22.787,0.58 -35.616,2.27l98.156,99.829c6.878,-44.761 1.134,-78.362 -9.001,-88.747z"/>
    <path stroke="null" id="svg_99" fill="#E85512" d="m-150.233623,808.727103c6.062,6.213 23.312,12.983 53.541,13.352c10.789,0.132 22.786,-0.58 35.615,-2.269l-98.16,-99.833c-6.877,44.763 -1.132,78.365 9.004,88.75z"/>
    <path stroke="null" id="svg_100" fill="#E85512" d="m90.485377,456.480103c-50.752,10.815 -109.798,36.211 -157.91,83.162c-55.828,54.481 -78.357,119.443 -87.158,156.543l117.477,119.479c50.748,-10.814 109.788,-36.207 157.896,-83.155c55.834,-54.486 78.365,-119.454 87.167,-156.555l-117.472,-119.474zm17.588,153.979c-1.96,1.945 -4.523,2.912 -7.082,2.903c-2.56,-0.01 -5.115,-0.995 -7.06,-2.955l-13.492,-13.593l-38.232,37.945l13.492,13.594c3.891,3.92 3.867,10.252 -0.053,14.142c-1.96,1.945 -4.523,2.912 -7.082,2.902c-2.56,-0.01 -5.115,-0.995 -7.06,-2.955l-13.492,-13.594l-40.984,40.677l13.492,13.594c3.891,3.92 3.867,10.252 -0.053,14.142c-1.96,1.945 -4.523,2.912 -7.082,2.902c-2.559,-0.01 -5.115,-0.995 -7.06,-2.955l-20.532,-20.687c-0.002,-0.002 -0.004,-0.003 -0.005,-0.005c-0.002,-0.002 -0.003,-0.003 -0.005,-0.005l-20.532,-20.686c-3.89,-3.92 -3.866,-10.252 0.053,-14.143c3.92,-3.891 10.252,-3.867 14.142,0.053l13.492,13.594l40.984,-40.677l-13.492,-13.593c-3.891,-3.92 -3.867,-10.252 0.053,-14.142c3.92,-3.891 10.252,-3.867 14.143,0.053l13.492,13.594l38.232,-37.945l-13.492,-13.594c-3.891,-3.92 -3.867,-10.252 0.053,-14.142c3.921,-3.89 10.251,-3.867 14.142,0.053l41.073,41.383c3.89,3.918 3.867,10.25 -0.053,14.14z"/>
    <path stroke="null" id="svg_101" fill="#FFFFFF" d="m-155.818623,701.584103c-1.379,6.312 -2.506,12.448 -3.42,18.394l98.16,99.833c7.717,-1.017 15.737,-2.391 23.973,-4.146l-117.477,-119.48c-0.442,1.864 -0.861,3.68 -1.236,5.399z"/>
    <path stroke="null" id="svg_102" fill="#FFFFFF" d="m209.192377,570.560103c1.379,-6.313 2.507,-12.45 3.421,-18.397l-98.156,-99.829c-7.717,1.016 -15.736,2.391 -23.971,4.146l117.472,119.474c0.441,-1.862 0.859,-3.677 1.234,-5.394z"/>
    <path stroke="null" id="svg_103" d="m235.077377,499.277103c-1.269,-16.015 -5.275,-37.66 -17.151,-49.83c-11.819,-12.11 -35.83,-18.994 -67.609,-19.382c-61.093,-0.746 -158.436,23.756 -231.71,95.263c-62.367,60.864 -85.642,133.881 -93.965,171.988c-5.92,27.105 -8.113,53.229 -6.344,75.55c1.27,16.015 5.277,37.66 17.153,49.83c11.818,12.11 35.829,18.993 67.611,19.382c0.004,0 0.001,0 0.005,0c61.09,0.746 158.425,-23.756 231.692,-95.255c62.37,-60.866 85.648,-133.885 93.973,-171.995c5.92,-27.104 8.115,-53.23 6.345,-75.551zm-272.183,316.387c-8.236,1.755 -16.256,3.129 -23.973,4.146c-12.828,1.69 -24.826,2.401 -35.615,2.269c-30.23,-0.37 -47.479,-7.14 -53.541,-13.352c-10.135,-10.385 -15.881,-43.987 -9.004,-88.75c0.913,-5.946 2.041,-12.082 3.42,-18.394c0.375,-1.718 0.794,-3.535 1.236,-5.398c8.801,-37.1 31.33,-102.062 87.158,-156.543c48.112,-46.951 107.158,-72.348 157.91,-83.162c8.236,-1.755 16.255,-3.13 23.971,-4.146c12.828,-1.69 24.827,-2.402 35.616,-2.27c30.228,0.369 47.477,7.139 53.539,13.352c10.135,10.384 15.879,43.986 9.001,88.747c-0.914,5.947 -2.042,12.084 -3.421,18.397c-0.375,1.717 -0.793,3.531 -1.235,5.394c-8.802,37.101 -31.333,102.068 -87.167,156.555c-48.107,46.948 -107.147,72.341 -157.895,83.155z"/>
    <path stroke="null" id="svg_104" d="m67.052377,554.934103c-3.892,-3.92 -10.222,-3.943 -14.142,-0.053c-3.92,3.891 -3.944,10.222 -0.053,14.142l13.492,13.594l-38.232,37.945l-13.492,-13.594c-3.891,-3.92 -10.223,-3.944 -14.143,-0.053c-3.92,3.89 -3.944,10.222 -0.053,14.142l13.492,13.593l-40.984,40.677l-13.492,-13.594c-3.89,-3.92 -10.222,-3.944 -14.142,-0.053c-3.919,3.891 -3.943,10.222 -0.053,14.143l20.532,20.686c0.002,0.002 0.003,0.003 0.005,0.005c0.002,0.002 0.003,0.003 0.005,0.005l20.532,20.687c1.945,1.96 4.501,2.946 7.06,2.955c2.559,0.009 5.122,-0.957 7.082,-2.902c3.92,-3.89 3.944,-10.222 0.053,-14.142l-13.492,-13.594l40.984,-40.677l13.492,13.594c1.946,1.96 4.501,2.945 7.06,2.955c2.559,0.009 5.122,-0.957 7.082,-2.902c3.92,-3.89 3.944,-10.222 0.053,-14.142l-13.492,-13.594l38.232,-37.945l13.492,13.593c1.946,1.96 4.501,2.946 7.06,2.955c2.56,0.01 5.122,-0.957 7.082,-2.903c3.92,-3.89 3.944,-10.222 0.053,-14.142l-41.073,-41.381z"/>
   </g>
   <g stroke="null" transform="matrix(0.10923687611735498,0,0,0.12019187428662577,140.19166438638604,98.19311636780913) " id="svg_105"/>
   <g stroke="null" transform="matrix(0.10923687611735498,0,0,0.12019187428662577,140.19166438638604,98.19311636780913) " id="svg_106"/>
   <g stroke="null" transform="matrix(0.10923687611735498,0,0,0.12019187428662577,140.19166438638604,98.19311636780913) " id="svg_107"/>
   <g stroke="null" transform="matrix(0.10923687611735498,0,0,0.12019187428662577,140.19166438638604,98.19311636780913) " id="svg_108"/>
   <g stroke="null" transform="matrix(0.10923687611735498,0,0,0.12019187428662577,140.19166438638604,98.19311636780913) " id="svg_109"/>
   <g stroke="null" transform="matrix(0.10923687611735498,0,0,0.12019187428662577,140.19166438638604,98.19311636780913) " id="svg_110"/>
   <g stroke="null" transform="matrix(0.10923687611735498,0,0,0.12019187428662577,140.19166438638604,98.19311636780913) " id="svg_111"/>
   <g stroke="null" transform="matrix(0.10923687611735498,0,0,0.12019187428662577,140.19166438638604,98.19311636780913) " id="svg_112"/>
   <g stroke="null" transform="matrix(0.10923687611735498,0,0,0.12019187428662577,140.19166438638604,98.19311636780913) " id="svg_113"/>
   <g stroke="null" transform="matrix(0.10923687611735498,0,0,0.12019187428662577,140.19166438638604,98.19311636780913) " id="svg_114"/>
   <g stroke="null" transform="matrix(0.10923687611735498,0,0,0.12019187428662577,140.19166438638604,98.19311636780913) " id="svg_115"/>
   <g stroke="null" transform="matrix(0.10923687611735498,0,0,0.12019187428662577,140.19166438638604,98.19311636780913) " id="svg_116"/>
   <g stroke="null" transform="matrix(0.10923687611735498,0,0,0.12019187428662577,140.19166438638604,98.19311636780913) " id="svg_117"/>
   <g stroke="null" transform="matrix(0.10923687611735498,0,0,0.12019187428662577,140.19166438638604,98.19311636780913) " id="svg_118"/>
   <g stroke="null" transform="matrix(0.10923687611735498,0,0,0.12019187428662577,140.19166438638604,98.19311636780913) " id="svg_119"/>
  </g>
 </g>
</svg>
