<svg width="163" height="163" xmlns="http://www.w3.org/2000/svg" xmlns:xlink="http://www.w3.org/1999/xlink" preserveAspectRatio="xMidYMid meet">
 <defs>
  <path id="vnERY2BHu4" d="m87.96,65.66l-15.51,0c0,1.06 0,1.65 0,1.77c0,2.22 -1.43,4.2 -3.54,4.9c-0.28,0.1 -2.51,0.84 -2.79,0.93c1.02,6.86 6.93,12.12 14.07,12.12c7.14,0 13.05,-5.27 14.07,-12.13c-0.28,-0.09 -2.48,-0.82 -2.76,-0.92c-2.11,-0.7 -3.54,-2.68 -3.54,-4.9c0,-0.24 0,-0.83 0,-1.77z"/>
  <path id="hEj96sJBmz" d="m49.17,63.4c0,-18.62 0,-28.97 0,-31.04c0,-14.28 11.58,-25.86 25.86,-25.86c1.04,0 9.31,0 10.35,0c14.28,0 25.86,11.58 25.86,25.86c0,2.07 0,12.42 0,31.04l-62.07,0z"/>
  <path id="qtlTS9PViw" d="m75.03,127.08c0,0 0,0 0,0c0,13 0,20.22 0,21.66c0,0 0,0 0,0c-6.2,0 -9.65,0 -10.34,0c0,0 0,0 0,0c0,-12.99 0,-20.21 0,-21.66c0,0 0,0 0,0c6.21,0 9.65,0 10.34,0z"/>
  <path id="y9VMt4lSD3" d="m95.72,127.08c0,0 0,0 0,0c0,13 0,20.22 0,21.66c0,0 0,0 0,0c-6.2,0 -9.65,0 -10.34,0c0,0 0,0 0,0c0,-12.99 0,-20.21 0,-21.66c0,0 0,0 0,0c6.21,0 9.65,0 10.34,0z"/>
  <path id="T7DOYyETxx" d="m54.34,109.95c-1.42,0 -2.58,1.16 -2.58,2.58c0,0.26 0,2.33 0,2.59c0,4.29 3.47,7.76 7.76,7.76c0.17,0 1.03,0 2.58,0l0,-43.97l-7.76,0c0,18.62 0,28.97 0,31.04z"/>
  <path id="khajMo1mgu" d="m106.07,78.91l-7.76,0l0,43.97c1.55,0 2.41,0 2.59,0c4.28,0 7.76,-3.47 7.76,-7.76c0,-0.26 0,-2.33 0,-2.59c0,-1.42 -1.16,-2.58 -2.59,-2.58c0,-4.14 0,-14.48 0,-31.04z"/>
  <path id="Khiyt2jd0m" d="m106.07,32.36c0,-2.85 -2.32,-5.17 -5.17,-5.17c-4.14,0 -37.24,0 -41.38,0c-2.86,0 -5.18,2.32 -5.18,5.17c0,1.8 0,16.15 0,17.95c0,4.81 2.84,9.17 7.24,11.13c1.37,0.61 12.31,5.47 13.68,6.08c1.56,0.69 3.24,1.05 4.95,1.05c0,0 0,0 0,0c1.7,0 3.39,-0.36 4.95,-1.05c1.36,-0.61 12.31,-5.47 13.67,-6.08c4.4,-1.96 7.24,-6.32 7.24,-11.13c0,-0.24 0,-2.19 0,-2.43c2.86,0 5.17,-2.32 5.17,-5.17c0,-2.86 -2.31,-5.18 -5.17,-5.18c0,-1.03 0,-4.65 0,-5.17z"/>
  <path id="ZiOF8slwVg" d="m64.69,50.31c0,-1.8 0,-16.15 0,-17.95c0,-2.85 2.32,-5.17 5.17,-5.17c-1.03,0 -9.31,0 -10.34,0c-2.86,0 -5.18,2.32 -5.18,5.17c0,1.8 0,16.15 0,17.95c0,4.81 2.84,9.17 7.24,11.13c1.37,0.61 12.31,5.47 13.68,6.08c1.56,0.69 3.24,1.05 4.95,1.05c0,0 0,0 0,0c1.01,0 2,-0.16 2.97,-0.41c-0.89,-0.49 -5.33,-2.94 -13.32,-7.35c-3.45,-3.79 -5.17,-7.29 -5.17,-10.5z"/>
  <path id="ATIHcl2MF" d="m67.28,47.88c-1.43,0 -2.59,-1.16 -2.59,-2.59c0,-0.26 0,-2.32 0,-2.58c0,-1.43 1.16,-2.59 2.59,-2.59c0,0 0,0 0,0c1.42,0 2.58,1.16 2.58,2.59c0,0.26 0,2.32 0,2.58c0,1.43 -1.16,2.59 -2.58,2.59c0,0 0,0 0,0z"/>
  <path id="BskzCPYmRw" d="m93.14,47.88c-1.43,0 -2.59,-1.16 -2.59,-2.59c0,-0.26 0,-2.32 0,-2.58c0,-1.43 1.16,-2.59 2.59,-2.59c0,0 0,0 0,0c1.43,0 2.58,1.16 2.58,2.59c0,0.26 0,2.32 0,2.58c0,1.43 -1.15,2.59 -2.58,2.59c0,0 0,0 0,0z"/>
  <path id="l68fReCUkJ" d="m72.77,58.85c-1.23,-0.72 -1.66,-2.3 -0.94,-3.54c0.71,-1.23 2.29,-1.65 3.53,-0.94c2.87,1.66 7.02,1.66 9.89,0c1.24,-0.71 2.82,-0.29 3.53,0.94c0.72,1.24 0.29,2.82 -0.94,3.54c-2.22,1.28 -4.83,1.96 -7.53,1.96c-2.71,0 -5.32,-0.68 -7.54,-1.96z"/>
  <path id="jtibXOo1Du" d="m96.07,71.99c-1.4,-0.4 -2.91,0.42 -3.21,1.85c-1.24,5.85 -6.43,10.25 -12.65,10.25c-6.23,0 -11.42,-4.4 -12.66,-10.25c-0.3,-1.43 -1.81,-2.25 -3.21,-1.85c-1.12,0.32 -10.06,2.88 -11.18,3.2c-1.88,0.54 -2.59,2.83 -1.34,4.33c0.51,0.62 3.08,3.72 7.7,9.29c-1.45,21.89 -2.25,34.05 -2.41,36.49c-0.1,1.49 1.09,2.75 2.58,2.75c4.11,0 36.93,0 41.03,0c1.5,0 2.68,-1.26 2.58,-2.75c-0.16,-2.44 -0.96,-14.6 -2.4,-36.49c4.62,-5.57 7.18,-8.67 7.69,-9.29c1.25,-1.5 0.54,-3.79 -1.34,-4.33c-2.23,-0.64 -10.06,-2.88 -11.18,-3.2z"/>
  <path id="Ng3mP1QQtA" d="m77.62,148.74c0,-1.46 -1.16,-2.58 -2.59,-2.58c0,0 0,0 0,0c0,0 0,0 0,0c-1.48,1.48 -3.69,1.96 -5.64,1.18c-1.52,-0.61 -3.33,-1.18 -4.7,-1.18c-7.68,0 -10.35,5.17 -10.35,5.17c0,0.34 0,2.07 0,5.17l23.28,0c0,-4.66 0,-7.24 0,-7.76z"/>
  <path id="EaZUCvQGt3" d="m77.62,151.33c0,0 0,0 0,0c0,3.1 0,4.83 0,5.17c0,0 0,0 0,0c-13.96,0 -21.72,0 -23.28,0c0,0 0,0 0,0c0,-3.1 0,-4.83 0,-5.17c0,0 0,0 0,0c13.97,0 21.73,0 23.28,0z"/>
  <path id="cBpHxsj5LZ" d="m82.79,148.74c0,-1.46 1.16,-2.58 2.59,-2.58c0,0 0,0 0,0c0,0 0,0 0,0c1.48,1.48 3.7,1.96 5.64,1.18c1.53,-0.61 3.33,-1.18 4.7,-1.18c7.68,0 10.35,5.17 10.35,5.17c0,0.34 0,2.07 0,5.17l-23.28,0c0,-4.66 0,-7.24 0,-7.76z"/>
  <path id="X4BFKnurcR" d="m106.07,151.33c0,0 0,0 0,0c0,3.1 0,4.83 0,5.17c0,0 0,0 0,0c-13.97,0 -21.73,0 -23.28,0c0,0 0,0 0,0c0,-3.1 0,-4.83 0,-5.17c0,0 0,0 0,0c13.97,0 21.73,0 23.28,0z"/>
  <path id="yAJVtesAQT" d="m53.86,45.94c0,-1.38 0,-8.28 0,-20.69l47.04,0c-25.09,11.03 -40.77,17.93 -47.04,20.69z"/>
  <path id="QuHnrHDbQA" d="m95.71,95.97l-7.77,-5.17l-7.75,5.17l-7.76,-5.17l-7.75,5.17l-5.4,-3.6l-0.39,5.96l5.79,3.86l7.75,-5.17l7.76,5.17l7.76,-5.18l7.76,5.18l5.81,-3.87l-0.39,-5.95l-5.42,3.6z"/>
  <path id="hnV4Or10HQ" d="m95.71,107.36l-7.77,-5.17l-7.75,5.17l-7.76,-5.17l-7.75,5.17l-6.12,-4.08l-0.39,5.96l6.51,4.34l7.75,-5.17l7.76,5.17l7.76,-5.17l7.76,5.17l6.53,-4.35l-0.39,-5.95l-6.14,4.08z"/>
  <path id="MB41de72Mn" d="m97.02,25.03c-2.15,0 -3.88,-1.74 -3.88,-3.88c0,-2.14 1.73,-3.88 3.88,-3.88c2.14,0 6.46,1.74 6.46,3.88c0,2.14 -4.32,3.88 -6.46,3.88z"/>
  <path id="s9QUQaFht5" d="m109.95,17.27c2.14,0 3.88,1.74 3.88,3.88c0,2.14 -1.74,3.88 -3.88,3.88c-2.14,0 -6.47,-1.74 -6.47,-3.88c0,-2.14 4.33,-3.88 6.47,-3.88z"/>
  <path id="jkHDbyXB0a" d="m103.61,28.69c-1.07,1.86 -3.44,2.49 -5.3,1.42c-1.86,-1.07 -2.49,-3.44 -1.42,-5.3c1.07,-1.85 4.74,-4.73 6.59,-3.66c1.86,1.07 1.2,5.69 0.13,7.54z"/>
  <path id="rw1E3wrif" d="m103.36,13.61c1.07,-1.85 3.44,-2.49 5.3,-1.42c1.85,1.07 2.49,3.45 1.41,5.3c-1.07,1.86 -4.73,4.73 -6.59,3.66c-1.85,-1.07 -1.2,-5.68 -0.12,-7.54z"/>
  <path id="B1OGFCjceb" d="m103.36,28.69c1.07,1.86 3.44,2.49 5.3,1.42c1.85,-1.07 2.49,-3.44 1.41,-5.3c-1.07,-1.85 -4.73,-4.73 -6.59,-3.66c-1.85,1.07 -1.2,5.69 -0.12,7.54z"/>
  <path id="J6almUCOt9" d="m103.61,13.61c-1.07,-1.85 -3.44,-2.49 -5.3,-1.42c-1.86,1.07 -2.49,3.45 -1.42,5.3c1.07,1.86 4.74,4.73 6.59,3.66c1.86,-1.07 1.2,-5.68 0.13,-7.54z"/>
  <path id="ragu6makDJ" d="m103.48,23.74c-1.42,0 -2.58,-1.16 -2.58,-2.59c0,-1.43 1.16,-2.58 2.58,-2.58c1.43,0 2.59,1.15 2.59,2.58c0,1.43 -1.16,2.59 -2.59,2.59z"/>
 </defs>
 <g>
  <title>background</title>
  <rect fill="none" id="canvas_background" height="18" width="18" y="-1" x="-1"/>
 </g>
 <g>
  <title>Layer 1</title>
  <g id="svg_1">
   <g id="svg_2">
    <path id="svg_3"/>
    <g id="svg_4">
     <use id="svg_5" fill="#ffc3a0" xlink:href="#vnERY2BHu4"/>
     <g id="svg_6">
      <use id="svg_7" stroke-opacity="0" stroke="#000000" fill-opacity="0" xlink:href="#vnERY2BHu4"/>
     </g>
    </g>
    <g id="svg_8">
     <use id="svg_9" fill="#734b46" xlink:href="#hEj96sJBmz"/>
     <g id="svg_10">
      <use id="svg_11" stroke-opacity="0" stroke="#000000" fill-opacity="0" xlink:href="#hEj96sJBmz"/>
     </g>
    </g>
    <g id="svg_12">
     <use id="svg_13" fill="#ffd6b3" xlink:href="#qtlTS9PViw"/>
     <g id="svg_14">
      <use id="svg_15" stroke-opacity="0" stroke="#000000" fill-opacity="0" xlink:href="#qtlTS9PViw"/>
     </g>
    </g>
    <g id="svg_16">
     <use id="svg_17" fill="#ffd6b3" xlink:href="#y9VMt4lSD3"/>
     <g id="svg_18">
      <use id="svg_19" stroke-opacity="0" stroke="#000000" fill-opacity="0" xlink:href="#y9VMt4lSD3"/>
     </g>
    </g>
    <g id="svg_20">
     <use id="svg_21" fill="#ffd6b3" xlink:href="#T7DOYyETxx"/>
     <g id="svg_22">
      <use id="svg_23" stroke-opacity="0" stroke="#000000" fill-opacity="0" xlink:href="#T7DOYyETxx"/>
     </g>
    </g>
    <g id="svg_24">
     <use id="svg_25" fill="#ffd6b3" xlink:href="#khajMo1mgu"/>
     <g id="svg_26">
      <use id="svg_27" stroke-opacity="0" stroke="#000000" fill-opacity="0" xlink:href="#khajMo1mgu"/>
     </g>
    </g>
    <g id="svg_28">
     <use id="svg_29" fill="#ffe5d1" xlink:href="#Khiyt2jd0m"/>
     <g id="svg_30">
      <use id="svg_31" stroke-opacity="0" stroke="#000000" fill-opacity="0" xlink:href="#Khiyt2jd0m"/>
     </g>
    </g>
    <g id="svg_32">
     <use id="svg_33" fill="#ffd6b3" xlink:href="#ZiOF8slwVg"/>
     <g id="svg_34">
      <use id="svg_35" stroke-opacity="0" stroke="#000000" fill-opacity="0" xlink:href="#ZiOF8slwVg"/>
     </g>
    </g>
    <g id="svg_36">
     <use id="svg_37" fill="#6e4141" xlink:href="#ATIHcl2MF"/>
     <g id="svg_38">
      <use id="svg_39" stroke-opacity="0" stroke="#000000" fill-opacity="0" xlink:href="#ATIHcl2MF"/>
     </g>
    </g>
    <g id="svg_40">
     <use id="svg_41" fill="#6e4141" xlink:href="#BskzCPYmRw"/>
     <g id="svg_42">
      <use id="svg_43" stroke-opacity="0" stroke="#000000" fill-opacity="0" xlink:href="#BskzCPYmRw"/>
     </g>
    </g>
    <g id="svg_44">
     <use id="svg_45" fill="#e6b996" xlink:href="#l68fReCUkJ"/>
     <g id="svg_46">
      <use id="svg_47" stroke-opacity="0" stroke="#000000" fill-opacity="0" xlink:href="#l68fReCUkJ"/>
     </g>
    </g>
    <g id="svg_48">
     <use id="svg_49" fill="#17bc9c" xlink:href="#jtibXOo1Du"/>
     <g id="svg_50">
      <use id="svg_51" stroke-opacity="0" stroke="#000000" fill-opacity="0" xlink:href="#jtibXOo1Du"/>
     </g>
    </g>
    <g id="svg_52">
     <use id="svg_53" fill="#e85511" xlink:href="#Ng3mP1QQtA"/>
     <g id="svg_54">
      <use id="svg_55" stroke-opacity="0" stroke="#000000" fill-opacity="0" xlink:href="#Ng3mP1QQtA"/>
     </g>
    </g>
    <g id="svg_56">
     <use id="svg_57" fill="#bf4006" xlink:href="#EaZUCvQGt3"/>
     <g id="svg_58">
      <use id="svg_59" stroke-opacity="0" stroke="#000000" fill-opacity="0" xlink:href="#EaZUCvQGt3"/>
     </g>
    </g>
    <g id="svg_60">
     <use id="svg_61" fill="#e85511" xlink:href="#cBpHxsj5LZ"/>
     <g id="svg_62">
      <use id="svg_63" stroke-opacity="0" stroke="#000000" fill-opacity="0" xlink:href="#cBpHxsj5LZ"/>
     </g>
    </g>
    <g id="svg_64">
     <use id="svg_65" fill="#bf4006" xlink:href="#X4BFKnurcR"/>
     <g id="svg_66">
      <use id="svg_67" stroke-opacity="0" stroke="#000000" fill-opacity="0" xlink:href="#X4BFKnurcR"/>
     </g>
    </g>
    <g id="svg_68">
     <use id="svg_69" fill="#734b46" xlink:href="#yAJVtesAQT"/>
     <g id="svg_70">
      <use id="svg_71" stroke-opacity="0" stroke="#000000" fill-opacity="0" xlink:href="#yAJVtesAQT"/>
     </g>
    </g>
    <g id="svg_72">
     <use id="svg_73" fill="#e85511" xlink:href="#QuHnrHDbQA"/>
     <g id="svg_74">
      <use id="svg_75" stroke-opacity="0" stroke="#000000" fill-opacity="0" xlink:href="#QuHnrHDbQA"/>
     </g>
    </g>
    <g id="svg_76">
     <use id="svg_77" fill="#e85511" xlink:href="#hnV4Or10HQ"/>
     <g id="svg_78">
      <use id="svg_79" stroke-opacity="0" stroke="#000000" fill-opacity="0" xlink:href="#hnV4Or10HQ"/>
     </g>
    </g>
    <g id="svg_80">
     <use id="svg_81" fill="#bf4006" xlink:href="#MB41de72Mn"/>
     <g id="svg_82">
      <use id="svg_83" stroke-opacity="0" stroke="#000000" fill-opacity="0" xlink:href="#MB41de72Mn"/>
     </g>
    </g>
    <g id="svg_84">
     <use id="svg_85" fill="#bf4007" xlink:href="#s9QUQaFht5"/>
     <g id="svg_86">
      <use id="svg_87" stroke-opacity="0" stroke="#000000" fill-opacity="0" xlink:href="#s9QUQaFht5"/>
     </g>
    </g>
    <g id="svg_88">
     <use id="svg_89" fill="#e85511" xlink:href="#jkHDbyXB0a"/>
     <g id="svg_90">
      <use id="svg_91" stroke-opacity="0" stroke="#000000" fill-opacity="0" xlink:href="#jkHDbyXB0a"/>
     </g>
    </g>
    <g id="svg_92">
     <use id="svg_93" fill="#e85511" xlink:href="#rw1E3wrif"/>
     <g id="svg_94">
      <use id="svg_95" stroke-opacity="0" stroke="#000000" fill-opacity="0" xlink:href="#rw1E3wrif"/>
     </g>
    </g>
    <g id="svg_96">
     <use id="svg_97" fill="#cc511a" xlink:href="#B1OGFCjceb"/>
     <g id="svg_98">
      <use id="svg_99" stroke-opacity="0" stroke="#000000" fill-opacity="0" xlink:href="#B1OGFCjceb"/>
     </g>
    </g>
    <g id="svg_100">
     <use id="svg_101" fill="#cc511a" xlink:href="#J6almUCOt9"/>
     <g id="svg_102">
      <use id="svg_103" stroke-opacity="0" stroke="#000000" fill-opacity="0" xlink:href="#J6almUCOt9"/>
     </g>
    </g>
    <g id="svg_104">
     <use id="svg_105" fill="#ffffff" xlink:href="#ragu6makDJ"/>
     <g id="svg_106">
      <use id="svg_107" stroke-opacity="0" stroke="#000000" fill-opacity="0" xlink:href="#ragu6makDJ"/>
     </g>
    </g>
    <path id="svg_108"/>
   </g>
  </g>
 </g>
</svg>