<svg width="70" height="70" xmlns="http://www.w3.org/2000/svg">

 <g>
  <title>background</title>
  <rect fill="none" id="canvas_background" height="72" width="72" y="-1" x="-1"/>
 </g>
 <g>
  <title>Layer 1</title>
  <g id="svg_54">
   <g id="svg_55">
    <g id="svg_56">
     <path id="svg_57" fill="#A5465A" d="m35,35.323002c0,6.626999 -13.372986,12 -20,12s-12,-5.373001 -12,-12s5.372986,-12 12,-12s20,5.371998 20,12z"/>
    </g>
   </g>
   <g id="svg_58">
    <g id="svg_59">
     <path id="svg_60" fill="#A5465A" d="m35,35.323002c0,-6.627003 13.372986,-12 20,-12s12,5.372997 12,12s-5.372986,12 -12,12s-20,-5.373001 -20,-12z"/>
    </g>
   </g>
   <g id="svg_61">
    <g id="svg_62">
     <path id="svg_63" fill="#FF6472" d="m35,35.323002c5.73999,3.313999 3.705994,17.580997 0.391998,23.320995s-10.652008,7.705002 -16.391998,4.391006s-7.705994,-10.653 -4.391998,-16.392002s14.652008,-14.634003 20.391998,-11.32z"/>
    </g>
   </g>
   <g id="svg_64">
    <g id="svg_65">
     <path id="svg_66" fill="#FF6472" d="m35,35.323002c-5.73999,-3.314003 -3.705994,-17.581001 -0.391998,-23.321001s10.652008,-7.706001 16.391998,-4.392s7.705994,10.653 4.391998,16.391998s-14.652008,14.634003 -20.391998,11.321003z"/>
    </g>
   </g>
   <g id="svg_67">
    <g id="svg_68">
     <path id="svg_69" fill="#D25566" d="m35,35.323002c-5.73999,3.313999 -3.705994,17.580997 -0.391998,23.320995s10.652008,7.705002 16.391998,4.391006s7.705994,-10.653 4.391998,-16.392002s-14.652008,-14.634003 -20.391998,-11.32z"/>
    </g>
   </g>
   <g id="svg_70">
    <g id="svg_71">
     <path id="svg_72" fill="#D25566" d="m35,35.323002c5.73999,-3.314003 3.705994,-17.581001 0.391998,-23.321001s-10.652008,-7.706001 -16.391998,-4.392s-7.705994,10.653 -4.391998,16.391998s14.652008,14.634003 20.391998,11.321003z"/>
    </g>
   </g>
   <g id="svg_73">
    <g id="svg_74">
     <circle id="svg_75" fill="#FFFFFF" r="8" cy="35.323" cx="35"/>
    </g>
   </g>
  </g>
  <g id="svg_76"/>
  <g id="svg_77"/>
  <g id="svg_78"/>
  <g id="svg_79"/>
  <g id="svg_80"/>
  <g id="svg_81"/>
  <g id="svg_82"/>
  <g id="svg_83"/>
  <g id="svg_84"/>
  <g id="svg_85"/>
  <g id="svg_86"/>
  <g id="svg_87"/>
  <g id="svg_88"/>
  <g id="svg_89"/>
  <g id="svg_90"/>
 </g>
</svg>