<svg width="105" height="105" xmlns="http://www.w3.org/2000/svg">

 <g>
  <title>background</title>
  <rect fill="none" id="canvas_background" height="107" width="107" y="-1" x="-1"/>
 </g>
 <g>
  <title>Layer 1</title>
  <g id="svg_32">
   <path id="svg_1" fill="#abe188" d="m45.915737,16.30777l0,84.69223c23.149258,0 41.915737,-18.958984 41.915737,-42.34613s-18.766479,-42.3461 -41.915737,-42.3461z"/>
   <path id="svg_2" fill="#abe188" d="m81.464394,58.65387c0,-23.386932 -15.915733,-42.3461 -35.548843,-42.3461c-23.149261,0 -41.91555,18.959167 -41.91555,42.3461s18.766289,42.34613 41.915737,42.34613c19.633106,0 35.548656,-18.958984 35.548656,-42.34613z"/>
   <circle id="svg_3" fill="#FFFFFF" r="30.773563" cy="58.653878" cx="45.915736"/>
   <circle id="svg_4" fill="#bae59e" r="19.631413" cy="58.653878" cx="45.915736"/>
   <circle id="svg_6" fill="#79b253" r="8.48925" cy="58.653878" cx="45.915736"/>
   <path id="svg_7" fill="#ff6472" d="m98.078705,5.955322l-12.756042,6.822296l10.504868,7.580475l2.251175,-2.274292c3.315277,-3.348938 3.315277,-8.779541 0,-12.128479z"/>
   <path id="svg_8" fill="#f7858f" d="m86.073303,5.955322l-2.250992,2.274109l4.501984,7.580444l9.754601,-9.854736c-3.315468,-3.349152 -8.690308,-3.349152 -12.005592,0.000183z"/>
   <polygon id="svg_9" fill="#92ccf4" points="54.08342361450195,50.40234375 62.72356414794922,53.802154541015625 91.32555389404297,24.906494140625 85.3228530883789,15.80987548828125 "/>
   <polygon id="svg_10" fill="#b8e1ff" points="79.32014465332031,12.77783203125 50.718162536621094,41.673492431640625 54.08342361450195,50.40234375 86.82357788085938,17.326019287109375 "/>
   <polygon id="svg_11" fill="#B9B9B9" points="89.82501220703125,14.29376220703125 86.07330322265625,15.051727294921875 85.3228530883789,18.8421630859375 91.32555389404297,24.906494140625 95.8279037475586,20.3582763671875 "/>
   <rect id="svg_12" fill="#DCDCDC" height="45.011" width="33.758" transform="matrix(-0.133362, 0.134731, -0.133362, -0.134731, 145.42, 374.118)" y="1543.776513" x="-1126.895897"/>
   <polygon id="svg_13" fill="#FFC1A6" points="56.720863342285156,47.737823486328125 48.16691207885742,53.347503662109375 54.08625030517578,56.295562744140625 62.72356414794922,53.802520751953125 "/>
   <polygon id="svg_14" fill="#FFDBCC" points="50.718162536621094,41.673492431640625 48.250274658203125,50.39947509765625 49.66744613647461,54.8636474609375 56.720863342285156,47.737823486328125 "/>
   <polygon id="svg_15" fill="#272727" points="51.16817092895508,53.347503662109375 48.466041564941406,53.651611328125 45.91573715209961,58.65386962890625 54.08625030517578,56.295562744140625 "/>
   <polygon id="svg_16" fill="#4D4D4D" points="48.250274658203125,50.39947509765625 45.91573715209961,58.65386962890625 51.16817092895508,53.347503662109375 "/>
   <g id="svg_17"/>
   <g id="svg_18"/>
   <g id="svg_19"/>
   <g id="svg_20"/>
   <g id="svg_21"/>
   <g id="svg_22"/>
   <g id="svg_23"/>
   <g id="svg_24"/>
   <g id="svg_25"/>
   <g id="svg_26"/>
   <g id="svg_27"/>
   <g id="svg_28"/>
   <g id="svg_29"/>
   <g id="svg_30"/>
   <g id="svg_31"/>
  </g>
 </g>
</svg>