<svg width="57" height="57" xmlns="http://www.w3.org/2000/svg">

 <g>
  <title>background</title>
  <rect fill="none" id="canvas_background" height="402" width="582" y="-1" x="-1"/>
 </g>
 <g>
  <title>Layer 1</title>
  <path id="svg_2" fill="#FFD581" d="m48,28c0,-0.309999 0.032001,-0.612 0.091999,-0.903999c-2.877998,-8.045 -10.486,-13.596001 -19.591999,-13.596001s-16.714,5.551001 -19.592,13.596001c0.06,0.292 0.092,0.594 0.092,0.903999l0,14c0,0.058998 -0.015,0.115002 -0.018,0.173c3.065,7.797001 10.632999,13.327 19.518,13.327c8.884998,0 16.452999,-5.529999 19.518002,-13.326c-0.003002,-0.058998 -0.018002,-0.115002 -0.018002,-0.174l0,-14z"/>
  <path id="svg_3" fill="#CB8252" d="m29,51.5c-4.410999,0 -8,-3.589001 -8,-8c0,-0.553001 0.447001,-1 1,-1s1,0.446999 1,1c0,3.308998 2.691,6 6,6s6,-2.691002 6,-6c0,-0.553001 0.446999,-1 1,-1s1,0.446999 1,1c0,4.410999 -3.589001,8 -8,8z"/>
  <circle id="svg_4" fill="#B27821" r="2" cy="36.5" cx="22"/>
  <circle id="svg_5" fill="#B27821" r="2" cy="36.5" cx="36"/>
  <path id="svg_6" fill="#AF8066" d="m48.984001,30.326c-1.918999,-10.856001 -10.215,-18.15 -20.643,-18.15c-10.237999,0 -18.407,7.294001 -20.326,18.15c-0.091,0.508999 0.223,1.003 0.722,1.139c0.16,0.044001 3.990999,1.07 9.272999,1.07c5.188002,0 12.669001,-1.038 18.855001,-5.979c0.16,-0.131001 0.246998,-0.058001 0.304001,0.025c1.411999,2.104 3.775997,5.626001 7.790997,5.626001c1.093002,0 2.250999,-0.267 3.442001,-0.792c0.423,-0.186001 0.661999,-0.636002 0.582001,-1.089001z"/>
  <path id="svg_7" fill="#cec2ff" d="m4.5,46.5l0,0c-2.475,0 -4.5,-2.025002 -4.5,-4.5l0,-14c0,-2.475 2.025,-4.5 4.5,-4.5l0,0c2.475,0 4.5,2.025 4.5,4.5l0,14c0,2.474998 -2.025,4.5 -4.5,4.5z"/>
  <path id="svg_8" fill="#cec2ff" d="m52.5,46.5l0,0c-2.474998,0 -4.5,-2.025002 -4.5,-4.5l0,-14c0,-2.475 2.025002,-4.5 4.5,-4.5l0,0c2.474998,0 4.5,2.025 4.5,4.5l0,14c0,2.474998 -2.025002,4.5 -4.5,4.5z"/>
  <path id="svg_9" fill="#8080bf" d="m54,24.5l-2,0c0,-12.364 -9.662998,-21 -23.5,-21s-23.5,8.636 -23.5,21l-2,0c0,-13.327 10.725,-23 25.5,-23s25.5,9.673 25.5,23z"/>
  <g id="svg_10"/>
  <g id="svg_11"/>
  <g id="svg_12"/>
  <g id="svg_13"/>
  <g id="svg_14"/>
  <g id="svg_15"/>
  <g id="svg_16"/>
  <g id="svg_17"/>
  <g id="svg_18"/>
  <g id="svg_19"/>
  <g id="svg_20"/>
  <g id="svg_21"/>
  <g id="svg_22"/>
  <g id="svg_23"/>
  <g id="svg_24"/>
 </g>
</svg>