<svg width="80" height="80" xmlns="http://www.w3.org/2000/svg">

 <g>
  <title>background</title>
  <rect fill="none" id="canvas_background" height="82" width="82" y="-1" x="-1"/>
 </g>
 <g>
  <title>Layer 1</title>
  <g id="svg_3"/>
  <g id="svg_4"/>
  <g id="svg_5"/>
  <g id="svg_6"/>
  <g id="svg_7"/>
  <g id="svg_8"/>
  <g id="svg_9"/>
  <g id="svg_10"/>
  <g id="svg_11"/>
  <g id="svg_12"/>
  <g id="svg_13"/>
  <g id="svg_14"/>
  <g id="svg_15"/>
  <g id="svg_16"/>
  <g id="svg_17"/>
  <g id="svg_18">
   <path id="svg_1" fill="#ff6472" d="m73.15799,36.579834c0,-19.098 -15.705578,-34.577693 -35.078568,-34.577693c-19.373844,-0.000141 -35.079422,15.479411 -35.079422,34.577693c0,19.095352 15.705578,34.576157 35.079559,34.576157c19.372864,-0.000137 35.07843,-15.480949 35.07843,-34.576157z"/>
   <path id="svg_2" fill="#FFFFFF" d="m55.432766,34.789776l-24.738235,-14.972771c-0.675333,-0.408941 -1.564049,-0.426641 -2.255508,-0.044878c-0.704044,0.388172 -1.14126,1.12326 -1.14126,1.918148l0,29.827333c0,0.793491 0.435944,1.52803 1.137726,1.916759c0.33272,0.183983 0.710409,0.281548 1.092333,0.281548c0.409641,0 0.810804,-0.111084 1.160206,-0.32098l24.737949,-14.85458c0.658508,-0.39529 1.068443,-1.113094 1.069714,-1.873272c0.001408,-0.76004 -0.40583,-1.479523 -1.062923,-1.877308z"/>
  </g>
 </g>
</svg>