<svg width="150" height="120" xmlns="http://www.w3.org/2000/svg">

 <g>
  <title>background</title>
  <rect fill="none" id="canvas_background" height="122" width="152" y="-1" x="-1"/>
 </g>
 <g>
  <title>Layer 1</title>
  <g id="svg_35">
   <path id="svg_1" fill="#b8e1ff" d="m84.995094,13.814999c-5.796181,0 -10.495094,5.010731 -10.495094,11.191914c0,-6.181183 -4.698914,-11.191914 -10.495087,-11.191914l-55.004913,0l0,91.318607l65.5,0.682114l65.5,-0.682114l0,-91.318607l-55.004906,0z"/>
   <path id="svg_2" fill="#EDEEF0" d="m84.255516,21.57785c-5.230598,0 -9.470726,4.521767 -9.470726,10.099808c0,-5.578041 -4.240128,-10.099808 -9.470734,-10.099808l-49.637897,0l0,74.137756l49.637897,0c5.230598,0 9.470726,4.522079 9.470726,10.100113c0,-5.578033 4.240128,-10.100113 9.470734,-10.100113l49.637886,0l0,-74.137756l-49.637886,0z"/>
   <rect id="svg_3" opacity="0.4" fill="#5B5B5F" height="3.036989" width="21.22314" y="31.521556" x="26.139357"/>
   <rect id="svg_4" opacity="0.4" fill="#5B5B5F" height="3.036989" width="37.612664" y="40.094673" x="26.139357"/>
   <rect id="svg_5" opacity="0.4" fill="#5B5B5F" height="3.036989" width="37.612664" y="48.668092" x="26.139357"/>
   <rect id="svg_6" opacity="0.4" fill="#5B5B5F" height="3.036989" width="37.612664" y="57.241209" x="26.139357"/>
   <rect id="svg_7" opacity="0.4" fill="#5B5B5F" height="3.036989" width="37.612664" y="65.814628" x="26.139357"/>
   <rect id="svg_8" opacity="0.4" fill="#5B5B5F" height="3.036989" width="37.612664" y="74.388048" x="26.139357"/>
   <rect id="svg_9" opacity="0.4" fill="#5B5B5F" height="3.036989" width="37.612664" y="82.961165" x="26.139357"/>
   <rect id="svg_10" opacity="0.4" fill="#5B5B5F" height="3.036989" width="37.612664" y="40.094673" x="85.247983"/>
   <rect id="svg_11" opacity="0.4" fill="#5B5B5F" height="3.036989" width="37.612664" y="31.521556" x="85.247983"/>
   <rect id="svg_12" opacity="0.4" fill="#5B5B5F" height="3.036989" width="37.612664" y="48.668092" x="85.247983"/>
   <rect id="svg_13" opacity="0.4" fill="#5B5B5F" height="3.036989" width="37.612664" y="57.241209" x="85.247983"/>
   <rect id="svg_14" opacity="0.4" fill="#5B5B5F" height="3.036989" width="37.612664" y="65.814628" x="85.247983"/>
   <rect id="svg_15" opacity="0.4" fill="#5B5B5F" height="3.036989" width="37.612664" y="74.388048" x="85.247983"/>
   <rect id="svg_16" opacity="0.4" fill="#5B5B5F" height="3.036989" width="37.612664" y="82.961165" x="85.247983"/>
   <path id="svg_17" opacity="0.3" fill="#5B5B5F" d="m84.994812,13.814999c-5.795898,0 -10.494812,5.010731 -10.494812,11.191914l0,6.671051l0,74.137756l65.5,-0.682114l0,-91.318607l-55.005188,0z"/>
   <polygon id="svg_18" fill="#ff6472" points="110.8115005493164,117.18499755859375 107.33287048339844,113.28974914550781 103.68850708007812,117.18499755859375 103.68850708007812,13.847496032714844 110.8115005493164,13.847496032714844 "/>
   <polygon id="svg_19" opacity="0.3" fill="#5B5B5F" points="110.8115005493164,117.18499755859375 107.33287048339844,113.28974914550781 107.33287048339844,13.847496032714844 110.8115005493164,13.847496032714844 "/>
   <g id="svg_20"/>
   <g id="svg_21"/>
   <g id="svg_22"/>
   <g id="svg_23"/>
   <g id="svg_24"/>
   <g id="svg_25"/>
   <g id="svg_26"/>
   <g id="svg_27"/>
   <g id="svg_28"/>
   <g id="svg_29"/>
   <g id="svg_30"/>
   <g id="svg_31"/>
   <g id="svg_32"/>
   <g id="svg_33"/>
   <g id="svg_34"/>
  </g>
 </g>
</svg>