<svg width="200" height="200" xmlns="http://www.w3.org/2000/svg">

 <g>
  <title>background</title>
  <rect fill="none" id="canvas_background" height="202" width="202" y="-1" x="-1"/>
 </g>
 <g>
  <title>Layer 1</title>
  <g id="svg_46"/>
  <g id="svg_47"/>
  <g id="svg_48"/>
  <g id="svg_49"/>
  <g id="svg_50"/>
  <g id="svg_51"/>
  <g id="svg_52"/>
  <g id="svg_53"/>
  <g id="svg_54"/>
  <g id="svg_55"/>
  <g id="svg_56"/>
  <g id="svg_57"/>
  <g id="svg_58"/>
  <g id="svg_59"/>
  <g id="svg_60"/>
  <g id="svg_65">
   <path id="svg_4" fill="#646B79" d="m182.727188,70.385117l-14.638474,-15.933964l0,0l-136.89003,0l0,0l-14.638477,15.933964l0,18.818771l4.351833,0l0,2.884827l157.331078,0l0,-2.884827l4.351837,0l0,-18.818771l0.132233,0zm-17.803665,4.395905l-130.559658,0l3.428883,-8.791397l123.570045,0l3.56073,8.791397z"/>
   <rect id="svg_5" fill="#F1F3F7" height="55.357274" width="103.656393" y="19.286" x="47.426366"/>
   <g id="svg_42">
    <rect id="svg_43" fill="#BDBDBE" height="5.082566" width="43.519887" y="34.945295" x="61.537445"/>
    <rect id="svg_44" fill="#BDBDBE" height="5.082566" width="75.566476" y="50.330328" x="61.537445"/>
    <rect id="svg_45" fill="#BDBDBE" height="5.082566" width="75.566476" y="65.85229" x="61.537445"/>
   </g>
   <path id="svg_2" fill="#ff6472" d="m179.693848,180.000992l-160.100698,0c-6.857765,0 -11.605148,-6.593643 -10.418498,-14.285965l11.869239,-73.764046l157.331064,0l11.869247,73.764046c1.05481,7.692734 -3.692581,14.285965 -10.550354,14.285965z"/>
   <path id="svg_3" fill="#414753" d="m165.589386,115.714996l-132.669655,0l-7.121458,44.36853c-1.055189,6.181244 2.90148,11.538498 8.440355,11.538498l130.164097,0c5.538895,0 9.495178,-5.357254 8.440369,-11.538498l-7.253708,-44.36853z"/>
   <path id="svg_7" fill="#FFFFFC" d="m47.953766,119.011826l-5.934422,0c-0.791103,0 -1.582596,0.686668 -1.582596,1.648407l0,5.494553c0,0.824005 0.659256,1.648407 1.582596,1.648407l5.934422,0c0.7911,0 1.582592,-0.686646 1.582592,-1.648407l0,-5.494553c-0.131851,-0.961739 -0.791103,-1.648407 -1.582592,-1.648407z"/>
   <path id="svg_8" fill="#FFFFFC" d="m58.635963,119.011826l-5.934418,0c-0.791103,0 -1.582596,0.686668 -1.582596,1.648407l0,5.494553c0,0.824005 0.659248,1.648407 1.582596,1.648407l5.934418,0c0.791103,0 1.582588,-0.686646 1.582588,-1.648407l0,-5.494553c-0.131851,-0.961739 -0.791096,-1.648407 -1.582588,-1.648407z"/>
   <path id="svg_9" fill="#FFFFFC" d="m69.318161,119.011826l-5.934422,0c-0.791107,0 -1.582592,0.686668 -1.582592,1.648407l0,5.494553c0,0.824005 0.659256,1.648407 1.582592,1.648407l5.934422,0c0.791092,0 1.582588,-0.686646 1.582588,-1.648407l0,-5.494553c-0.131851,-0.961739 -0.7911,-1.648407 -1.582588,-1.648407z"/>
   <path id="svg_10" fill="#FFFFFC" d="m79.868507,119.011826l-5.934418,0c-0.791107,0 -1.582596,0.686668 -1.582596,1.648407l0,5.494553c0,0.824005 0.659248,1.648407 1.582596,1.648407l5.934418,0c0.791107,0 1.582588,-0.686646 1.582588,-1.648407l0,-5.494553c0,-0.961739 -0.659248,-1.648407 -1.582588,-1.648407z"/>
   <path id="svg_11" fill="#FFFFFC" d="m90.550705,119.011826l-5.934425,0c-0.791107,0 -1.582588,0.686668 -1.582588,1.648407l0,5.494553c0,0.824005 0.659241,1.648407 1.582588,1.648407l5.934425,0c0.791092,0 1.582588,-0.686646 1.582588,-1.648407l0,-5.494553c0,-0.961739 -0.659645,-1.648407 -1.582588,-1.648407z"/>
   <path id="svg_12" fill="#FFFFFC" d="m101.232903,119.011826l-5.934425,0c-0.7911,0 -1.582581,0.686668 -1.582581,1.648407l0,5.494553c0,0.824005 0.659241,1.648407 1.582581,1.648407l5.934425,0c0.791107,0 1.582596,-0.686646 1.582596,-1.648407l0,-5.494553c0,-0.961739 -0.659653,-1.648407 -1.582596,-1.648407z"/>
   <path id="svg_13" fill="#FFFFFC" d="m111.9151,119.011826l-5.934425,0c-0.791092,0 -1.582588,0.686668 -1.582588,1.648407l0,5.494553c0,0.824005 0.659264,1.648407 1.582588,1.648407l5.934425,0c0.7911,0 1.582588,-0.686646 1.582588,-1.648407l0,-5.494553c0,-0.961739 -0.791489,-1.648407 -1.582588,-1.648407z"/>
   <path id="svg_14" fill="#FFFFFC" d="m122.597298,119.011826l-5.934425,0c-0.7911,0 -1.582588,0.686668 -1.582588,1.648407l0,5.494553c0,0.824005 0.659248,1.648407 1.582588,1.648407l5.934425,0c0.791092,0 1.582588,-0.686646 1.582588,-1.648407l0,-5.494553c-0.13224,-0.961739 -0.791496,-1.648407 -1.582588,-1.648407z"/>
   <path id="svg_15" fill="#FFFFFC" d="m133.279495,119.011826l-5.934425,0c-0.7911,0 -1.582588,0.686668 -1.582588,1.648407l0,5.494553c0,0.824005 0.659241,1.648407 1.582588,1.648407l5.934425,0c0.791092,0 1.582581,-0.686646 1.582581,-1.648407l0,-5.494553c-0.132233,-0.961739 -0.791489,-1.648407 -1.582581,-1.648407z"/>
   <path id="svg_16" fill="#FFFFFC" d="m143.961304,119.011826l-5.934433,0c-0.791107,0 -1.582581,0.686668 -1.582581,1.648407l0,5.494553c0,0.824005 0.659256,1.648407 1.582581,1.648407l5.934433,0c0.791092,0 1.582581,-0.686646 1.582581,-1.648407l0,-5.494553c-0.131851,-0.961739 -0.791107,-1.648407 -1.582581,-1.648407z"/>
   <path id="svg_17" fill="#FFFFFC" d="m154.643494,119.011826l-5.934433,0c-0.791092,0 -1.582581,0.686668 -1.582581,1.648407l0,5.494553c0,0.824005 0.659256,1.648407 1.582581,1.648407l5.934433,0c0.791092,0 1.582581,-0.686646 1.582581,-1.648407l0,-5.494553c-0.131851,-0.961739 -0.791092,-1.648407 -1.582581,-1.648407z"/>
   <path id="svg_18" fill="#FFFFFC" d="m47.953766,144.14917l-5.934422,0c-0.791103,0 -1.582596,0.686676 -1.582596,1.648422l0,5.494553c0,0.82399 0.659256,1.648407 1.582596,1.648407l5.934422,0c0.7911,0 1.582592,-0.686661 1.582592,-1.648407l0,-5.494553c-0.131851,-0.961334 -0.791103,-1.648422 -1.582592,-1.648422z"/>
   <path id="svg_19" fill="#FFFFFC" d="m58.635963,144.14917l-5.934418,0c-0.791103,0 -1.582596,0.686676 -1.582596,1.648422l0,5.494553c0,0.82399 0.659248,1.648407 1.582596,1.648407l5.934418,0c0.791103,0 1.582588,-0.686661 1.582588,-1.648407l0,-5.494553c-0.131851,-0.961334 -0.791096,-1.648422 -1.582588,-1.648422z"/>
   <path id="svg_20" fill="#FFFFFC" d="m69.318161,144.14917l-5.934422,0c-0.791107,0 -1.582592,0.686676 -1.582592,1.648422l0,5.494553c0,0.82399 0.659256,1.648407 1.582592,1.648407l5.934422,0c0.791092,0 1.582588,-0.686661 1.582588,-1.648407l0,-5.494553c-0.131851,-0.961334 -0.7911,-1.648422 -1.582588,-1.648422z"/>
   <path id="svg_21" fill="#FFFFFC" d="m79.868507,144.14917l-5.934418,0c-0.791107,0 -1.582596,0.686676 -1.582596,1.648422l0,5.494553c0,0.82399 0.659248,1.648407 1.582596,1.648407l5.934418,0c0.791107,0 1.582588,-0.686661 1.582588,-1.648407l0,-5.494553c0,-0.961334 -0.659248,-1.648422 -1.582588,-1.648422z"/>
   <path id="svg_22" fill="#FFFFFC" d="m90.550705,144.14917l-5.934425,0c-0.791107,0 -1.582588,0.686676 -1.582588,1.648422l0,5.494553c0,0.82399 0.659241,1.648407 1.582588,1.648407l5.934425,0c0.791092,0 1.582588,-0.686661 1.582588,-1.648407l0,-5.494553c0,-0.961334 -0.659645,-1.648422 -1.582588,-1.648422z"/>
   <path id="svg_23" fill="#FFFFFC" d="m101.232903,144.14917l-5.934425,0c-0.7911,0 -1.582581,0.686676 -1.582581,1.648422l0,5.494553c0,0.82399 0.659241,1.648407 1.582581,1.648407l5.934425,0c0.791107,0 1.582596,-0.686661 1.582596,-1.648407l0,-5.494553c0,-0.961334 -0.659653,-1.648422 -1.582596,-1.648422z"/>
   <path id="svg_24" fill="#FFFFFC" d="m111.9151,144.14917l-5.934425,0c-0.791092,0 -1.582588,0.686676 -1.582588,1.648422l0,5.494553c0,0.82399 0.659264,1.648407 1.582588,1.648407l5.934425,0c0.7911,0 1.582588,-0.686661 1.582588,-1.648407l0,-5.494553c0,-0.961334 -0.791489,-1.648422 -1.582588,-1.648422z"/>
   <path id="svg_25" fill="#FFFFFC" d="m122.597298,144.14917l-5.934425,0c-0.7911,0 -1.582588,0.686676 -1.582588,1.648422l0,5.494553c0,0.82399 0.659248,1.648407 1.582588,1.648407l5.934425,0c0.791092,0 1.582588,-0.686661 1.582588,-1.648407l0,-5.494553c-0.13224,-0.961334 -0.791496,-1.648422 -1.582588,-1.648422z"/>
   <path id="svg_26" fill="#FFFFFC" d="m133.279495,144.14917l-5.934425,0c-0.7911,0 -1.582588,0.686676 -1.582588,1.648422l0,5.494553c0,0.82399 0.659241,1.648407 1.582588,1.648407l5.934425,0c0.791092,0 1.582581,-0.686661 1.582581,-1.648407l0,-5.494553c-0.132233,-0.961334 -0.791489,-1.648422 -1.582581,-1.648422z"/>
   <path id="svg_27" fill="#FFFFFC" d="m143.961304,144.14917l-5.934433,0c-0.791107,0 -1.582581,0.686676 -1.582581,1.648422l0,5.494553c0,0.82399 0.659256,1.648407 1.582581,1.648407l5.934433,0c0.791092,0 1.582581,-0.686661 1.582581,-1.648407l0,-5.494553c-0.131851,-0.961334 -0.791107,-1.648422 -1.582581,-1.648422z"/>
   <path id="svg_28" fill="#FFFFFC" d="m154.643494,144.14917l-5.934433,0c-0.791092,0 -1.582581,0.686676 -1.582581,1.648422l0,5.494553c0,0.82399 0.659256,1.648407 1.582581,1.648407l5.934433,0c0.791092,0 1.582581,-0.686661 1.582581,-1.648407l0,-5.494553c-0.131851,-0.961334 -0.791092,-1.648422 -1.582581,-1.648422z"/>
   <path id="svg_29" fill="#FFFFFC" d="m42.546749,131.512024l-5.934429,0c-0.7911,0 -1.582588,0.686676 -1.582588,1.648407l0,5.494568c0,0.824005 0.659248,1.648407 1.582588,1.648407l5.934429,0c0.791096,0 1.582584,-0.686646 1.582584,-1.648407l0,-5.494568c0,-0.961731 -0.659245,-1.648407 -1.582584,-1.648407z"/>
   <path id="svg_30" fill="#FFFFFC" d="m53.228943,131.512024l-5.934422,0c-0.791103,0 -1.582592,0.686676 -1.582592,1.648407l0,5.494568c0,0.824005 0.659252,1.648407 1.582592,1.648407l5.934422,0c0.7911,0 1.582592,-0.686646 1.582592,-1.648407l0,-5.494568c0,-0.961731 -0.659256,-1.648407 -1.582592,-1.648407z"/>
   <path id="svg_31" fill="#FFFFFC" d="m63.911137,131.512024l-5.934425,0c-0.791103,0 -1.582588,0.686676 -1.582588,1.648407l0,5.494568c0,0.824005 0.659248,1.648407 1.582588,1.648407l5.934425,0c0.791103,0 1.582592,-0.686646 1.582592,-1.648407l0,-5.494568c0,-0.961731 -0.659256,-1.648407 -1.582592,-1.648407z"/>
   <path id="svg_32" fill="#FFFFFC" d="m74.59333,131.512024l-5.934418,0c-0.7911,0 -1.582596,0.686676 -1.582596,1.648407l0,5.494568c0,0.824005 0.659248,1.648407 1.582596,1.648407l5.934418,0c0.791107,0 1.582596,-0.686646 1.582596,-1.648407l0,-5.494568c0,-0.961731 -0.7911,-1.648407 -1.582596,-1.648407z"/>
   <path id="svg_33" fill="#FFFFFC" d="m85.275528,131.512024l-5.934425,0c-0.791092,0 -1.582588,0.686676 -1.582588,1.648407l0,5.494568c0,0.824005 0.659256,1.648407 1.582588,1.648407l5.934425,0c0.7911,0 1.582588,-0.686646 1.582588,-1.648407l0,-5.494568c-0.131844,-0.961731 -0.791489,-1.648407 -1.582588,-1.648407z"/>
   <path id="svg_34" fill="#FFFFFC" d="m95.957733,131.512024l-5.934425,0c-0.7911,0 -1.582596,0.686676 -1.582596,1.648407l0,5.494568c0,0.824005 0.659248,1.648407 1.582596,1.648407l5.934425,0c0.791092,0 1.582588,-0.686646 1.582588,-1.648407l0,-5.494568c-0.131851,-0.961731 -0.791496,-1.648407 -1.582588,-1.648407z"/>
   <path id="svg_35" fill="#FFFFFC" d="m106.639923,131.512024l-5.934433,0c-0.791092,0 -1.582581,0.686676 -1.582581,1.648407l0,5.494568c0,0.824005 0.659241,1.648407 1.582581,1.648407l5.934433,0c0.791092,0 1.582581,-0.686646 1.582581,-1.648407l0,-5.494568c-0.131851,-0.961731 -0.791489,-1.648407 -1.582581,-1.648407z"/>
   <path id="svg_36" fill="#FFFFFC" d="m117.190269,131.512024l-5.934418,0c-0.791107,0 -1.582596,0.686676 -1.582596,1.648407l0,5.494568c0,0.824005 0.659248,1.648407 1.582596,1.648407l5.934418,0c0.7911,0 1.582596,-0.686646 1.582596,-1.648407l0,-5.494568c0,-0.961731 -0.659637,-1.648407 -1.582596,-1.648407z"/>
   <path id="svg_37" fill="#FFFFFC" d="m127.872459,131.512024l-5.934418,0c-0.7911,0 -1.582588,0.686676 -1.582588,1.648407l0,5.494568c0,0.824005 0.659248,1.648407 1.582588,1.648407l5.934418,0c0.791115,0 1.582603,-0.686646 1.582603,-1.648407l0,-5.494568c-0.000397,-0.961731 -0.659653,-1.648407 -1.582603,-1.648407z"/>
   <path id="svg_38" fill="#FFFFFC" d="m138.554276,131.512024l-5.934418,0c-0.791107,0 -1.582596,0.686676 -1.582596,1.648407l0,5.494568c0,0.824005 0.659241,1.648407 1.582596,1.648407l5.934418,0c0.791107,0 1.582596,-0.686646 1.582596,-1.648407l0,-5.494568c0,-0.961731 -0.659241,-1.648407 -1.582596,-1.648407z"/>
   <path id="svg_39" fill="#FFFFFC" d="m149.236465,131.512024l-5.934402,0c-0.791122,0 -1.582596,0.686676 -1.582596,1.648407l0,5.494568c0,0.824005 0.659241,1.648407 1.582596,1.648407l5.934402,0c0.791107,0 1.582611,-0.686646 1.582611,-1.648407l0,-5.494568c0,-0.961731 -0.791122,-1.648407 -1.582611,-1.648407z"/>
   <path id="svg_40" fill="#FFFFFC" d="m159.918671,131.512024l-5.934433,0c-0.791092,0 -1.582581,0.686676 -1.582581,1.648407l0,5.494568c0,0.824005 0.659241,1.648407 1.582581,1.648407l5.934433,0c0.791092,0 1.582581,-0.686646 1.582581,-1.648407l0,-5.494568c-0.131866,-0.961731 -0.791107,-1.648407 -1.582581,-1.648407z"/>
   <path id="svg_41" fill="#FFFFFC" d="m133.80687,157.610718l-70.950535,0c-0.527401,0 -0.923344,0.549332 -0.923344,1.09906l0,5.769257c0,0.686661 0.395557,1.09906 0.923344,1.09906l71.082401,0c0.52739,0 0.922958,-0.549332 0.922958,-1.09906l0,-5.769257c-0.131851,-0.549332 -0.527405,-1.09906 -1.054825,-1.09906z"/>
  </g>
 </g>
</svg>